<?xml version="1.0" encoding="UTF-8" standalone="no"?>
<!-- Generator: Adobe Illustrator 19.0.0, SVG Export Plug-In . SVG Version: 6.00 Build 0)  -->

<svg
   xmlns:dc="http://purl.org/dc/elements/1.1/"
   xmlns:cc="http://creativecommons.org/ns#"
   xmlns:rdf="http://www.w3.org/1999/02/22-rdf-syntax-ns#"
   xmlns:svg="http://www.w3.org/2000/svg"
   xmlns="http://www.w3.org/2000/svg"
   xmlns:sodipodi="http://sodipodi.sourceforge.net/DTD/sodipodi-0.dtd"
   xmlns:inkscape="http://www.inkscape.org/namespaces/inkscape"
   version="1.1"
   id="Layer_1"
   x="0px"
   y="0px"
   viewBox="0 0 199.66101 199.66101"
   xml:space="preserve"
   width="206.10168"
   height="206.10168"
   inkscape:version="0.91 r13725"
   sodipodi:docname="decision-making2.svg"><metadata
     id="metadata67"><rdf:RDF><cc:Work
         rdf:about=""><dc:format>image/svg+xml</dc:format><dc:type
           rdf:resource="http://purl.org/dc/dcmitype/StillImage" /><dc:title /></cc:Work></rdf:RDF></metadata><defs
     id="defs65" /><sodipodi:namedview
     pagecolor="#ffffff"
     bordercolor="#666666"
     borderopacity="1"
     objecttolerance="10"
     gridtolerance="10"
     guidetolerance="10"
     inkscape:pageopacity="0"
     inkscape:pageshadow="2"
     inkscape:window-width="1615"
     inkscape:window-height="1026"
     id="namedview63"
     showgrid="false"
     inkscape:zoom="0.4609375"
     inkscape:cx="-113.89831"
     inkscape:cy="-49.898318"
     inkscape:window-x="65"
     inkscape:window-y="24"
     inkscape:window-maximized="1"
     inkscape:current-layer="Layer_1"
     fit-margin-top="0"
     fit-margin-left="0"
     fit-margin-right="0"
     fit-margin-bottom="0" /><g
     id="g33" /><g
     id="g35" /><g
     id="g37" /><g
     id="g39" /><g
     id="g41" /><g
     id="g43" /><g
     id="g45" /><g
     id="g47" /><g
     id="g49" /><g
     id="g51" /><g
     id="g53" /><g
     id="g55" /><g
     id="g57" /><g
     id="g59" /><g
     id="g61" /><g
     id="g4"
     transform="matrix(0.66021662,0,0,0.65103015,2.8391908,4.2033666)"
     style="fill:#428bca;fill-opacity:1"><path
       d="m 148.5,62.024 c 17.1,0 31.012,-13.912 31.012,-31.012 C 179.512,13.912 165.6,0 148.5,0 c -17.1,0 -31.012,13.912 -31.012,31.012 0,17.1 13.912,31.012 31.012,31.012 z"
       id="path6"
       inkscape:connector-curvature="0"
       style="fill:#428bca;fill-opacity:1" /><path
       d="m 201.361,157.156 0,-54.163 c 0,-11.801 -7.584,-22.266 -18.799,-25.94 l -0.052,-0.017 -8.851,-2.716 c -1.396,-0.429 -2.888,0.31 -3.39,1.687 l -18.612,51.067 c -1.074,2.946 -5.24,2.946 -6.314,0 L 126.731,76.007 c -0.405,-1.112 -1.455,-1.81 -2.58,-1.81 -0.267,0 -9.651,2.835 -9.651,2.835 -11.307,3.768 -18.861,14.25 -18.861,26.102 l 0,54.021 c 0,0.536 0.157,1.061 0.451,1.509 l 19.42,29.553 0,74.777 c 0,1.518 1.231,2.749 2.749,2.749 l 60.48,0 c 1.518,0 2.749,-1.231 2.749,-2.749 l 0,-74.777 19.42,-29.553 c 0.296,-0.448 0.453,-0.972 0.453,-1.508 z"
       id="path8"
       inkscape:connector-curvature="0"
       style="fill:#428bca;fill-opacity:1" /><path
       d="m 52.175,243.045 c 1.957,-4.455 -0.069,-9.652 -4.523,-11.609 -4.46,-1.961 -9.653,0.069 -11.609,4.523 l -13.754,31.317 c -1.957,4.455 0.069,9.652 4.523,11.609 l 31.317,13.754 c 1.153,0.506 2.355,0.746 3.538,0.746 3.39,0 6.621,-1.967 8.071,-5.27 1.957,-4.455 -0.069,-9.652 -4.523,-11.609 l -11.844,-5.201 52.374,-20.408 0,-18.91 -58.771,22.901 5.201,-11.843 z"
       id="path10"
       inkscape:connector-curvature="0"
       style="fill:#428bca;fill-opacity:1" /><path
       d="m 67.474,169.584 c 4.534,-1.766 6.777,-6.874 5.01,-11.407 -1.767,-4.535 -6.876,-6.782 -11.407,-5.01 l -31.87,12.419 c -4.534,1.766 -6.777,6.874 -5.01,11.407 l 12.419,31.87 c 1.357,3.483 4.685,5.614 8.211,5.614 1.064,0 2.146,-0.193 3.196,-0.603 4.534,-1.766 6.777,-6.874 5.01,-11.407 l -4.697,-12.052 57.409,25.213 0,-19.244 -50.323,-22.101 12.052,-4.699 z"
       id="path12"
       inkscape:connector-curvature="0"
       style="fill:#428bca;fill-opacity:1" /><path
       d="m 260.385,240.701 c -1.767,-4.535 -6.875,-6.782 -11.407,-5.01 -4.534,1.766 -6.777,6.874 -5.01,11.407 l 4.697,12.053 -57.409,-25.213 0,19.244 50.323,22.101 -12.052,4.696 c -4.534,1.766 -6.777,6.874 -5.01,11.407 1.357,3.483 4.685,5.615 8.211,5.614 1.064,0 2.146,-0.193 3.196,-0.603 l 31.87,-12.419 c 4.534,-1.766 6.777,-6.874 5.01,-11.407 l -12.419,-31.87 z"
       id="path14"
       inkscape:connector-curvature="0"
       style="fill:#428bca;fill-opacity:1" /><path
       d="m 270.188,170.677 -31.317,-13.754 c -4.46,-1.959 -9.652,0.069 -11.609,4.523 -1.957,4.454 0.069,9.652 4.523,11.609 l 11.844,5.201 -52.374,20.408 0,18.911 58.771,-22.902 -5.201,11.843 c -1.957,4.455 0.069,9.652 4.523,11.609 1.153,0.506 2.355,0.746 3.538,0.746 3.39,0 6.621,-1.967 8.071,-5.27 l 13.754,-31.317 c 1.957,-4.452 -0.069,-9.65 -4.523,-11.607 z"
       id="path16"
       inkscape:connector-curvature="0"
       style="fill:#428bca;fill-opacity:1" /><path
       d="m 155.568,75.322 c -0.747,-0.814 -1.84,-1.224 -2.946,-1.224 l -8.245,0 c -1.105,0 -2.198,0.41 -2.946,1.224 -1.157,1.261 -1.325,3.082 -0.504,4.506 l 4.407,6.644 -2.063,17.405 4.063,10.808 c 0.396,1.087 1.933,1.087 2.33,0 l 4.063,-10.808 -2.063,-17.405 4.407,-6.644 c 0.822,-1.424 0.654,-3.245 -0.503,-4.506 z"
       id="path18"
       inkscape:connector-curvature="0"
       style="fill:#428bca;fill-opacity:1" /></g></svg>