<?xml version="1.0" encoding="UTF-8" standalone="no"?>
<!-- Generator: Adobe Illustrator 19.0.0, SVG Export Plug-In . SVG Version: 6.00 Build 0)  -->

<svg
   xmlns:dc="http://purl.org/dc/elements/1.1/"
   xmlns:cc="http://creativecommons.org/ns#"
   xmlns:rdf="http://www.w3.org/1999/02/22-rdf-syntax-ns#"
   xmlns:svg="http://www.w3.org/2000/svg"
   xmlns="http://www.w3.org/2000/svg"
   xmlns:sodipodi="http://sodipodi.sourceforge.net/DTD/sodipodi-0.dtd"
   xmlns:inkscape="http://www.inkscape.org/namespaces/inkscape"
   version="1.1"
   id="Layer_1"
   x="0px"
   y="0px"
   viewBox="0 0 199.66101 199.66101"
   xml:space="preserve"
   width="206.10168"
   height="206.10168"
   inkscape:version="0.91 r13725"
   sodipodi:docname="quality2.svg"><metadata
     id="metadata67"><rdf:RDF><cc:Work
         rdf:about=""><dc:format>image/svg+xml</dc:format><dc:type
           rdf:resource="http://purl.org/dc/dcmitype/StillImage" /><dc:title /></cc:Work></rdf:RDF></metadata><defs
     id="defs65" /><sodipodi:namedview
     pagecolor="#ffffff"
     bordercolor="#666666"
     borderopacity="1"
     objecttolerance="10"
     gridtolerance="10"
     guidetolerance="10"
     inkscape:pageopacity="0"
     inkscape:pageshadow="2"
     inkscape:window-width="1615"
     inkscape:window-height="1026"
     id="namedview63"
     showgrid="false"
     inkscape:zoom="0.4609375"
     inkscape:cx="-113.89831"
     inkscape:cy="-49.898318"
     inkscape:window-x="65"
     inkscape:window-y="24"
     inkscape:window-maximized="1"
     inkscape:current-layer="Layer_1"
     fit-margin-top="0"
     fit-margin-left="0"
     fit-margin-right="0"
     fit-margin-bottom="0" /><g
     id="g3"
     transform="scale(0.40254236,0.40254236)"
     style="fill:#428bca;fill-opacity:1"><g
       id="g5"
       style="fill:#428bca;fill-opacity:1"><g
         id="g7"
         style="fill:#428bca;fill-opacity:1"><path
           d="M 83.504,407.28 C 95.88,398.584 104,384.232 104,368 104,341.528 82.472,320 56,320 29.528,320 8,341.528 8,368 8,384.232 16.12,398.584 28.496,407.28 11.512,416.904 0,435.12 0,456 l 0,40 112,0 0,-40 c 0,-20.88 -11.512,-39.096 -28.496,-48.72 z M 24,368 c 0,-17.648 14.352,-32 32,-32 17.648,0 32,14.352 32,32 0,17.648 -14.352,32 -32,32 -17.648,0 -32,-14.352 -32,-32 z m 72,112 -80,0 0,-24 c 0,-22.056 17.944,-40 40,-40 22.056,0 40,17.944 40,40 l 0,24 z"
           id="path9"
           inkscape:connector-curvature="0"
           style="fill:#428bca;fill-opacity:1" /><path
           d="M 211.504,407.28 C 223.88,398.584 232,384.232 232,368 c 0,-26.472 -21.528,-48 -48,-48 -26.472,0 -48,21.528 -48,48 0,16.232 8.12,30.584 20.496,39.28 C 139.512,416.904 128,435.12 128,456 l 0,40 112,0 0,-40 c 0,-20.88 -11.512,-39.096 -28.496,-48.72 z M 152,368 c 0,-17.648 14.352,-32 32,-32 17.648,0 32,14.352 32,32 0,17.648 -14.352,32 -32,32 -17.648,0 -32,-14.352 -32,-32 z m 72,112 -80,0 0,-24 c 0,-22.056 17.944,-40 40,-40 22.056,0 40,17.944 40,40 l 0,24 z"
           id="path11"
           inkscape:connector-curvature="0"
           style="fill:#428bca;fill-opacity:1" /><path
           d="M 339.504,407.28 C 351.88,398.584 360,384.232 360,368 c 0,-26.472 -21.528,-48 -48,-48 -26.472,0 -48,21.528 -48,48 0,16.232 8.12,30.584 20.496,39.28 C 267.512,416.904 256,435.12 256,456 l 0,40 112,0 0,-40 c 0,-20.88 -11.512,-39.096 -28.496,-48.72 z M 280,368 c 0,-17.648 14.352,-32 32,-32 17.648,0 32,14.352 32,32 0,17.648 -14.352,32 -32,32 -17.648,0 -32,-14.352 -32,-32 z m 72,112 -80,0 0,-24 c 0,-22.056 17.944,-40 40,-40 22.056,0 40,17.944 40,40 l 0,24 z"
           id="path13"
           inkscape:connector-curvature="0"
           style="fill:#428bca;fill-opacity:1" /><path
           d="M 467.504,407.28 C 479.88,398.584 488,384.232 488,368 c 0,-26.472 -21.528,-48 -48,-48 -26.472,0 -48,21.528 -48,48 0,16.232 8.12,30.584 20.496,39.28 C 395.512,416.904 384,435.12 384,456 l 0,40 112,0 0,-40 c 0,-20.88 -11.512,-39.096 -28.496,-48.72 z M 408,368 c 0,-17.648 14.352,-32 32,-32 17.648,0 32,14.352 32,32 0,17.648 -14.352,32 -32,32 -17.648,0 -32,-14.352 -32,-32 z m 72,112 -80,0 0,-24 c 0,-22.056 17.944,-40 40,-40 22.056,0 40,17.944 40,40 l 0,24 z"
           id="path15"
           inkscape:connector-curvature="0"
           style="fill:#428bca;fill-opacity:1" /><path
           d="m 400,272 c 17.648,0 32,14.352 32,32 l 16,0 C 448,283.584 435.168,266.16 417.168,259.232 463.64,237.584 496,190.552 496,136 496,61.008 434.992,0 360,0 L 136,0 C 61.008,0 0,61.008 0,136 0,190.552 32.36,237.584 78.832,259.232 60.832,266.16 48,283.584 48,304 l 16,0 c 0,-17.648 14.352,-32 32,-32 l 32,0 0,-0.408 c 2.664,0.16 5.296,0.408 8,0.408 l 40,0 0,32 16,0 0,-32 112,0 0,32 16,0 0,-32 40,0 c 2.704,0 5.336,-0.248 8,-0.408 l 0,0.408 32,0 z m -40,-16 -224,0 C 69.832,256 16,202.168 16,136 16,69.832 69.832,16 136,16 l 224,0 c 66.168,0 120,53.832 120,120 0,66.168 -53.832,120 -120,120 z"
           id="path17"
           inkscape:connector-curvature="0"
           style="fill:#428bca;fill-opacity:1" /><rect
           x="176"
           y="64"
           width="144"
           height="16"
           id="rect19"
           style="fill:#428bca;fill-opacity:1" /><rect
           x="176"
           y="96"
           width="144"
           height="16"
           id="rect21"
           style="fill:#428bca;fill-opacity:1" /><rect
           x="176"
           y="128"
           width="144"
           height="16"
           id="rect23"
           style="fill:#428bca;fill-opacity:1" /><rect
           x="176"
           y="160"
           width="144"
           height="16"
           id="rect25"
           style="fill:#428bca;fill-opacity:1" /><rect
           x="176"
           y="192"
           width="112"
           height="16"
           id="rect27"
           style="fill:#428bca;fill-opacity:1" /><rect
           x="304"
           y="192"
           width="16"
           height="16"
           id="rect29"
           style="fill:#428bca;fill-opacity:1" /><path
           d="m 456,96 c 0,-13.232 -10.768,-24 -24,-24 -13.232,0 -24,10.768 -24,24 0,6.64 2.712,12.648 7.08,17 l -20.712,55.24 C 393.576,168.16 392.808,168 392,168 c -6.84,0 -12.984,2.912 -17.36,7.52 L 352,170.56 352,32 l -208,0 0,93.064 -16.152,-3.536 C 127.88,121.016 128,120.52 128,120 c 0,-13.232 -10.768,-24 -24,-24 -13.232,0 -24,10.768 -24,24 0,4.288 1.224,8.256 3.2,11.744 L 67.72,152.376 C 66.504,152.184 65.272,152 64,152 c -13.232,0 -24,10.768 -24,24 0,13.232 10.768,24 24,24 13.232,0 24,-10.768 24,-24 0,-6.096 -2.36,-11.608 -6.12,-15.848 l 13.392,-17.856 c 2.712,1.072 5.64,1.704 8.728,1.704 6.84,0 12.984,-2.912 17.36,-7.52 l 22.64,4.96 0,98.56 208,0 0,-53.064 16.152,3.536 C 368.12,190.984 368,191.48 368,192 c 0,13.232 10.768,24 24,24 13.232,0 24,-10.768 24,-24 0,-6.64 -2.712,-12.648 -7.08,-17 l 20.712,-55.24 c 0.792,0.08 1.56,0.24 2.368,0.24 13.232,0 24,-10.768 24,-24 z M 64,184 c -4.416,0 -8,-3.584 -8,-8 0,-4.416 3.584,-8 8,-8 4.416,0 8,3.584 8,8 0,4.416 -3.584,8 -8,8 z m 40,-56 c -4.416,0 -8,-3.584 -8,-8 0,-4.416 3.584,-8 8,-8 4.416,0 8,3.584 8,8 0,4.416 -3.584,8 -8,8 z m 232,96 -176,0 0,-176 176,0 0,176 z m 56,-24 c -4.416,0 -8,-3.584 -8,-8 0,-4.416 3.584,-8 8,-8 4.416,0 8,3.584 8,8 0,4.416 -3.584,8 -8,8 z m 40,-96 c -4.416,0 -8,-3.584 -8,-8 0,-4.416 3.584,-8 8,-8 4.416,0 8,3.584 8,8 0,4.416 -3.584,8 -8,8 z"
           id="path31"
           inkscape:connector-curvature="0"
           style="fill:#428bca;fill-opacity:1" /></g></g></g><g
     id="g33" /><g
     id="g35" /><g
     id="g37" /><g
     id="g39" /><g
     id="g41" /><g
     id="g43" /><g
     id="g45" /><g
     id="g47" /><g
     id="g49" /><g
     id="g51" /><g
     id="g53" /><g
     id="g55" /><g
     id="g57" /><g
     id="g59" /><g
     id="g61" /></svg>