<?xml version="1.0" encoding="iso-8859-1"?>
<!-- Generator: Adobe Illustrator 19.0.0, SVG Export Plug-In . SVG Version: 6.00 Build 0)  -->
<svg xmlns="http://www.w3.org/2000/svg" xmlns:xlink="http://www.w3.org/1999/xlink" version="1.1" id="Layer_1" x="0px" y="0px" viewBox="0 0 496 496" style="enable-background:new 0 0 496 496;" xml:space="preserve" width="512px" height="512px">
<g>
	<g>
		<g>
			<path d="M83.504,407.28C95.88,398.584,104,384.232,104,368c0-26.472-21.528-48-48-48S8,341.528,8,368     c0,16.232,8.12,30.584,20.496,39.28C11.512,416.904,0,435.12,0,456v40h112v-40C112,435.12,100.488,416.904,83.504,407.28z      M24,368c0-17.648,14.352-32,32-32s32,14.352,32,32s-14.352,32-32,32S24,385.648,24,368z M96,480H16v-24     c0-22.056,17.944-40,40-40c22.056,0,40,17.944,40,40V480z" fill="#006DF0"/>
			<path d="M211.504,407.28C223.88,398.584,232,384.232,232,368c0-26.472-21.528-48-48-48s-48,21.528-48,48     c0,16.232,8.12,30.584,20.496,39.28C139.512,416.904,128,435.12,128,456v40h112v-40C240,435.12,228.488,416.904,211.504,407.28z      M152,368c0-17.648,14.352-32,32-32s32,14.352,32,32s-14.352,32-32,32S152,385.648,152,368z M224,480h-80v-24     c0-22.056,17.944-40,40-40c22.056,0,40,17.944,40,40V480z" fill="#006DF0"/>
			<path d="M339.504,407.28C351.88,398.584,360,384.232,360,368c0-26.472-21.528-48-48-48s-48,21.528-48,48     c0,16.232,8.12,30.584,20.496,39.28C267.512,416.904,256,435.12,256,456v40h112v-40C368,435.12,356.488,416.904,339.504,407.28z      M280,368c0-17.648,14.352-32,32-32s32,14.352,32,32s-14.352,32-32,32S280,385.648,280,368z M352,480h-80v-24     c0-22.056,17.944-40,40-40c22.056,0,40,17.944,40,40V480z" fill="#006DF0"/>
			<path d="M467.504,407.28C479.88,398.584,488,384.232,488,368c0-26.472-21.528-48-48-48s-48,21.528-48,48     c0,16.232,8.12,30.584,20.496,39.28C395.512,416.904,384,435.12,384,456v40h112v-40C496,435.12,484.488,416.904,467.504,407.28z      M408,368c0-17.648,14.352-32,32-32s32,14.352,32,32s-14.352,32-32,32S408,385.648,408,368z M480,480h-80v-24     c0-22.056,17.944-40,40-40c22.056,0,40,17.944,40,40V480z" fill="#006DF0"/>
			<path d="M400,272c17.648,0,32,14.352,32,32h16c0-20.416-12.832-37.84-30.832-44.768C463.64,237.584,496,190.552,496,136     C496,61.008,434.992,0,360,0H136C61.008,0,0,61.008,0,136c0,54.552,32.36,101.584,78.832,123.232     C60.832,266.16,48,283.584,48,304h16c0-17.648,14.352-32,32-32h32v-0.408c2.664,0.16,5.296,0.408,8,0.408h40v32h16v-32h112v32h16     v-32h40c2.704,0,5.336-0.248,8-0.408V272H400z M360,256H136c-66.168,0-120-53.832-120-120S69.832,16,136,16h224     c66.168,0,120,53.832,120,120S426.168,256,360,256z" fill="#006DF0"/>
			<rect x="176" y="64" width="144" height="16" fill="#006DF0"/>
			<rect x="176" y="96" width="144" height="16" fill="#006DF0"/>
			<rect x="176" y="128" width="144" height="16" fill="#006DF0"/>
			<rect x="176" y="160" width="144" height="16" fill="#006DF0"/>
			<rect x="176" y="192" width="112" height="16" fill="#006DF0"/>
			<rect x="304" y="192" width="16" height="16" fill="#006DF0"/>
			<path d="M456,96c0-13.232-10.768-24-24-24s-24,10.768-24,24c0,6.64,2.712,12.648,7.08,17l-20.712,55.24     c-0.792-0.08-1.56-0.24-2.368-0.24c-6.84,0-12.984,2.912-17.36,7.52L352,170.56V32H144v93.064l-16.152-3.536     C127.88,121.016,128,120.52,128,120c0-13.232-10.768-24-24-24s-24,10.768-24,24c0,4.288,1.224,8.256,3.2,11.744l-15.48,20.632     C66.504,152.184,65.272,152,64,152c-13.232,0-24,10.768-24,24s10.768,24,24,24s24-10.768,24-24c0-6.096-2.36-11.608-6.12-15.848     l13.392-17.856c2.712,1.072,5.64,1.704,8.728,1.704c6.84,0,12.984-2.912,17.36-7.52l22.64,4.96V240h208v-53.064l16.152,3.536     C368.12,190.984,368,191.48,368,192c0,13.232,10.768,24,24,24s24-10.768,24-24c0-6.64-2.712-12.648-7.08-17l20.712-55.24     c0.792,0.08,1.56,0.24,2.368,0.24C445.232,120,456,109.232,456,96z M64,184c-4.416,0-8-3.584-8-8s3.584-8,8-8s8,3.584,8,8     S68.416,184,64,184z M104,128c-4.416,0-8-3.584-8-8s3.584-8,8-8s8,3.584,8,8S108.416,128,104,128z M336,224H160V48h176V224z      M392,200c-4.416,0-8-3.584-8-8s3.584-8,8-8c4.416,0,8,3.584,8,8S396.416,200,392,200z M432,104c-4.416,0-8-3.584-8-8     s3.584-8,8-8c4.416,0,8,3.584,8,8S436.416,104,432,104z" fill="#006DF0"/>
		</g>
	</g>
</g>
<g>
</g>
<g>
</g>
<g>
</g>
<g>
</g>
<g>
</g>
<g>
</g>
<g>
</g>
<g>
</g>
<g>
</g>
<g>
</g>
<g>
</g>
<g>
</g>
<g>
</g>
<g>
</g>
<g>
</g>
</svg>
