<?xml version="1.0" encoding="UTF-8" standalone="no"?>
<svg
   xmlns:dc="http://purl.org/dc/elements/1.1/"
   xmlns:cc="http://creativecommons.org/ns#"
   xmlns:rdf="http://www.w3.org/1999/02/22-rdf-syntax-ns#"
   xmlns:svg="http://www.w3.org/2000/svg"
   xmlns="http://www.w3.org/2000/svg"
   viewBox="0 0 537.14667 181.37334"
   height="181.37334"
   width="537.14667"
   xml:space="preserve"
   id="svg2"
   version="1.1"><metadata
     id="metadata8"><rdf:RDF><cc:Work
         rdf:about=""><dc:format>image/svg+xml</dc:format><dc:type
           rdf:resource="http://purl.org/dc/dcmitype/StillImage" /></cc:Work></rdf:RDF></metadata><defs
     id="defs6" /><g
     transform="matrix(1.3333333,0,0,-1.3333333,0,181.37333)"
     id="g10"><g
       transform="scale(0.1)"
       id="g12"><path
         id="path14"
         style="fill:#254aa5;fill-opacity:1;fill-rule:nonzero;stroke:none"
         d="m 2380.11,283.43 c -22.33,0 -35.53,14.011 -35.53,38.461 v 47.254 c 0,34.55 21.35,38.464 51.01,38.464 H 2407 c 25.58,0 33.4,-11.082 33.4,-35.203 V 368.5 h -13.84 v 3.418 c 0,17.109 -3.6,23.465 -21.52,23.465 h -7.82 c -28.68,0 -38.79,-3.418 -38.79,-25.742 V 336.07 c 0,-27.871 1.14,-40.422 24.29,-40.422 h 16.45 c 22.17,0 29.01,3.102 29.01,20.532 v 9.781 h 13.86 v -11.41 c 0,-28.02 -17.93,-31.121 -42.38,-31.121 h -19.55" /><path
         id="path16"
         style="fill:#254aa5;fill-opacity:1;fill-rule:nonzero;stroke:none"
         d="m 2492.08,293.859 c 22.98,0 24.61,3.582 24.61,33.243 0,29.828 -1.63,33.41 -24.61,33.41 -22.97,0 -24.61,-3.582 -24.61,-33.41 0,-29.661 1.64,-33.243 24.61,-33.243 z m 0,77.082 c 31.78,0 37.97,-7.66 37.97,-43.839 0,-36.012 -6.19,-43.672 -37.97,-43.672 -31.77,0 -37.96,7.66 -37.96,43.672 0,36.179 6.19,43.839 37.96,43.839" /><path
         id="path18"
         style="fill:#254aa5;fill-opacity:1;fill-rule:nonzero;stroke:none"
         d="m 2562.67,359.531 h 0.32 c 4.08,10.266 16.63,11.41 26.41,11.41 22,0 32.59,-5.871 32.26,-29.66 V 284.41 h -12.87 v 57.852 c 0,15.636 -6.03,18.25 -20.53,18.25 -21.03,0 -25.59,-6.512 -25.59,-26.242 v -49.86 h -12.87 v 85.555 h 12.87 v -10.434" /><path
         id="path20"
         style="fill:#254aa5;fill-opacity:1;fill-rule:nonzero;stroke:none"
         d="m 2657.21,359.531 h 0.32 c 4.08,10.266 16.62,11.41 26.4,11.41 22,0 32.6,-5.871 32.27,-29.66 V 284.41 h -12.88 v 57.852 c 0,15.636 -6.02,18.25 -20.53,18.25 -21.02,0 -25.58,-6.512 -25.58,-26.242 v -49.86 h -12.88 v 85.555 h 12.88 v -10.434" /><path
         id="path22"
         style="fill:#254aa5;fill-opacity:1;fill-rule:nonzero;stroke:none"
         d="m 2797.7,334.762 c -0.66,24.289 -3.58,25.75 -23.15,25.75 -23.3,0 -24.11,-6.032 -25.09,-25.75 z m 13.36,-24.453 v -3.09 c 0,-22.649 -17.43,-23.789 -36.51,-23.789 -33.4,0 -38.45,11.082 -38.45,43.672 0,35.527 7.82,43.839 38.45,43.839 27.71,0 36.51,-6.359 36.51,-37.972 v -8.637 h -61.6 c 0,-27.051 1.96,-30.473 25.09,-30.473 17.61,0 23.32,1.141 23.32,13.2 v 3.25 h 13.19" /><path
         id="path24"
         style="fill:#254aa5;fill-opacity:1;fill-rule:nonzero;stroke:none"
         d="m 2902.02,315.371 v -4.723 c 0,-24.117 -15.97,-27.218 -36.34,-27.218 -35.53,0 -37.98,13.691 -37.98,45.468 0,27.864 4.89,42.043 35.86,42.043 20.69,0 36.99,-2.285 36.99,-26.562 v -2.289 h -12.88 v 2.609 c 0,15.492 -8.47,15.813 -23.3,15.813 -22.81,0 -23.3,-7.821 -23.3,-35.203 0,-24.118 0.97,-31.45 26.07,-31.45 16.14,0 22,1.789 22,17.27 v 4.242 h 12.88" /><path
         id="path26"
         style="fill:#254aa5;fill-opacity:1;fill-rule:nonzero;stroke:none"
         d="m 2965.1,359.531 h -33.08 V 305.27 c 0.16,-9.29 2.6,-11.411 12.06,-11.411 12.06,0 12.06,6.36 12.06,14.5 v 6.36 h 12.21 v -6.36 c 0,-16.937 -7,-24.929 -24.6,-24.929 -20.04,0 -24.61,5.699 -24.61,25.75 v 50.351 h -11.4 v 10.434 h 11.4 v 20.691 h 12.88 v -20.691 h 33.08 v -10.434" /><path
         id="path28"
         style="fill:#254aa5;fill-opacity:1;fill-rule:nonzero;stroke:none"
         d="m 2992.33,284.41 h -12.87 v 85.555 h 12.87 z m 0,108.043 h -12.87 v 14.18 h 12.87 v -14.18" /><path
         id="path30"
         style="fill:#254aa5;fill-opacity:1;fill-rule:nonzero;stroke:none"
         d="m 3027.53,359.531 h 0.33 c 4.08,10.266 16.63,11.41 26.4,11.41 22,0 32.59,-5.871 32.27,-29.66 V 284.41 h -12.87 v 57.852 c 0,15.636 -6.04,18.25 -20.54,18.25 -21.03,0 -25.59,-6.512 -25.59,-26.242 v -49.86 h -12.87 v 85.555 h 12.87 v -10.434" /><path
         id="path32"
         style="fill:#254aa5;fill-opacity:1;fill-rule:nonzero;stroke:none"
         d="m 3167.87,327.102 c 0,23.796 -1.64,33.41 -24.77,33.41 -23.8,0 -23.47,-10.922 -23.47,-33.41 0,-20.543 -1.46,-33.243 23.47,-33.243 24.77,0 24.77,14.18 24.77,33.243 z m 12.88,-52.801 c 0,-22.813 -16.96,-27.86 -37.65,-27.86 -19.88,0 -35.53,3.09 -34.23,27.86 h 12.88 c 0,-16.461 7.82,-17.43 21.35,-17.43 15.31,0 24.61,1.629 24.77,18.41 V 295 h -0.33 c -3.58,-10.43 -17.44,-11.57 -27.54,-11.57 -27.7,0 -33.74,14.34 -33.74,43.672 0,28.519 4.41,43.839 33.74,43.839 11.9,0 22.49,-1.632 27.54,-11.89 l 0.33,0.16 v 10.754 h 12.88 v -95.664" /><path
         id="path34"
         style="fill:#254aa5;fill-opacity:1;fill-rule:nonzero;stroke:none"
         d="m 3271.21,356.762 h 0.33 c 4.57,11.082 17.6,14.179 28.52,14.179 10.27,0 23.47,-2.929 26.4,-14.179 5.7,11.406 18.91,14.179 30.48,14.179 21.99,0 29.66,-8.964 29.66,-30.152 V 284.41 h -12.89 v 55.07 c 0,14.52 -2.11,21.032 -18.74,21.032 -18.25,0 -26.07,-5.211 -26.07,-23.633 V 284.41 h -12.87 v 57.36 c -0.49,11.41 -0.49,18.742 -19.06,18.742 -16.96,0 -25.76,-7.172 -25.76,-24.614 V 284.41 h -12.87 v 85.555 h 12.87 v -13.203" /><path
         id="path36"
         style="fill:#254aa5;fill-opacity:1;fill-rule:nonzero;stroke:none"
         d="m 3466.15,309.832 c 0,16.129 -9.61,15.969 -25.91,15.969 -15.32,0 -21.52,-0.969 -21.52,-14.832 0,-16.297 6.69,-17.11 21.52,-17.11 12.87,0 25.91,0.321 25.91,15.973 z m 0.33,-25.422 v 8.801 l -0.33,0.328 c -4.89,-9.789 -17.44,-10.109 -28.2,-10.109 -19.23,0 -32.58,3.582 -32.58,25.91 0,23.629 12.22,26.89 33.4,26.89 8.48,0 25.1,-0.82 26.89,-8.64 h 0.82 v 15.808 c 0,15.653 -8.31,17.114 -22.81,17.114 -10.11,0 -22.49,0 -22.34,-11.731 v -2.941 h -13.36 v 1.801 c 0,22 15.16,23.464 34.22,23.3 21.52,0.164 37.33,-2.121 37.16,-28.191 v -58.34 h -12.87" /><path
         id="path38"
         style="fill:#254aa5;fill-opacity:1;fill-rule:nonzero;stroke:none"
         d="M 3546.67,359.531 H 3513.6 V 305.27 c 0.15,-9.29 2.61,-11.411 12.05,-11.411 12.06,0 12.06,6.36 12.06,14.5 v 6.36 h 12.23 v -6.36 c 0,-16.937 -7.02,-24.929 -24.61,-24.929 -20.04,0 -24.61,5.699 -24.61,25.75 v 50.351 h -11.41 v 10.434 h 11.41 v 20.691 h 12.88 v -20.691 h 33.07 v -10.434" /><path
         id="path40"
         style="fill:#254aa5;fill-opacity:1;fill-rule:nonzero;stroke:none"
         d="m 3606.33,359.531 h -33.07 V 305.27 c 0.15,-9.29 2.6,-11.411 12.05,-11.411 12.06,0 12.06,6.36 12.06,14.5 v 6.36 h 12.22 v -6.36 c 0,-16.937 -7.01,-24.929 -24.61,-24.929 -20.03,0 -24.6,5.699 -24.6,25.75 v 50.351 h -11.41 v 10.434 h 11.41 v 20.691 h 12.88 v -20.691 h 33.07 v -10.434" /><path
         id="path42"
         style="fill:#254aa5;fill-opacity:1;fill-rule:nonzero;stroke:none"
         d="m 3679.68,334.762 c -0.65,24.289 -3.58,25.75 -23.14,25.75 -23.3,0 -24.11,-6.032 -25.1,-25.75 z m 13.36,-24.453 v -3.09 c 0,-22.649 -17.43,-23.789 -36.5,-23.789 -33.41,0 -38.46,11.082 -38.46,43.672 0,35.527 7.82,43.839 38.46,43.839 27.7,0 36.5,-6.359 36.5,-37.972 v -8.637 h -61.6 c 0,-27.051 1.96,-30.473 25.1,-30.473 17.6,0 23.31,1.141 23.31,13.2 v 3.25 h 13.19" /><path
         id="path44"
         style="fill:#254aa5;fill-opacity:1;fill-rule:nonzero;stroke:none"
         d="m 3723.7,369.965 -0.66,-10.594 0.33,-0.32 c 4.4,9.449 14.67,11.89 24.28,11.89 16.47,0 23.8,-8.144 23.8,-24.121 v -6.191 h -12.23 v 5.703 c 0,10.598 -3.58,14.18 -14.34,14.18 -15.97,0 -21.18,-7.66 -20.86,-22.813 V 284.41 h -12.87 v 85.555 h 12.55" /><path
         id="path46"
         style="fill:#254aa5;fill-opacity:1;fill-rule:nonzero;stroke:none"
         d="m 3852.62,347.641 h -13.37 v 3.257 c 0,8.633 -6.51,8.633 -20.04,8.633 -16.13,0 -23.95,0.168 -23.95,-10.429 0,-15.321 4.24,-14.18 17.6,-14.832 22,-1.301 42.04,2.121 42.04,-25.739 0,-24.121 -16.62,-25.101 -35.69,-25.101 -18.58,0 -37.98,0.98 -37.98,20.039 v 7.992 h 13.37 v -6.68 c 0,-8.152 5.05,-9.941 24.61,-9.941 8.8,0 22.33,-1.961 22.33,13.199 0,15.973 -6.68,13.043 -22.33,14.012 -18.58,1.301 -37.32,-0.653 -37.32,23.64 0,24.758 14.18,25.25 37.32,25.25 14.99,0 33.41,-0.656 33.41,-20.043 v -3.257" /><path
         id="path48"
         style="fill:#254aa5;fill-opacity:1;fill-rule:nonzero;stroke:none"
         d="m 708.691,850.457 h 28.801 v -28.801 h -28.801 v 28.801" /><path
         id="path50"
         style="fill:#254aa5;fill-opacity:1;fill-rule:nonzero;stroke:none"
         d="m 708.691,793.578 h 28.801 V 566.777 h -28.801 v 226.801" /><path
         id="path52"
         style="fill:#254aa5;fill-opacity:1;fill-rule:evenodd;stroke:none"
         d="m 793.652,850.457 h 28.801 V 793.578 H 935.492 V 765.496 H 822.453 v -141.84 c 0,-15.84 12.238,-28.801 28.078,-28.801 h 84.961 v -28.078 h -84.961 c -29.519,0 -56.879,23.762 -56.879,56.879 v 141.84 h -42.48 v 28.082 h 42.48 v 56.879" /><path
         id="path54"
         style="fill:#254aa5;fill-opacity:1;fill-rule:nonzero;stroke:none"
         d="m 458.852,679.816 h 221.761 c 0,25.2 -1.441,43.922 -4.32,56.161 -2.879,12.242 -7.918,23.039 -15.121,32.402 -9.359,10.797 -20.879,18.719 -36,22.316 -14.399,3.602 -38.879,5.762 -72,5.762 -33.84,0 -57.598,-2.16 -72.719,-5.762 -15.121,-3.597 -26.64,-11.519 -35.281,-22.316 -7.918,-9.363 -12.957,-20.16 -15.117,-32.402 -2.883,-12.239 -4.321,-30.961 -5.043,-56.161 0.722,-24.48 2.16,-43.199 5.043,-55.437 2.16,-12.242 7.199,-23.043 15.117,-32.402 8.641,-10.801 20.16,-18.719 35.281,-22.321 15.121,-4.32 38.879,-5.758 72.719,-5.758 33.121,0 57.601,1.438 72,5.758 15.121,3.602 26.641,11.52 36,22.321 5.762,7.199 10.082,15.839 12.961,24.48 h -33.84 c -2.16,-2.879 -4.32,-5.762 -7.199,-8.641 -6.481,-5.039 -15.84,-9.359 -27.36,-11.519 -12.242,-2.16 -29.519,-2.879 -51.839,-2.879 -23.043,0 -40.321,0.719 -51.84,2.879 -12.242,2.16 -20.883,6.48 -27.364,11.519 -8.636,7.2 -13.679,19.442 -15.117,36 -0.722,11.52 -0.722,24.481 -0.722,36 z m 189.363,28.801 H 458.852 c 0.722,20.879 5.761,35.281 15.839,43.199 6.481,5.762 15.122,9.36 27.364,11.52 11.519,2.883 28.797,3.602 51.84,3.602 22.32,0 39.597,-0.719 51.839,-3.602 11.52,-2.16 20.879,-5.758 27.36,-11.52 10.078,-7.918 15.121,-22.32 15.121,-43.199" /><path
         id="path56"
         style="fill:#254aa5;fill-opacity:1;fill-rule:evenodd;stroke:none"
         d="m 680.613,170.059 c 281.52,0 510.477,228.238 510.477,509.757 0,282.243 -228.957,510.484 -510.477,510.484 -92.879,0 -180,-24.48 -254.879,-68.4 l 28.079,-48.96 c 66.96,38.88 144,60.48 226.8,60.48 250.559,0 453.597,-203.041 453.597,-453.604 0,-249.839 -203.038,-453.597 -453.597,-453.597 -250.558,0 -453.601,203.758 -453.601,453.597 h -56.879 c 0,-281.519 228.961,-509.757 510.48,-509.757" /><path
         id="path58"
         style="fill:#5fbe32;fill-opacity:1;fill-rule:evenodd;stroke:none"
         d="m 680.613,283.102 c 146.879,0 275.039,79.914 343.437,198.714 l -48.956,28.082 C 916.055,408.379 806.613,339.98 680.613,339.98 c -187.922,0 -339.84,152.637 -339.84,339.836 0,187.922 151.918,340.564 339.84,340.564 126,0 235.442,-68.403 294.481,-169.923 l 48.956,28.082 c -68.398,118.797 -196.558,198.721 -343.437,198.721 -218.879,0 -396.718,-177.842 -396.718,-397.444 0,-218.878 177.839,-396.714 396.718,-396.714" /><path
         id="path60"
         style="fill:#254aa5;fill-opacity:1;fill-rule:nonzero;stroke:none"
         d="m 1332.71,566.777 v 226.801 h 141.12 c 38.16,-0.723 62.64,-1.441 73.44,-2.883 18.72,-2.156 31.68,-10.797 38.88,-25.199 5.04,-9.359 7.2,-23.039 7.2,-40.32 0,-12.957 -0.72,-23.039 -2.16,-30.238 -1.44,-6.481 -3.6,-12.243 -7.92,-15.84 -5.76,-6.481 -14.4,-11.52 -27.36,-14.403 10.08,-1.437 17.28,-5.039 23.04,-10.797 4.32,-5.043 7.2,-10.082 8.64,-16.562 1.44,-6.481 2.16,-19.438 2.16,-38.16 v -32.399 h -30.24 v 21.602 c 0,18.719 -0.72,31.68 -1.44,38.16 -2.16,14.399 -10.08,23.039 -24.48,25.918 -5.76,0.719 -10.8,0.719 -15.12,0.719 -4.32,0.722 -18.72,0.722 -44.64,0.722 h -110.88 v -87.121 z m 30.24,113.762 h 110.88 c 29.52,0 48.24,0.719 56.88,1.438 7.92,0.718 15.12,2.878 20.16,5.761 7.92,5.039 11.52,18 11.52,38.16 0,16.559 -3.6,28.079 -10.8,33.118 -4.32,2.882 -11.52,5.043 -21.6,6.48 -10.08,0.723 -28.8,1.442 -56.16,1.442 h -110.88 z m 282.24,-3.601 h -25.92 c 0,2.878 0,5.039 0,7.199 0,15.84 5.76,27.359 18.72,33.121 12.24,6.48 35.28,9.359 69.84,9.359 26.64,0 46.08,-1.441 57.6,-3.601 11.52,-2.879 20.88,-7.2 27.36,-14.399 5.76,-5.039 9.36,-11.519 10.8,-19.441 2.16,-7.199 2.88,-20.879 2.88,-39.598 v -82.801 h -25.2 l 0.72,18.719 h -1.44 c -5.76,-8.641 -13.68,-14.398 -22.32,-17.277 -8.64,-2.16 -25.2,-3.602 -48.96,-3.602 -28.08,0 -46.8,0.719 -57.6,2.16 -10.8,1.442 -18.72,4.321 -24.48,7.918 -5.76,4.321 -9.36,9.364 -11.52,14.403 -2.16,5.757 -3.6,13.679 -3.6,23.757 0,11.524 2.16,20.883 5.04,28.083 3.6,6.48 8.64,10.8 16.56,14.398 8.64,3.602 28.08,5.762 59.04,5.762 32.4,0 53.28,-1.442 63.36,-3.602 10.08,-1.437 18,-6.48 23.04,-13.68 h 2.16 v 17.282 c 0,13.679 -2.16,23.757 -7.2,29.519 -4.32,5.762 -11.52,9.36 -20.16,10.801 -9.36,2.16 -23.76,2.879 -44.64,2.879 -26.64,0 -43.92,-1.442 -51.84,-4.32 -7.92,-3.598 -12.24,-10.079 -12.24,-20.879 0,-0.719 0,-1.442 0,-2.16 z m 64.08,-38.161 c -20.16,0 -34.56,-0.718 -43.2,-1.441 -7.92,-0.719 -13.68,-2.16 -17.28,-3.598 -6.48,-4.32 -10.08,-11.519 -10.08,-21.601 0,-10.078 4.32,-17.282 12.24,-20.879 5.76,-2.879 27.36,-4.32 63.36,-4.32 26.64,0 43.92,1.441 52.56,5.039 8.64,3.601 12.96,10.082 12.96,20.878 0,10.083 -5.04,16.563 -14.4,20.161 -9.36,3.601 -28.08,5.761 -56.16,5.761 z m 174.24,-72 h 36.72 l 48.24,133.918 h 2.16 l 48.96,-133.918 h 36.72 l 73.44,157.68 h -28.8 l -61.2,-134.641 h -2.16 l -48.24,134.641 h -39.6 l -47.52,-134.641 h -2.16 l -60.48,134.641 h -28.08 z m 258.48,0 h 30.24 v 198.719 h 12.96 l 128.16,-198.719 h 24.48 l 126.72,198.719 h 12.96 V 566.777 h 30.24 v 226.801 h -61.2 L 2325.59,601.336 2202.47,793.578 h -60.48 z m 423.36,110.161 h -25.92 c 0,2.878 -0.72,5.039 -0.72,7.199 0,15.84 6.48,27.359 18.72,33.121 12.24,6.48 36,9.359 69.84,9.359 26.64,0 46.08,-1.441 57.6,-3.601 12.24,-2.879 20.88,-7.2 28.08,-14.399 5.04,-5.039 8.64,-11.519 10.8,-19.441 1.44,-7.199 2.16,-20.879 2.16,-39.598 v -82.801 h -24.48 l 0.72,18.719 h -1.44 c -6.48,-8.641 -13.68,-14.398 -22.32,-17.277 -8.64,-2.16 -25.2,-3.602 -49.68,-3.602 -27.36,0 -46.8,0.719 -57.6,2.16 -10.8,1.442 -18.72,4.321 -24.48,7.918 -5.04,4.321 -9.36,9.364 -11.52,14.403 -2.16,5.757 -2.88,13.679 -2.88,23.757 0,11.524 1.44,20.883 5.04,28.083 2.88,6.48 8.64,10.8 16.56,14.398 7.92,3.602 28.08,5.762 59.04,5.762 32.4,0 53.28,-1.442 63.36,-3.602 10.08,-1.437 17.28,-6.48 23.04,-13.68 h 2.16 v 17.282 c 0,13.679 -2.88,23.757 -7.92,29.519 -4.32,5.762 -10.8,9.36 -20.16,10.801 -8.64,2.16 -23.76,2.879 -43.92,2.879 -26.64,0 -44.64,-1.442 -52.56,-4.32 -7.92,-3.598 -11.52,-10.079 -11.52,-20.879 0,-0.719 0,-1.442 0,-2.16 z m 63.36,-38.161 c -20.16,0 -34.56,-0.718 -42.48,-1.441 -8.64,-0.719 -14.4,-2.16 -17.28,-3.598 -7.2,-4.32 -10.08,-11.519 -10.08,-21.601 0,-10.078 3.6,-17.282 11.52,-20.879 6.48,-2.879 27.36,-4.32 64.08,-4.32 25.92,0 43.92,1.441 51.84,5.039 8.64,3.601 12.96,10.082 12.96,20.878 0,10.083 -4.32,16.563 -14.4,20.161 -9.36,3.601 -28.08,5.761 -56.16,5.761 z m 147.6,85.68 h -38.88 v -21.602 h 38.88 v -76.316 c 0,-12.242 0,-21.601 1.44,-28.082 1.44,-5.762 3.6,-11.519 7.2,-15.84 4.32,-6.48 11.52,-10.801 21.6,-13.679 9.36,-2.879 22.32,-4.321 39.6,-4.321 16.56,0 29.52,1.442 38.88,4.321 8.64,3.597 15.84,7.917 20.88,15.121 2.88,5.039 5.04,10.078 6.48,16.558 0.72,6.481 1.44,15.121 1.44,27.36 v 10.082 h -24.48 v -10.082 c 0,-9.36 -0.72,-16.559 -1.44,-20.161 0,-4.32 -1.44,-7.199 -3.6,-10.078 -2.88,-4.32 -6.48,-7.199 -11.52,-8.64 -5.04,-1.442 -13.68,-2.16 -24.48,-2.16 -12.24,0 -21.6,0.718 -27.36,2.16 -6.48,1.441 -10.8,4.32 -14.4,7.918 -2.16,3.601 -3.6,7.203 -4.32,10.082 -0.72,3.597 -1.44,12.961 -1.44,27.359 v 68.398 h 110.16 v 21.602 h -110.16 v 38.879 h -24.48 z m 330.48,-109.441 h 25.92 c 0,-18.719 -6.48,-31.68 -19.44,-38.879 -12.96,-7.918 -35.28,-11.52 -66.96,-11.52 -26.64,0 -46.8,1.442 -60.48,2.879 -13.68,2.16 -23.76,5.762 -30.96,10.801 -15.84,11.519 -23.76,33.84 -23.76,66.961 0,23.039 3.6,41.039 10.08,52.558 6.48,10.801 15.84,18.723 28.08,22.321 11.52,4.32 32.4,6.48 60.48,6.48 27.36,0 46.8,-1.441 59.04,-4.32 11.52,-2.879 21.6,-8.641 28.8,-16.559 5.76,-7.199 10.08,-15.121 12.24,-24.48 2.16,-8.641 3.6,-22.32 3.6,-41.039 h -175.68 c 0.72,-20.16 4.32,-33.121 11.52,-40.321 5.04,-5.043 12.24,-8.64 23.04,-10.8 10.08,-1.442 27.36,-2.16 51.12,-2.16 18,0 30.96,0.718 38.88,2.16 8.64,1.441 14.4,5.039 18.72,9.359 2.88,3.602 5.04,8.641 5.76,16.559 z m -0.72,46.082 c 0,15.84 -4.32,26.64 -12.24,32.398 -5.76,4.32 -12.96,7.199 -22.32,8.641 -10.08,1.441 -23.76,2.16 -42.48,2.16 -15.84,0 -28.8,-0.719 -36.72,-2.16 -8.64,-1.442 -15.12,-4.321 -20.16,-7.918 -7.92,-5.762 -12.24,-17.281 -13.68,-33.121 z m 50.4,-94.321 h 24.48 v 72.719 c 0,27.359 4.32,45.359 12.96,53.281 8.64,7.918 27.36,11.52 57.6,11.52 20.16,0 33.12,-2.879 39.6,-8.641 2.88,-2.879 5.04,-6.48 5.76,-10.801 1.44,-5.039 2.16,-11.519 2.16,-20.16 v -11.519 h 25.2 v 16.562 c 0,20.879 -5.04,35.278 -15.84,44.641 -5.04,4.316 -11.52,7.918 -19.44,9.359 -7.2,1.438 -19.44,2.879 -34.56,2.879 -15.84,0 -27.36,-0.719 -35.28,-1.441 -7.92,-1.438 -13.68,-2.879 -18.72,-5.039 -7.92,-4.321 -13.68,-10.078 -18,-17.282 h -1.44 v 21.602 h -24.48 z m 185.76,0 h 24.48 v 157.68 h -24.48 z m 0,197.282 h 24.48 v 29.519 h -24.48 z m 80.64,-87.121 h -25.92 c -0.72,2.878 -0.72,5.039 -0.72,7.199 0,15.84 6.48,27.359 18.72,33.121 12.24,6.48 36,9.359 69.84,9.359 26.64,0 46.08,-1.441 57.6,-3.601 12.24,-2.879 20.88,-7.2 28.08,-14.399 5.04,-5.039 8.64,-11.519 10.8,-19.441 1.44,-7.199 2.16,-20.879 2.16,-39.598 v -82.801 h -24.48 v 18.719 h -1.44 c -5.76,-8.641 -12.96,-14.398 -22.32,-17.277 -8.64,-2.16 -24.48,-3.602 -48.96,-3.602 -27.36,0 -46.8,0.719 -57.6,2.16 -10.8,1.442 -18.72,4.321 -24.48,7.918 -5.04,4.321 -9.36,9.364 -11.52,14.403 -2.16,5.757 -2.88,13.679 -2.88,23.757 0,11.524 1.44,20.883 5.04,28.083 2.88,6.48 8.64,10.8 16.56,14.398 7.92,3.602 28.08,5.762 58.32,5.762 32.4,0 54,-1.442 64.08,-3.602 9.36,-1.437 17.28,-6.48 23.04,-13.68 h 2.16 v 17.282 c 0,13.679 -2.88,23.757 -7.92,29.519 -4.32,5.762 -10.8,9.36 -20.16,10.801 -8.64,2.16 -23.76,2.879 -43.92,2.879 -27.36,0 -44.64,-1.442 -52.56,-4.32 -7.92,-3.598 -11.52,-10.079 -11.52,-20.879 0,-0.719 0,-1.442 0,-2.16 z m 63.36,-38.161 c -20.16,0 -34.56,-0.718 -42.48,-1.441 -8.64,-0.719 -14.4,-2.16 -18,-3.598 -6.48,-4.32 -9.36,-11.519 -9.36,-21.601 0,-10.078 3.6,-17.282 11.52,-20.879 6.48,-2.879 27.36,-4.32 63.36,-4.32 26.64,0 44.64,1.441 52.56,5.039 8.64,3.601 12.96,10.082 12.96,20.878 0,10.083 -4.32,16.563 -14.4,20.161 -9.36,3.601 -28.08,5.761 -56.16,5.761 z m 124.56,-72 h 24.48 v 226.801 h -24.48 z m 48.96,54.719 h 26.64 c 0,-2.16 0,-3.598 0,-4.32 0,-8.637 0.72,-14.399 2.88,-18 1.44,-3.598 5.04,-6.481 10.8,-8.637 7.2,-2.883 27.36,-3.601 61.92,-3.601 21.6,0 36,0 44.64,1.441 8.64,0.719 14.4,2.16 18,5.039 5.04,4.32 7.2,10.078 7.2,18 0,9.359 -2.88,15.84 -8.64,19.437 -5.76,2.883 -17.28,5.043 -32.4,5.043 -5.04,0 -29.52,0 -72,0.719 -11.52,0 -20.16,0.719 -27.36,2.879 -6.48,1.442 -12.24,3.602 -16.56,7.199 -8.64,6.481 -12.24,17.282 -12.24,33.121 0,16.563 5.04,28.082 15.84,36 5.04,3.602 14.4,6.481 26.64,7.922 12.96,2.16 30.96,2.879 54.72,2.879 26.64,0 46.08,-1.441 58.32,-4.32 12.96,-2.879 22.32,-7.918 28.08,-15.84 2.88,-2.879 4.32,-7.199 5.76,-10.801 0.72,-4.32 0.72,-10.801 0.72,-20.16 h -25.92 c 0,10.082 -2.16,15.84 -5.04,19.442 -3.6,2.878 -10.08,5.757 -20.16,7.199 -9.36,1.441 -23.76,2.16 -42.48,2.16 -33.84,0 -54.72,-2.16 -61.92,-7.199 -5.76,-3.602 -7.92,-9.36 -7.92,-18 0,-8.641 2.88,-14.403 8.64,-16.563 6.48,-2.879 18.72,-4.316 38.16,-3.597 18,0 42.48,-0.719 72,-1.442 18,-0.719 30.96,-5.039 38.88,-12.238 7.92,-7.199 11.52,-18.719 11.52,-33.84 0,-9.359 -1.44,-17.281 -3.6,-23.039 -2.88,-5.762 -7.2,-10.801 -13.68,-14.402 -5.76,-3.598 -14.4,-5.758 -26.64,-7.2 -12.24,-1.441 -30.24,-2.16 -53.28,-2.16 -25.92,0 -45.36,0.719 -58.32,2.16 -12.24,2.161 -21.6,4.321 -27.36,8.641 -5.76,3.598 -10.08,8.641 -12.24,14.398 -2.88,5.762 -3.6,13.68 -3.6,23.762 0,1.438 0,3.598 0,7.918" /></g></g></svg>