<?xml version="1.0" encoding="UTF-8" standalone="no"?>
<svg
   xmlns:dc="http://purl.org/dc/elements/1.1/"
   xmlns:cc="http://creativecommons.org/ns#"
   xmlns:rdf="http://www.w3.org/1999/02/22-rdf-syntax-ns#"
   xmlns:svg="http://www.w3.org/2000/svg"
   xmlns="http://www.w3.org/2000/svg"
   viewBox="0 0 353.06668 28.986668"
   height="28.986668"
   width="353.06668"
   xml:space="preserve"
   id="svg2"
   version="1.1"><metadata
     id="metadata8"><rdf:RDF><cc:Work
         rdf:about=""><dc:format>image/svg+xml</dc:format><dc:type
           rdf:resource="http://purl.org/dc/dcmitype/StillImage" /></cc:Work></rdf:RDF></metadata><defs
     id="defs6" /><g
     transform="matrix(1.3333333,0,0,-1.3333333,0,28.986667)"
     id="g10"><g
       transform="scale(0.1)"
       id="g12"><path
         id="path14"
         style="fill:#484b4c;fill-opacity:1;fill-rule:nonzero;stroke:none"
         d="m 340.52,202.18 h 35.019 v -4.836 h -14.773 v -43.633 h -5.325 v 43.633 H 340.52 v 4.836" /><path
         id="path16"
         style="fill:#484b4c;fill-opacity:1;fill-rule:nonzero;stroke:none"
         d="M 382.398,153.711 V 204 h 5.254 v -17.23 c 0,0 5.602,2.66 10.782,2.66 9.601,0 11.843,-4.762 11.843,-17.227 v -18.492 h -5.254 v 18.352 c 0,9.242 -1.05,12.675 -7.496,12.675 -4.972,0 -9.875,-2.101 -9.875,-2.101 v -28.926 h -5.254" /><path
         id="path18"
         style="fill:#484b4c;fill-opacity:1;fill-rule:nonzero;stroke:none"
         d="m 419.84,188.73 h 5.254 v -35.019 h -5.254 z m 0,14.008 h 5.254 v -6.093 h -5.254 v 6.093" /><path
         id="path20"
         style="fill:#484b4c;fill-opacity:1;fill-rule:nonzero;stroke:none"
         d="m 458.098,183.617 c 0,0 -7.774,1.121 -12.254,1.121 -4.348,0 -7.641,-1.191 -7.641,-5.324 0,-3.289 1.684,-4.199 9.11,-5.465 8.753,-1.469 12.046,-3.215 12.046,-10.011 0,-8.196 -5.183,-10.926 -13.589,-10.926 -4.485,0 -12.325,1.328 -12.325,1.328 l 0.278,4.551 c 0,0 7.984,-1.184 11.558,-1.184 5.742,0 8.824,1.258 8.824,6.02 0,3.64 -1.824,4.554 -9.453,5.742 -7.918,1.265 -11.703,2.734 -11.703,9.734 0,7.707 6.239,10.227 12.61,10.227 5.254,0 12.679,-1.328 12.679,-1.328 l -0.14,-4.485" /><path
         id="path22"
         style="fill:#484b4c;fill-opacity:1;fill-rule:nonzero;stroke:none"
         d="m 489.098,170.172 c -4.274,-0.422 -5.95,-2.453 -5.95,-6.305 0,-4.062 1.75,-6.445 5.321,-6.445 5.187,0 10.996,2.172 10.996,2.172 v 11.558 z m 15.621,-9.945 c 0.14,-2.032 1.82,-2.805 4.062,-3.082 l -0.211,-4.133 c -3.711,0 -6.234,0.699 -8.332,2.801 0,0 -6.304,-2.801 -12.609,-2.801 -6.371,0 -9.871,3.64 -9.871,10.715 0,6.722 3.5,9.668 10.711,10.367 l 10.996,1.047 v 3.015 c 0,4.903 -2.102,6.653 -6.305,6.653 -4.902,0 -13.234,-0.911 -13.234,-0.911 l -0.211,3.993 c 0,0 7.703,1.539 13.73,1.539 7.914,0 11.274,-3.645 11.274,-11.274 v -17.929" /><path
         id="path24"
         style="fill:#484b4c;fill-opacity:1;fill-rule:nonzero;stroke:none"
         d="m 537.688,188.379 -0.211,-4.274 c 0,0 -5.606,0.633 -8.266,0.633 -8.051,0 -10.223,-3.504 -10.223,-12.886 0,-10.368 1.61,-14.145 10.297,-14.145 2.66,0 8.262,0.629 8.262,0.629 l 0.211,-4.348 c 0,0 -6.516,-0.976 -9.738,-0.976 -11.133,0 -14.422,5.113 -14.422,18.84 0,12.675 4.129,17.578 14.562,17.578 3.223,0 9.528,-1.051 9.528,-1.051" /><path
         id="path26"
         style="fill:#484b4c;fill-opacity:1;fill-rule:nonzero;stroke:none"
         d="m 553.797,184.18 v -16.742 c 0,-7.633 0.492,-9.805 5.043,-9.805 1.965,0 6.23,0.418 6.23,0.418 l 0.352,-4.34 c 0,0 -4.692,-0.77 -7.145,-0.77 -7.211,0 -9.664,2.735 -9.664,12.817 v 18.422 h -4.972 v 4.55 h 4.972 v 10.715 h 5.184 V 188.73 h 11.137 v -4.55 h -11.137" /><path
         id="path28"
         style="fill:#484b4c;fill-opacity:1;fill-rule:nonzero;stroke:none"
         d="m 572.031,188.73 h 5.254 v -35.019 h -5.254 z m 0,14.008 h 5.254 v -6.093 h -5.254 v 6.093" /><path
         id="path30"
         style="fill:#484b4c;fill-opacity:1;fill-rule:nonzero;stroke:none"
         d="m 589.93,188.73 8.191,-30.468 h 2.594 l 8.476,30.468 h 5.391 l -9.871,-35.019 h -10.512 l -9.871,35.019 h 5.602" /><path
         id="path32"
         style="fill:#484b4c;fill-opacity:1;fill-rule:nonzero;stroke:none"
         d="m 621.637,188.73 h 5.254 v -35.019 h -5.254 z m 0,14.008 h 5.254 v -6.093 h -5.254 v 6.093" /><path
         id="path34"
         style="fill:#484b4c;fill-opacity:1;fill-rule:nonzero;stroke:none"
         d="m 644.152,184.18 v -16.742 c 0,-7.633 0.493,-9.805 5.043,-9.805 1.961,0 6.231,0.418 6.231,0.418 l 0.351,-4.34 c 0,0 -4.691,-0.77 -7.14,-0.77 -7.215,0 -9.664,2.735 -9.664,12.817 v 18.422 h -4.977 v 4.55 h 4.977 v 10.715 h 5.179 V 188.73 h 11.137 v -4.55 h -11.137" /><path
         id="path36"
         style="fill:#484b4c;fill-opacity:1;fill-rule:nonzero;stroke:none"
         d="m 665.633,188.73 8.754,-30.468 h 2.312 l 8.824,30.468 h 5.254 l -14.57,-50.566 h -5.246 l 4.551,15.547 h -5.188 l -9.941,35.019 h 5.25" /><path
         id="path38"
         style="fill:#484b4c;fill-opacity:1;fill-rule:nonzero;stroke:none"
         d="M 710.086,153.711 V 204 h 5.254 v -17.23 c 0,0 5.601,2.66 10.781,2.66 9.598,0 11.84,-4.762 11.84,-17.227 v -18.492 h -5.254 v 18.352 c 0,9.242 -1.051,12.675 -7.496,12.675 -4.969,0 -9.871,-2.101 -9.871,-2.101 v -28.926 h -5.254" /><path
         id="path40"
         style="fill:#484b4c;fill-opacity:1;fill-rule:nonzero;stroke:none"
         d="m 756.773,170.172 c -4.269,-0.422 -5.949,-2.453 -5.949,-6.305 0,-4.062 1.75,-6.445 5.321,-6.445 5.183,0 10.996,2.172 10.996,2.172 v 11.558 z m 15.622,-9.945 c 0.14,-2.032 1.82,-2.805 4.062,-3.082 l -0.211,-4.133 c -3.711,0 -6.234,0.699 -8.336,2.801 0,0 -6.301,-2.801 -12.605,-2.801 -6.371,0 -9.871,3.64 -9.871,10.715 0,6.722 3.5,9.668 10.711,10.367 l 10.996,1.047 v 3.015 c 0,4.903 -2.102,6.653 -6.305,6.653 -4.902,0 -13.234,-0.911 -13.234,-0.911 l -0.211,3.993 c 0,0 7.703,1.539 13.73,1.539 7.914,0 11.274,-3.645 11.274,-11.274 v -17.929" /><path
         id="path42"
         style="fill:#484b4c;fill-opacity:1;fill-rule:nonzero;stroke:none"
         d="m 807.141,183.617 c 0,0 -7.774,1.121 -12.254,1.121 -4.348,0 -7.641,-1.191 -7.641,-5.324 0,-3.289 1.684,-4.199 9.109,-5.465 8.754,-1.469 12.047,-3.215 12.047,-10.011 0,-8.196 -5.183,-10.926 -13.589,-10.926 -4.485,0 -12.325,1.328 -12.325,1.328 l 0.278,4.551 c 0,0 7.984,-1.184 11.558,-1.184 5.742,0 8.824,1.258 8.824,6.02 0,3.64 -1.824,4.554 -9.453,5.742 -7.918,1.265 -11.703,2.734 -11.703,9.734 0,7.707 6.238,10.227 12.61,10.227 5.253,0 12.679,-1.328 12.679,-1.328 l -0.14,-4.485" /><path
         id="path44"
         style="fill:#484b4c;fill-opacity:1;fill-rule:nonzero;stroke:none"
         d="m 829.039,188.73 h 5.184 v -4.765 c 0,0 6.093,4.203 12.816,5.539 v -5.324 c -6.582,-1.332 -12.746,-4.766 -12.746,-4.766 v -25.703 h -5.254 v 35.019" /><path
         id="path46"
         style="fill:#484b4c;fill-opacity:1;fill-rule:nonzero;stroke:none"
         d="m 875.301,173.254 c 0,8.684 -2.66,11.766 -8.824,11.766 -5.954,0 -9.317,-3.29 -9.383,-11.766 z m 3.926,-14.992 0.136,-4.129 c 0,0 -7.984,-1.121 -13.66,-1.121 -10.433,0 -13.863,6.09 -13.863,18 0,13.304 5.738,18.418 14.637,18.418 9.316,0 14.078,-4.903 14.078,-16.387 l -0.278,-3.996 H 857.16 c 0,-7.492 2.317,-11.414 9.176,-11.414 5.254,0 12.891,0.629 12.891,0.629" /><path
         id="path48"
         style="fill:#484b4c;fill-opacity:1;fill-rule:nonzero;stroke:none"
         d="m 911.699,188.379 -0.207,-4.274 c 0,0 -5.605,0.633 -8.265,0.633 -8.055,0 -10.227,-3.504 -10.227,-12.886 0,-10.368 1.613,-14.145 10.297,-14.145 2.664,0 8.262,0.629 8.262,0.629 l 0.211,-4.348 c 0,0 -6.512,-0.976 -9.739,-0.976 -11.129,0 -14.422,5.113 -14.422,18.84 0,12.675 4.129,17.578 14.567,17.578 3.222,0 9.523,-1.051 9.523,-1.051" /><path
         id="path50"
         style="fill:#484b4c;fill-opacity:1;fill-rule:nonzero;stroke:none"
         d="m 941.023,173.254 c 0,8.684 -2.66,11.766 -8.824,11.766 -5.953,0 -9.316,-3.29 -9.383,-11.766 z m 3.926,-14.992 0.137,-4.129 c 0,0 -7.984,-1.121 -13.656,-1.121 -10.438,0 -13.867,6.09 -13.867,18 0,13.304 5.742,18.418 14.636,18.418 9.317,0 14.078,-4.903 14.078,-16.387 l -0.281,-3.996 h -23.113 c 0,-7.492 2.316,-11.414 9.176,-11.414 5.254,0 12.89,0.629 12.89,0.629" /><path
         id="path52"
         style="fill:#484b4c;fill-opacity:1;fill-rule:nonzero;stroke:none"
         d="m 954.402,188.73 h 5.254 v -35.019 h -5.254 z m 0,14.008 h 5.254 v -6.093 h -5.254 v 6.093" /><path
         id="path54"
         style="fill:#484b4c;fill-opacity:1;fill-rule:nonzero;stroke:none"
         d="m 972.293,188.73 8.191,-30.468 h 2.594 l 8.477,30.468 h 5.39 l -9.871,-35.019 h -10.508 l -9.875,35.019 h 5.602" /><path
         id="path56"
         style="fill:#484b4c;fill-opacity:1;fill-rule:nonzero;stroke:none"
         d="m 1025.11,173.254 c 0,8.684 -2.66,11.766 -8.82,11.766 -5.95,0 -9.32,-3.29 -9.38,-11.766 z m 3.93,-14.992 0.14,-4.129 c 0,0 -7.99,-1.121 -13.66,-1.121 -10.43,0 -13.87,6.09 -13.87,18 0,13.304 5.74,18.418 14.64,18.418 9.32,0 14.08,-4.903 14.08,-16.387 l -0.28,-3.996 h -23.12 c 0,-7.492 2.32,-11.414 9.18,-11.414 5.25,0 12.89,0.629 12.89,0.629" /><path
         id="path58"
         style="fill:#484b4c;fill-opacity:1;fill-rule:nonzero;stroke:none"
         d="m 1060.64,160.293 v 23.746 c -1.12,0.211 -5.46,0.84 -8.34,0.84 -7.35,0 -9.52,-4.836 -9.52,-13.938 0,-11.347 3.71,-13.234 7.84,-13.234 4.98,0 10.02,2.586 10.02,2.586 z m 5.18,-6.582 h -5.18 v 2.383 c 0,0 -5.39,-3.082 -10.65,-3.082 -6.86,0 -12.6,2.801 -12.6,17.929 0,12.325 3.99,18.489 14.63,18.489 3.02,0 7.57,-0.7 8.62,-0.91 V 204 h 5.18 v -50.289" /><path
         id="path60"
         style="fill:#484b4c;fill-opacity:1;fill-rule:nonzero;stroke:none"
         d="m 1095.28,153.711 h -5.25 v 30.469 h -4.42 v 4.55 h 4.42 v 3.149 c 0,10.09 2.59,12.82 9.45,12.82 2.38,0 7.07,-0.488 7.07,-0.488 l -0.06,-4.344 c 0,0 -3.93,0.137 -6.03,0.137 -3.92,0 -5.18,-1.68 -5.18,-8.191 v -3.083 h 10.16 v -4.55 h -10.16 v -30.469" /><path
         id="path62"
         style="fill:#484b4c;fill-opacity:1;fill-rule:nonzero;stroke:none"
         d="m 1139.5,188.73 v -35.019 h -5.25 v 2.453 c 0,0 -5.25,-3.152 -10.37,-3.152 -9.8,0 -11.83,4.551 -11.83,17.437 v 18.281 h 5.25 v -18.21 c 0,-9.665 0.84,-12.813 7.36,-12.813 5.18,0 9.59,2.586 9.59,2.586 v 28.437 h 5.25" /><path
         id="path64"
         style="fill:#484b4c;fill-opacity:1;fill-rule:nonzero;stroke:none"
         d="m 1149.29,153.711 v 35.019 h 5.18 v -2.449 c 0,0 5.68,3.149 10.86,3.149 9.67,0 11.84,-4.762 11.84,-17.227 v -18.492 h -5.19 v 18.352 c 0,9.242 -1.05,12.675 -7.56,12.675 -5.04,0 -9.87,-2.59 -9.87,-2.59 v -28.437 h -5.26" /><path
         id="path66"
         style="fill:#484b4c;fill-opacity:1;fill-rule:nonzero;stroke:none"
         d="m 1208.64,160.293 v 23.746 c -1.11,0.211 -5.45,0.84 -8.33,0.84 -7.35,0 -9.52,-4.836 -9.52,-13.938 0,-11.347 3.71,-13.234 7.84,-13.234 4.98,0 10.01,2.586 10.01,2.586 z m 5.19,-6.582 h -5.19 v 2.383 c 0,0 -5.39,-3.082 -10.64,-3.082 -6.86,0 -12.61,2.801 -12.61,17.929 0,12.325 4,18.489 14.64,18.489 3.01,0 7.56,-0.7 8.61,-0.91 V 204 h 5.19 v -50.289" /><path
         id="path68"
         style="fill:#484b4c;fill-opacity:1;fill-rule:nonzero;stroke:none"
         d="m 1223.64,188.73 h 5.26 v -35.019 h -5.26 z m 0,14.008 h 5.26 v -6.093 h -5.26 v 6.093" /><path
         id="path70"
         style="fill:#484b4c;fill-opacity:1;fill-rule:nonzero;stroke:none"
         d="m 1238.66,153.711 v 35.019 h 5.18 v -2.449 c 0,0 5.67,3.149 10.85,3.149 9.67,0 11.85,-4.762 11.85,-17.227 v -18.492 h -5.19 v 18.352 c 0,9.242 -1.05,12.675 -7.56,12.675 -5.05,0 -9.88,-2.59 -9.88,-2.59 v -28.437 h -5.25" /><path
         id="path72"
         style="fill:#484b4c;fill-opacity:1;fill-rule:nonzero;stroke:none"
         d="m 1295.72,177.457 c 0,5.531 -2.17,7.699 -8.05,7.699 -5.47,0 -7.85,-2.168 -7.85,-7.699 0,-5.539 2.38,-7.637 7.85,-7.637 5.88,0 8.05,2.098 8.05,7.637 z m -12.47,-23.047 c -2.94,-2.168 -3.92,-3.43 -3.92,-6.164 0,-4.832 2.03,-6.582 9.94,-6.582 7.01,0 10.16,1.891 10.16,6.516 0,5.32 -2.24,5.883 -8.61,5.883 -2.45,0 -7.57,0.347 -7.57,0.347 z m -9.1,-6.582 c 0,4.063 1.89,5.953 5.53,8.688 -1.26,0.839 -1.96,2.66 -1.96,4.828 0,1.332 2.38,5.535 2.38,5.535 -2.94,1.328 -5.53,4.133 -5.53,10.578 0,8.613 5.32,11.973 13.1,11.973 3.5,0 7.28,-0.91 7.28,-0.91 l 10.36,0.281 v -4.485 l -6.65,0.141 c 1.33,-1.332 2.31,-3.289 2.31,-7 0,-9.105 -4.55,-11.84 -13.52,-11.84 -0.69,0 -2.66,0.141 -3.42,0.281 0,0 -1.27,-3.082 -1.27,-3.992 0,-2.804 0.56,-3.222 8.48,-3.222 9.94,0 13.51,-1.961 13.51,-10.293 0,-7.918 -5.67,-11.141 -15.54,-11.141 -11.07,0 -15.06,2.453 -15.06,10.578" /><path
         id="path74"
         style="fill:#484b4c;fill-opacity:1;fill-rule:nonzero;stroke:none"
         d="m 1330.99,153.711 h -5.26 v 30.469 h -4.41 v 4.55 h 4.41 v 3.149 c 0,10.09 2.59,12.82 9.46,12.82 2.38,0 7.08,-0.488 7.08,-0.488 l -0.08,-4.344 c 0,0 -3.92,0.137 -6.02,0.137 -3.92,0 -5.18,-1.68 -5.18,-8.191 v -3.083 h 10.15 v -4.55 h -10.15 v -30.469" /><path
         id="path76"
         style="fill:#484b4c;fill-opacity:1;fill-rule:nonzero;stroke:none"
         d="m 1347.95,188.73 h 5.19 v -4.765 c 0,0 6.09,4.203 12.82,5.539 v -5.324 c -6.59,-1.332 -12.75,-4.766 -12.75,-4.766 v -25.703 h -5.26 v 35.019" /><path
         id="path78"
         style="fill:#484b4c;fill-opacity:1;fill-rule:nonzero;stroke:none"
         d="m 1395.53,171.641 c 0,9.738 -2.1,13.238 -9.6,13.238 -7.42,0 -9.59,-3.5 -9.59,-13.238 0,-9.946 1.33,-14.078 9.59,-14.078 8.34,0 9.6,4.132 9.6,14.078 z m 5.39,0 c 0,-12.75 -3.15,-18.629 -14.99,-18.629 -11.76,0 -14.98,5.879 -14.98,18.629 0,12.047 3.92,17.789 14.98,17.789 11.14,0 14.99,-5.742 14.99,-17.789" /><path
         id="path80"
         style="fill:#484b4c;fill-opacity:1;fill-rule:nonzero;stroke:none"
         d="m 1409.45,153.711 v 35.019 h 5.18 v -2.449 c 0,0 5.26,3.149 10.23,3.149 4.69,0 7.28,-1.051 9.11,-3.571 0,0 6.23,3.571 12.46,3.571 9.52,0 11.83,-4.551 11.83,-17.227 v -18.492 h -5.25 v 18.352 c 0,9.242 -1.04,12.675 -7.35,12.675 -5.18,0 -9.88,-2.59 -9.88,-2.59 0.64,-1.609 0.91,-6.023 0.91,-10.23 v -18.207 h -5.25 v 18.07 c 0,9.664 -0.98,12.957 -7.36,12.957 -4.97,0 -9.38,-2.59 -9.38,-2.59 v -28.437 h -5.25" /><path
         id="path82"
         style="fill:#484b4c;fill-opacity:1;fill-rule:nonzero;stroke:none"
         d="m 1487.57,184.18 v -16.742 c 0,-7.633 0.49,-9.805 5.04,-9.805 1.96,0 6.23,0.418 6.23,0.418 l 0.35,-4.34 c 0,0 -4.69,-0.77 -7.14,-0.77 -7.21,0 -9.66,2.735 -9.66,12.817 v 18.422 h -4.98 v 4.55 h 4.98 v 10.715 h 5.18 V 188.73 h 11.13 v -4.55 h -11.13" /><path
         id="path84"
         style="fill:#484b4c;fill-opacity:1;fill-rule:nonzero;stroke:none"
         d="M 1505.79,153.711 V 204 h 5.26 v -17.23 c 0,0 5.6,2.66 10.79,2.66 9.59,0 11.83,-4.762 11.83,-17.227 v -18.492 h -5.25 v 18.352 c 0,9.242 -1.05,12.675 -7.49,12.675 -4.98,0 -9.88,-2.101 -9.88,-2.101 v -28.926 h -5.26" /><path
         id="path86"
         style="fill:#484b4c;fill-opacity:1;fill-rule:nonzero;stroke:none"
         d="m 1565.31,173.254 c 0,8.684 -2.66,11.766 -8.82,11.766 -5.96,0 -9.32,-3.29 -9.4,-11.766 z m 3.92,-14.992 0.14,-4.129 c 0,0 -7.98,-1.121 -13.65,-1.121 -10.44,0 -13.87,6.09 -13.87,18 0,13.304 5.74,18.418 14.64,18.418 9.3,0 14.07,-4.903 14.07,-16.387 l -0.28,-3.996 h -23.11 c 0,-7.492 2.3,-11.414 9.17,-11.414 5.25,0 12.89,0.629 12.89,0.629" /><path
         id="path88"
         style="fill:#484b4c;fill-opacity:1;fill-rule:nonzero;stroke:none"
         d="m 1592.26,202.18 h 29.48 v -4.766 h -24.09 v -16.738 h 19.89 v -4.696 h -19.89 v -17.507 h 24.09 v -4.762 h -29.48 v 48.469" /><path
         id="path90"
         style="fill:#484b4c;fill-opacity:1;fill-rule:nonzero;stroke:none"
         d="m 1656.6,188.73 v -35.019 h -5.25 v 2.453 c 0,0 -5.25,-3.152 -10.36,-3.152 -9.81,0 -11.84,4.551 -11.84,17.437 v 18.281 h 5.25 v -18.21 c 0,-9.665 0.84,-12.813 7.35,-12.813 5.19,0 9.6,2.586 9.6,2.586 v 28.437 h 5.25" /><path
         id="path92"
         style="fill:#484b4c;fill-opacity:1;fill-rule:nonzero;stroke:none"
         d="m 1666.39,188.73 h 5.18 v -4.765 c 0,0 6.1,4.203 12.83,5.539 v -5.324 c -6.59,-1.332 -12.76,-4.766 -12.76,-4.766 v -25.703 h -5.25 v 35.019" /><path
         id="path94"
         style="fill:#484b4c;fill-opacity:1;fill-rule:nonzero;stroke:none"
         d="m 1713.97,171.641 c 0,9.738 -2.1,13.238 -9.6,13.238 -7.42,0 -9.59,-3.5 -9.59,-13.238 0,-9.946 1.33,-14.078 9.59,-14.078 8.34,0 9.6,4.132 9.6,14.078 z m 5.39,0 c 0,-12.75 -3.16,-18.629 -14.99,-18.629 -11.76,0 -14.98,5.879 -14.98,18.629 0,12.047 3.91,17.789 14.98,17.789 11.14,0 14.99,-5.742 14.99,-17.789" /><path
         id="path96"
         style="fill:#484b4c;fill-opacity:1;fill-rule:nonzero;stroke:none"
         d="m 1733.14,181.938 v -23.602 c 0.92,-0.141 4.55,-0.773 7.57,-0.773 7.7,0 10.22,3.992 10.22,14.078 0,9.593 -3.01,13.097 -8.12,13.097 -4.77,0 -9.67,-2.8 -9.67,-2.8 z m -5.26,6.792 h 5.19 v -2.519 c 0,0 5.32,3.219 10.51,3.219 8.82,0 12.67,-5.391 12.67,-17.789 0,-13.727 -4.48,-18.629 -15.26,-18.629 -3.3,0 -6.87,0.558 -7.85,0.769 v -15.617 h -5.26 v 50.566" /><path
         id="path98"
         style="fill:#484b4c;fill-opacity:1;fill-rule:nonzero;stroke:none"
         d="m 1786.92,173.254 c 0,8.684 -2.66,11.766 -8.82,11.766 -5.96,0 -9.32,-3.29 -9.4,-11.766 z m 3.92,-14.992 0.14,-4.129 c 0,0 -7.98,-1.121 -13.65,-1.121 -10.44,0 -13.87,6.09 -13.87,18 0,13.304 5.74,18.418 14.64,18.418 9.3,0 14.07,-4.903 14.07,-16.387 l -0.28,-3.996 h -23.11 c 0,-7.492 2.31,-11.414 9.17,-11.414 5.26,0 12.89,0.629 12.89,0.629" /><path
         id="path100"
         style="fill:#484b4c;fill-opacity:1;fill-rule:nonzero;stroke:none"
         d="m 1809.67,170.172 c -4.28,-0.422 -5.96,-2.453 -5.96,-6.305 0,-4.062 1.75,-6.445 5.33,-6.445 5.18,0 10.99,2.172 10.99,2.172 v 11.558 z m 15.62,-9.945 c 0.13,-2.032 1.82,-2.805 4.06,-3.082 l -0.22,-4.133 c -3.71,0 -6.23,0.699 -8.33,2.801 0,0 -6.3,-2.801 -12.6,-2.801 -6.38,0 -9.88,3.64 -9.88,10.715 0,6.722 3.5,9.668 10.72,10.367 l 10.99,1.047 v 3.015 c 0,4.903 -2.1,6.653 -6.3,6.653 -4.9,0 -13.24,-0.911 -13.24,-0.911 l -0.2,3.993 c 0,0 7.7,1.539 13.72,1.539 7.92,0 11.28,-3.645 11.28,-11.274 v -17.929" /><path
         id="path102"
         style="fill:#484b4c;fill-opacity:1;fill-rule:nonzero;stroke:none"
         d="m 1836.16,153.711 v 35.019 h 5.19 v -2.449 c 0,0 5.67,3.149 10.86,3.149 9.66,0 11.84,-4.762 11.84,-17.227 v -18.492 h -5.19 v 18.352 c 0,9.242 -1.05,12.675 -7.56,12.675 -5.05,0 -9.88,-2.59 -9.88,-2.59 v -28.437 h -5.26" /><path
         id="path104"
         style="fill:#484b4c;fill-opacity:1;fill-rule:nonzero;stroke:none"
         d="m 1887.27,202.18 h 5.39 v -48.469 h -5.39 v 48.469" /><path
         id="path106"
         style="fill:#484b4c;fill-opacity:1;fill-rule:nonzero;stroke:none"
         d="m 1903.23,153.711 v 35.019 h 5.19 v -2.449 c 0,0 5.67,3.149 10.86,3.149 9.66,0 11.84,-4.762 11.84,-17.227 v -18.492 h -5.19 v 18.352 c 0,9.242 -1.05,12.675 -7.56,12.675 -5.05,0 -9.88,-2.59 -9.88,-2.59 v -28.437 h -5.26" /><path
         id="path108"
         style="fill:#484b4c;fill-opacity:1;fill-rule:nonzero;stroke:none"
         d="m 1963.84,183.617 c 0,0 -7.77,1.121 -12.26,1.121 -4.33,0 -7.62,-1.191 -7.62,-5.324 0,-3.289 1.68,-4.199 9.1,-5.465 8.75,-1.469 12.05,-3.215 12.05,-10.011 0,-8.196 -5.19,-10.926 -13.59,-10.926 -4.49,0 -12.33,1.328 -12.33,1.328 l 0.28,4.551 c 0,0 7.98,-1.184 11.56,-1.184 5.74,0 8.83,1.258 8.83,6.02 0,3.64 -1.83,4.554 -9.47,5.742 -7.91,1.265 -11.69,2.734 -11.69,9.734 0,7.707 6.23,10.227 12.61,10.227 5.25,0 12.68,-1.328 12.68,-1.328 l -0.15,-4.485" /><path
         id="path110"
         style="fill:#484b4c;fill-opacity:1;fill-rule:nonzero;stroke:none"
         d="m 1980.78,184.18 v -16.742 c 0,-7.633 0.49,-9.805 5.04,-9.805 1.97,0 6.23,0.418 6.23,0.418 l 0.35,-4.34 c 0,0 -4.68,-0.77 -7.13,-0.77 -7.22,0 -9.67,2.735 -9.67,12.817 v 18.422 h -4.97 v 4.55 h 4.97 v 10.715 h 5.18 V 188.73 h 11.14 v -4.55 h -11.14" /><path
         id="path112"
         style="fill:#484b4c;fill-opacity:1;fill-rule:nonzero;stroke:none"
         d="m 1998.99,188.73 h 5.25 v -35.019 h -5.25 z m 0,14.008 h 5.25 v -6.093 h -5.25 v 6.093" /><path
         id="path114"
         style="fill:#484b4c;fill-opacity:1;fill-rule:nonzero;stroke:none"
         d="m 2021.52,184.18 v -16.742 c 0,-7.633 0.48,-9.805 5.04,-9.805 1.96,0 6.23,0.418 6.23,0.418 l 0.35,-4.34 c 0,0 -4.69,-0.77 -7.14,-0.77 -7.22,0 -9.67,2.735 -9.67,12.817 v 18.422 h -4.97 v 4.55 h 4.97 v 10.715 h 5.19 V 188.73 h 11.13 v -4.55 h -11.13" /><path
         id="path116"
         style="fill:#484b4c;fill-opacity:1;fill-rule:nonzero;stroke:none"
         d="m 2066.79,188.73 v -35.019 h -5.25 v 2.453 c 0,0 -5.26,-3.152 -10.37,-3.152 -9.81,0 -11.83,4.551 -11.83,17.437 v 18.281 h 5.24 v -18.21 c 0,-9.665 0.84,-12.813 7.36,-12.813 5.18,0 9.6,2.586 9.6,2.586 v 28.437 h 5.25" /><path
         id="path118"
         style="fill:#484b4c;fill-opacity:1;fill-rule:nonzero;stroke:none"
         d="m 2084.1,184.18 v -16.742 c 0,-7.633 0.49,-9.805 5.04,-9.805 1.97,0 6.23,0.418 6.23,0.418 l 0.35,-4.34 c 0,0 -4.68,-0.77 -7.13,-0.77 -7.22,0 -9.67,2.735 -9.67,12.817 v 18.422 h -4.97 v 4.55 h 4.97 v 10.715 h 5.18 V 188.73 h 11.14 v -4.55 h -11.14" /><path
         id="path120"
         style="fill:#484b4c;fill-opacity:1;fill-rule:nonzero;stroke:none"
         d="m 2123.84,173.254 c 0,8.684 -2.66,11.766 -8.82,11.766 -5.96,0 -9.31,-3.29 -9.39,-11.766 z m 3.93,-14.992 0.13,-4.129 c 0,0 -7.98,-1.121 -13.65,-1.121 -10.44,0 -13.87,6.09 -13.87,18 0,13.304 5.75,18.418 14.64,18.418 9.31,0 14.07,-4.903 14.07,-16.387 l -0.28,-3.996 h -23.1 c 0,-7.492 2.3,-11.414 9.17,-11.414 5.25,0 12.89,0.629 12.89,0.629" /><path
         id="path122"
         style="fill:#484b4c;fill-opacity:1;fill-rule:nonzero;stroke:none"
         d="m 2172.92,171.641 c 0,9.738 -2.1,13.238 -9.6,13.238 -7.42,0 -9.59,-3.5 -9.59,-13.238 0,-9.946 1.33,-14.078 9.59,-14.078 8.34,0 9.6,4.132 9.6,14.078 z m 5.39,0 c 0,-12.75 -3.15,-18.629 -14.99,-18.629 -11.76,0 -14.98,5.879 -14.98,18.629 0,12.047 3.92,17.789 14.98,17.789 11.15,0 14.99,-5.742 14.99,-17.789" /><path
         id="path124"
         style="fill:#484b4c;fill-opacity:1;fill-rule:nonzero;stroke:none"
         d="m 2193.49,153.711 h -5.26 v 30.469 h -4.41 v 4.55 h 4.41 v 3.149 c 0,10.09 2.59,12.82 9.46,12.82 2.38,0 7.08,-0.488 7.08,-0.488 l -0.08,-4.344 c 0,0 -3.92,0.137 -6.02,0.137 -3.92,0 -5.18,-1.68 -5.18,-8.191 v -3.083 h 10.15 v -4.55 h -10.15 v -30.469" /><path
         id="path126"
         style="fill:#484b4c;fill-opacity:1;fill-rule:nonzero;stroke:none"
         d="m 2223.46,202.18 h 5.39 v -48.469 h -5.39 v 48.469" /><path
         id="path128"
         style="fill:#484b4c;fill-opacity:1;fill-rule:nonzero;stroke:none"
         d="m 2239.42,153.711 v 35.019 h 5.18 v -2.449 c 0,0 5.68,3.149 10.86,3.149 9.66,0 11.84,-4.762 11.84,-17.227 v -18.492 h -5.19 v 18.352 c 0,9.242 -1.05,12.675 -7.57,12.675 -5.04,0 -9.87,-2.59 -9.87,-2.59 v -28.437 h -5.25" /><path
         id="path130"
         style="fill:#484b4c;fill-opacity:1;fill-rule:nonzero;stroke:none"
         d="m 2276.85,153.711 v 35.019 h 5.18 v -2.449 c 0,0 5.68,3.149 10.86,3.149 9.66,0 11.84,-4.762 11.84,-17.227 v -18.492 h -5.19 v 18.352 c 0,9.242 -1.05,12.675 -7.56,12.675 -5.04,0 -9.88,-2.59 -9.88,-2.59 v -28.437 h -5.25" /><path
         id="path132"
         style="fill:#484b4c;fill-opacity:1;fill-rule:nonzero;stroke:none"
         d="m 2337.53,171.641 c 0,9.738 -2.1,13.238 -9.6,13.238 -7.42,0 -9.59,-3.5 -9.59,-13.238 0,-9.946 1.33,-14.078 9.59,-14.078 8.34,0 9.6,4.132 9.6,14.078 z m 5.39,0 c 0,-12.75 -3.15,-18.629 -14.99,-18.629 -11.77,0 -14.98,5.879 -14.98,18.629 0,12.047 3.92,17.789 14.98,17.789 11.14,0 14.99,-5.742 14.99,-17.789" /><path
         id="path134"
         style="fill:#484b4c;fill-opacity:1;fill-rule:nonzero;stroke:none"
         d="m 2353.41,188.73 8.19,-30.468 h 2.6 l 8.47,30.468 h 5.4 l -9.88,-35.019 h -10.5 l -9.88,35.019 h 5.6" /><path
         id="path136"
         style="fill:#484b4c;fill-opacity:1;fill-rule:nonzero;stroke:none"
         d="m 2394.36,170.172 c -4.28,-0.422 -5.96,-2.453 -5.96,-6.305 0,-4.062 1.75,-6.445 5.32,-6.445 5.19,0 11,2.172 11,2.172 v 11.558 z m 15.61,-9.945 c 0.14,-2.032 1.83,-2.805 4.07,-3.082 l -0.22,-4.133 c -3.71,0 -6.23,0.699 -8.33,2.801 0,0 -6.3,-2.801 -12.61,-2.801 -6.37,0 -9.87,3.64 -9.87,10.715 0,6.722 3.5,9.668 10.71,10.367 l 11,1.047 v 3.015 c 0,4.903 -2.1,6.653 -6.3,6.653 -4.9,0 -13.24,-0.911 -13.24,-0.911 l -0.21,3.993 c 0,0 7.71,1.539 13.72,1.539 7.92,0 11.28,-3.645 11.28,-11.274 v -17.929" /><path
         id="path138"
         style="fill:#484b4c;fill-opacity:1;fill-rule:nonzero;stroke:none"
         d="m 2427.15,184.18 v -16.742 c 0,-7.633 0.49,-9.805 5.04,-9.805 1.96,0 6.23,0.418 6.23,0.418 l 0.35,-4.34 c 0,0 -4.69,-0.77 -7.14,-0.77 -7.21,0 -9.66,2.735 -9.66,12.817 v 18.422 h -4.98 v 4.55 h 4.98 v 10.715 h 5.18 V 188.73 h 11.13 v -4.55 h -11.13" /><path
         id="path140"
         style="fill:#484b4c;fill-opacity:1;fill-rule:nonzero;stroke:none"
         d="m 2445.38,188.73 h 5.26 v -35.019 h -5.26 z m 0,14.008 h 5.26 v -6.093 h -5.26 v 6.093" /><path
         id="path142"
         style="fill:#484b4c;fill-opacity:1;fill-rule:nonzero;stroke:none"
         d="m 2483.76,171.641 c 0,9.738 -2.1,13.238 -9.6,13.238 -7.42,0 -9.59,-3.5 -9.59,-13.238 0,-9.946 1.33,-14.078 9.59,-14.078 8.34,0 9.6,4.132 9.6,14.078 z m 5.39,0 c 0,-12.75 -3.15,-18.629 -14.99,-18.629 -11.77,0 -14.98,5.879 -14.98,18.629 0,12.047 3.92,17.789 14.98,17.789 11.15,0 14.99,-5.742 14.99,-17.789" /><path
         id="path144"
         style="fill:#484b4c;fill-opacity:1;fill-rule:nonzero;stroke:none"
         d="m 2497.68,153.711 v 35.019 h 5.18 v -2.449 c 0,0 5.68,3.149 10.86,3.149 9.66,0 11.84,-4.762 11.84,-17.227 v -18.492 h -5.19 v 18.352 c 0,9.242 -1.05,12.675 -7.56,12.675 -5.04,0 -9.88,-2.59 -9.88,-2.59 v -28.437 h -5.25" /><path
         id="path146"
         style="fill:#484b4c;fill-opacity:1;fill-rule:nonzero;stroke:none"
         d="m 2556.98,170.172 c -4.27,-0.422 -5.95,-2.453 -5.95,-6.305 0,-4.062 1.75,-6.445 5.32,-6.445 5.19,0 11,2.172 11,2.172 v 11.558 z m 15.62,-9.945 c 0.14,-2.032 1.83,-2.805 4.06,-3.082 l -0.2,-4.133 c -3.72,0 -6.24,0.699 -8.34,2.801 0,0 -6.3,-2.801 -12.61,-2.801 -6.38,0 -9.87,3.64 -9.87,10.715 0,6.722 3.49,9.668 10.71,10.367 l 11,1.047 v 3.015 c 0,4.903 -2.1,6.653 -6.3,6.653 -4.91,0 -13.24,-0.911 -13.24,-0.911 l -0.21,3.993 c 0,0 7.71,1.539 13.72,1.539 7.92,0 11.28,-3.645 11.28,-11.274 v -17.929" /><path
         id="path148"
         style="fill:#484b4c;fill-opacity:1;fill-rule:nonzero;stroke:none"
         d="m 2583.48,153.711 v 35.019 h 5.18 v -2.449 c 0,0 5.68,3.149 10.86,3.149 9.66,0 11.84,-4.762 11.84,-17.227 v -18.492 h -5.19 v 18.352 c 0,9.242 -1.05,12.675 -7.56,12.675 -5.04,0 -9.88,-2.59 -9.88,-2.59 v -28.437 h -5.25" /><path
         id="path150"
         style="fill:#484b4c;fill-opacity:1;fill-rule:nonzero;stroke:none"
         d="m 2642.83,160.293 v 23.746 c -1.12,0.211 -5.46,0.84 -8.34,0.84 -7.35,0 -9.52,-4.836 -9.52,-13.938 0,-11.347 3.71,-13.234 7.84,-13.234 4.98,0 10.02,2.586 10.02,2.586 z m 5.18,-6.582 h -5.18 v 2.383 c 0,0 -5.4,-3.082 -10.64,-3.082 -6.87,0 -12.61,2.801 -12.61,17.929 0,12.325 3.99,18.489 14.64,18.489 3.01,0 7.56,-0.7 8.61,-0.91 V 204 h 5.18 v -50.289" /><path
         id="path152"
         style="fill:#484b4c;fill-opacity:1;fill-rule:nonzero;stroke:none"
         d="m 340.52,133.555 h 35.019 v -4.832 H 360.766 V 85.0898 h -5.325 V 128.723 H 340.52 v 4.832" /><path
         id="path154"
         style="fill:#484b4c;fill-opacity:1;fill-rule:nonzero;stroke:none"
         d="m 398.426,104.629 c 0,8.687 -2.66,11.769 -8.824,11.769 -5.954,0 -9.317,-3.293 -9.383,-11.769 z m 3.926,-14.9884 0.136,-4.1328 c 0,0 -7.984,-1.1172 -13.66,-1.1172 -10.433,0 -13.863,6.0899 -13.863,17.9964 0,13.308 5.738,18.418 14.637,18.418 9.316,0 14.078,-4.903 14.078,-16.387 l -0.278,-3.992 h -23.117 c 0,-7.4963 2.317,-11.4182 9.176,-11.4182 5.254,0 12.891,0.6328 12.891,0.6328" /><path
         id="path156"
         style="fill:#484b4c;fill-opacity:1;fill-rule:nonzero;stroke:none"
         d="m 434.82,119.758 -0.207,-4.274 c 0,0 -5.605,0.629 -8.269,0.629 -8.051,0 -10.223,-3.5 -10.223,-12.886 0,-10.3637 1.609,-14.145 10.297,-14.145 2.66,0 8.262,0.6289 8.262,0.6289 l 0.211,-4.3437 c 0,0 -6.516,-0.9766 -9.739,-0.9766 -11.132,0 -14.422,5.1133 -14.422,18.8364 0,12.675 4.129,17.578 14.567,17.578 3.223,0 9.523,-1.047 9.523,-1.047" /><path
         id="path158"
         style="fill:#484b4c;fill-opacity:1;fill-rule:nonzero;stroke:none"
         d="m 442.516,85.0898 v 50.2852 h 5.254 v -17.23 c 0,0 5.601,2.66 10.781,2.66 9.601,0 11.844,-4.758 11.844,-17.227 V 85.0898 h -5.254 v 18.3482 c 0,9.242 -1.051,12.675 -7.496,12.675 -4.973,0 -9.875,-2.097 -9.875,-2.097 V 85.0898 h -5.254" /><path
         id="path160"
         style="fill:#484b4c;fill-opacity:1;fill-rule:nonzero;stroke:none"
         d="m 479.898,85.0898 v 35.0192 h 5.18 v -2.453 c 0,0 5.676,3.149 10.856,3.149 9.668,0 11.843,-4.758 11.843,-17.227 V 85.0898 h -5.187 v 18.3482 c 0,9.242 -1.051,12.675 -7.563,12.675 -5.043,0 -9.875,-2.586 -9.875,-2.586 V 85.0898 h -5.254" /><path
         id="path162"
         style="fill:#484b4c;fill-opacity:1;fill-rule:nonzero;stroke:none"
         d="m 540.59,103.02 c 0,9.734 -2.102,13.234 -9.598,13.234 -7.426,0 -9.594,-3.5 -9.594,-13.234 0,-9.9497 1.329,-14.0786 9.594,-14.0786 8.336,0 9.598,4.1289 9.598,14.0786 z m 5.39,0 c 0,-12.7505 -3.152,-18.6294 -14.988,-18.6294 -11.765,0 -14.988,5.8789 -14.988,18.6294 0,12.043 3.922,17.785 14.988,17.785 11.133,0 14.988,-5.742 14.988,-17.785" /><path
         id="path164"
         style="fill:#484b4c;fill-opacity:1;fill-rule:nonzero;stroke:none"
         d="m 554.746,135.375 h 5.258 V 85.0898 h -5.258 v 50.2852" /><path
         id="path166"
         style="fill:#484b4c;fill-opacity:1;fill-rule:nonzero;stroke:none"
         d="m 593.297,103.02 c 0,9.734 -2.098,13.234 -9.594,13.234 -7.426,0 -9.594,-3.5 -9.594,-13.234 0,-9.9497 1.329,-14.0786 9.594,-14.0786 8.336,0 9.594,4.1289 9.594,14.0786 z m 5.391,0 c 0,-12.7505 -3.149,-18.6294 -14.985,-18.6294 -11.765,0 -14.988,5.8789 -14.988,18.6294 0,12.043 3.918,17.785 14.988,17.785 11.133,0 14.985,-5.742 14.985,-17.785" /><path
         id="path168"
         style="fill:#484b4c;fill-opacity:1;fill-rule:nonzero;stroke:none"
         d="m 627.242,108.832 c 0,5.535 -2.172,7.703 -8.051,7.703 -5.464,0 -7.847,-2.168 -7.847,-7.703 0,-5.535 2.383,-7.637 7.847,-7.637 5.879,0 8.051,2.102 8.051,7.637 z M 614.777,85.7852 c -2.945,-2.168 -3.922,-3.4258 -3.922,-6.1602 0,-4.8359 2.032,-6.582 9.942,-6.582 7.008,0 10.156,1.8906 10.156,6.5117 0,5.3242 -2.238,5.8867 -8.613,5.8867 -2.449,0 -7.563,0.3438 -7.563,0.3438 z m -9.105,-6.5821 c 0,4.0625 1.891,5.9532 5.531,8.6875 -1.258,0.8399 -1.957,2.6602 -1.957,4.8282 0,1.3359 2.375,5.539 2.375,5.539 -2.937,1.3281 -5.531,4.1292 -5.531,10.5742 0,8.613 5.324,11.973 13.101,11.973 3.5,0 7.282,-0.907 7.282,-0.907 l 10.367,0.278 v -4.481 l -6.652,0.141 c 1.328,-1.332 2.308,-3.293 2.308,-7.004 0,-9.1054 -4.555,-11.8398 -13.519,-11.8398 -0.7,0 -2.661,0.1406 -3.426,0.2851 0,0 -1.266,-3.082 -1.266,-3.996 0,-2.8008 0.563,-3.2227 8.477,-3.2227 9.945,0 13.515,-1.957 13.515,-10.293 0,-7.914 -5.668,-11.1367 -15.547,-11.1367 -11.066,0 -15.058,2.4492 -15.058,10.5742" /><path
         id="path170"
         style="fill:#484b4c;fill-opacity:1;fill-rule:nonzero;stroke:none"
         d="m 647.172,120.109 8.754,-30.4684 h 2.312 l 8.825,30.4684 h 5.253 l -14.57,-50.5699 h -5.254 l 4.555,15.5507 h -5.184 l -9.941,35.0192 h 5.25" /><path
         id="path172"
         style="fill:#484b4c;fill-opacity:1;fill-rule:nonzero;stroke:none"
         d="m 702.477,137.617 c 0,0 -6.653,-17.929 -6.653,-31.449 0,-13.375 6.653,-29.836 6.653,-29.836 h -5.043 c 0,0 -7.282,14.7071 -7.282,29.836 0,15.133 7.282,31.449 7.282,31.449 h 5.043" /><path
         id="path174"
         style="fill:#484b4c;fill-opacity:1;fill-rule:nonzero;stroke:none"
         d="m 710.297,133.555 h 29.484 v -4.766 h -24.09 v -16.738 h 19.887 v -4.692 H 715.691 V 89.8477 h 24.09 v -4.7579 h -29.484 v 48.4652" /><path
         id="path176"
         style="fill:#484b4c;fill-opacity:1;fill-rule:nonzero;stroke:none"
         d="m 748.648,133.555 h 5.399 V 85.0898 h -5.399 v 48.4652" /><path
         id="path178"
         style="fill:#484b4c;fill-opacity:1;fill-rule:nonzero;stroke:none"
         d="m 761.527,133.555 h 35.02 v -4.832 H 781.77 V 85.0898 h -5.321 v 43.6332 h -14.922 v 4.832" /><path
         id="path180"
         style="fill:#484b4c;fill-opacity:1;fill-rule:nonzero;stroke:none"
         d="m 806.727,137.617 c 0,0 7.285,-16.316 7.285,-31.449 0,-15.1289 -7.285,-29.836 -7.285,-29.836 h -5.039 c 0,0 6.648,16.461 6.648,29.836 0,13.52 -6.648,31.449 -6.648,31.449 h 5.039" /><path
         id="path182"
         style="fill:#484b4c;fill-opacity:1;fill-rule:nonzero;stroke:none"
         d="m 822.68,92.582 h 5.808 l -4.691,-16.1054 h -4.344 l 3.227,16.1054" /><path
         id="path184"
         style="fill:#484b4c;fill-opacity:1;fill-rule:nonzero;stroke:none"
         d="m 859.43,101.547 c -4.274,-0.418 -5.95,-2.4493 -5.95,-6.3009 0,-4.0625 1.75,-6.4453 5.321,-6.4453 5.187,0 10.996,2.1719 10.996,2.1719 v 11.5583 z m 15.621,-9.9454 c 0.14,-2.0313 1.82,-2.8008 4.062,-3.0821 l -0.211,-4.1289 c -3.711,0 -6.234,0.6992 -8.332,2.7969 0,0 -6.304,-2.7969 -12.609,-2.7969 -6.371,0 -9.871,3.6367 -9.871,10.711 0,6.7264 3.5,9.6684 10.711,10.3674 l 10.996,1.051 v 3.011 c 0,4.903 -2.098,6.657 -6.305,6.657 -4.902,0 -13.234,-0.915 -13.234,-0.915 l -0.211,3.997 c 0,0 7.703,1.535 13.73,1.535 7.914,0 11.274,-3.641 11.274,-11.274 V 91.6016" /><path
         id="path186"
         style="fill:#484b4c;fill-opacity:1;fill-rule:nonzero;stroke:none"
         d="m 920.895,103.16 c 0,9.031 -1.821,12.953 -7.985,12.953 -4.832,0 -9.734,-2.031 -9.734,-2.031 V 89.4297 c 0,0 4.554,-0.3477 6.445,-0.3477 9.594,0 11.274,4.2735 11.274,14.078 z m 5.324,0 c 0,-13.9412 -3.781,-18.7694 -16.528,-18.7694 -4.203,0 -11.695,0.7657 -11.695,0.7657 v 50.2187 h 5.18 v -17.02 c 0,0 5.32,2.45 10.297,2.45 9.523,0 12.746,-5.039 12.746,-17.645" /><path
         id="path188"
         style="fill:#484b4c;fill-opacity:1;fill-rule:nonzero;stroke:none"
         d="m 958.043,103.02 c 0,9.734 -2.098,13.234 -9.594,13.234 -7.426,0 -9.594,-3.5 -9.594,-13.234 0,-9.9497 1.329,-14.0786 9.594,-14.0786 8.336,0 9.594,4.1289 9.594,14.0786 z m 5.391,0 c 0,-12.7505 -3.149,-18.6294 -14.985,-18.6294 -11.765,0 -14.988,5.8789 -14.988,18.6294 0,12.043 3.918,17.785 14.988,17.785 11.133,0 14.985,-5.742 14.985,-17.785" /><path
         id="path190"
         style="fill:#484b4c;fill-opacity:1;fill-rule:nonzero;stroke:none"
         d="m 993.852,91.6719 v 23.7421 c -1.122,0.211 -5.461,0.84 -8.336,0.84 -7.356,0 -9.524,-4.832 -9.524,-13.934 0,-11.3473 3.711,-13.238 7.844,-13.238 4.977,0 10.016,2.5899 10.016,2.5899 z m 5.183,-6.5821 h -5.183 v 2.3829 c 0,0 -5.391,-3.0821 -10.649,-3.0821 -6.863,0 -12.605,2.7969 -12.605,17.9294 0,12.325 3.996,18.485 14.64,18.485 3.012,0 7.563,-0.696 8.614,-0.907 v 15.477 h 5.183 V 85.0898" /><path
         id="path192"
         style="fill:#484b4c;fill-opacity:1;fill-rule:nonzero;stroke:none"
         d="m 1011.41,120.109 8.75,-30.4684 h 2.32 l 8.82,30.4684 h 5.25 l -14.57,-50.5699 h -5.25 l 4.56,15.5507 h -5.19 l -9.94,35.0192 h 5.25" /><path
         id="path194"
         style="fill:#484b4c;fill-opacity:1;fill-rule:nonzero;stroke:none"
         d="m 1078.9,103.02 c 0,9.734 -2.1,13.234 -9.59,13.234 -7.43,0 -9.6,-3.5 -9.6,-13.234 0,-9.9497 1.33,-14.0786 9.6,-14.0786 8.33,0 9.59,4.1289 9.59,14.0786 z m 5.39,0 c 0,-12.7505 -3.15,-18.6294 -14.98,-18.6294 -11.77,0 -14.99,5.8789 -14.99,18.6294 0,12.043 3.92,17.785 14.99,17.785 11.13,0 14.98,-5.742 14.98,-17.785" /><path
         id="path196"
         style="fill:#484b4c;fill-opacity:1;fill-rule:nonzero;stroke:none"
         d="m 1099.47,85.0898 h -5.25 v 30.4692 h -4.42 v 4.55 h 4.42 v 3.149 c 0,10.086 2.59,12.816 9.45,12.816 2.38,0 7.07,-0.488 7.07,-0.488 l -0.06,-4.34 c 0,0 -3.93,0.137 -6.03,0.137 -3.92,0 -5.18,-1.68 -5.18,-8.195 v -3.079 h 10.16 v -4.55 h -10.16 V 85.0898" /><path
         id="path198"
         style="fill:#484b4c;fill-opacity:1;fill-rule:nonzero;stroke:none"
         d="M 1135.52,115.559 V 98.8125 c 0,-7.6289 0.49,-9.8047 5.04,-9.8047 1.96,0 6.23,0.4219 6.23,0.4219 l 0.36,-4.3399 c 0,0 -4.7,-0.7734 -7.15,-0.7734 -7.21,0 -9.66,2.7344 -9.66,12.8164 v 18.4262 h -4.98 v 4.55 h 4.98 v 10.711 h 5.18 v -10.711 h 11.14 v -4.55 h -11.14" /><path
         id="path200"
         style="fill:#484b4c;fill-opacity:1;fill-rule:nonzero;stroke:none"
         d="m 1153.75,85.0898 v 50.2852 h 5.26 v -17.23 c 0,0 5.6,2.66 10.78,2.66 9.6,0 11.84,-4.758 11.84,-17.227 V 85.0898 h -5.26 v 18.3482 c 0,9.242 -1.05,12.675 -7.49,12.675 -4.97,0 -9.87,-2.097 -9.87,-2.097 V 85.0898 h -5.26" /><path
         id="path202"
         style="fill:#484b4c;fill-opacity:1;fill-rule:nonzero;stroke:none"
         d="m 1213.26,104.629 c 0,8.687 -2.66,11.769 -8.82,11.769 -5.96,0 -9.32,-3.293 -9.39,-11.769 z m 3.92,-14.9884 0.14,-4.1328 c 0,0 -7.98,-1.1172 -13.66,-1.1172 -10.43,0 -13.86,6.0899 -13.86,17.9964 0,13.308 5.74,18.418 14.64,18.418 9.31,0 14.07,-4.903 14.07,-16.387 l -0.28,-3.992 h -23.11 c 0,-7.4963 2.31,-11.4182 9.17,-11.4182 5.26,0 12.89,0.6328 12.89,0.6328" /><path
         id="path204"
         style="fill:#484b4c;fill-opacity:1;fill-rule:nonzero;stroke:none"
         d="m 1240.2,133.555 h 29.49 v -4.766 h -24.09 v -16.738 h 19.89 v -4.692 H 1245.6 V 89.8477 h 24.09 v -4.7579 h -29.49 v 48.4652" /><path
         id="path206"
         style="fill:#484b4c;fill-opacity:1;fill-rule:nonzero;stroke:none"
         d="M 1304.55,120.109 V 85.0898 h -5.25 v 2.4493 c 0,0 -5.25,-3.1485 -10.37,-3.1485 -9.8,0 -11.83,4.5508 -11.83,17.4374 v 18.281 h 5.25 v -18.214 c 0,-9.6645 0.84,-12.813 7.35,-12.813 5.19,0 9.6,2.5899 9.6,2.5899 v 28.4371 h 5.25" /><path
         id="path208"
         style="fill:#484b4c;fill-opacity:1;fill-rule:nonzero;stroke:none"
         d="m 1314.35,120.109 h 5.18 v -4.765 c 0,0 6.1,4.203 12.83,5.535 v -5.32 c -6.6,-1.336 -12.76,-4.77 -12.76,-4.77 V 85.0898 h -5.25 v 35.0192" /><path
         id="path210"
         style="fill:#484b4c;fill-opacity:1;fill-rule:nonzero;stroke:none"
         d="m 1361.93,103.02 c 0,9.734 -2.1,13.234 -9.6,13.234 -7.43,0 -9.59,-3.5 -9.59,-13.234 0,-9.9497 1.32,-14.0786 9.59,-14.0786 8.34,0 9.6,4.1289 9.6,14.0786 z m 5.39,0 c 0,-12.7505 -3.16,-18.6294 -14.99,-18.6294 -11.77,0 -14.98,5.8789 -14.98,18.6294 0,12.043 3.91,17.785 14.98,17.785 11.14,0 14.99,-5.742 14.99,-17.785" /><path
         id="path212"
         style="fill:#484b4c;fill-opacity:1;fill-rule:nonzero;stroke:none"
         d="M 1381.1,113.316 V 89.7109 c 0.9,-0.1406 4.55,-0.7695 7.56,-0.7695 7.71,0 10.23,3.9883 10.23,14.0786 0,9.593 -3.01,13.093 -8.13,13.093 -4.76,0 -9.66,-2.797 -9.66,-2.797 z m -5.26,6.793 h 5.19 v -2.519 c 0,0 5.32,3.215 10.51,3.215 8.82,0 12.67,-5.391 12.67,-17.785 0,-13.727 -4.48,-18.6294 -15.26,-18.6294 -3.3,0 -6.87,0.5547 -7.85,0.7657 V 69.5391 h -5.26 v 50.5699" /><path
         id="path214"
         style="fill:#484b4c;fill-opacity:1;fill-rule:nonzero;stroke:none"
         d="m 1434.87,104.629 c 0,8.687 -2.66,11.769 -8.82,11.769 -5.96,0 -9.32,-3.293 -9.4,-11.769 z m 3.92,-14.9884 0.14,-4.1328 c 0,0 -7.98,-1.1172 -13.65,-1.1172 -10.44,0 -13.87,6.0899 -13.87,17.9964 0,13.308 5.74,18.418 14.64,18.418 9.3,0 14.07,-4.903 14.07,-16.387 l -0.28,-3.992 h -23.11 c 0,-7.4963 2.31,-11.4182 9.17,-11.4182 5.25,0 12.89,0.6328 12.89,0.6328" /><path
         id="path216"
         style="fill:#484b4c;fill-opacity:1;fill-rule:nonzero;stroke:none"
         d="m 1457.62,101.547 c -4.28,-0.418 -5.96,-2.4493 -5.96,-6.3009 0,-4.0625 1.75,-6.4453 5.32,-6.4453 5.19,0 11,2.1719 11,2.1719 v 11.5583 z m 15.61,-9.9454 c 0.14,-2.0313 1.83,-2.8008 4.07,-3.0821 l -0.22,-4.1289 c -3.71,0 -6.23,0.6992 -8.33,2.7969 0,0 -6.3,-2.7969 -12.61,-2.7969 -6.37,0 -9.87,3.6367 -9.87,10.711 0,6.7264 3.5,9.6684 10.71,10.3674 l 11,1.051 v 3.011 c 0,4.903 -2.1,6.657 -6.3,6.657 -4.9,0 -13.24,-0.915 -13.24,-0.915 l -0.21,3.997 c 0,0 7.71,1.535 13.73,1.535 7.92,0 11.27,-3.641 11.27,-11.274 V 91.6016" /><path
         id="path218"
         style="fill:#484b4c;fill-opacity:1;fill-rule:nonzero;stroke:none"
         d="m 1484.12,85.0898 v 35.0192 h 5.19 v -2.453 c 0,0 5.67,3.149 10.86,3.149 9.66,0 11.83,-4.758 11.83,-17.227 V 85.0898 h -5.18 v 18.3482 c 0,9.242 -1.06,12.675 -7.57,12.675 -5.04,0 -9.87,-2.586 -9.87,-2.586 V 85.0898 h -5.26" /><path
         id="path220"
         style="fill:#484b4c;fill-opacity:1;fill-rule:nonzero;stroke:none"
         d="m 1551.61,89.1523 c 7.56,0 11.84,2.9375 11.84,10.5079 v 33.8948 h 5.32 V 99.7969 c 0,-11.0664 -6.09,-15.4063 -17.16,-15.4063 -10.64,0 -16.73,4.2735 -16.73,15.4063 v 33.7581 h 5.39 V 99.6602 c 0,-7.5704 4.2,-10.5079 11.34,-10.5079" /><path
         id="path222"
         style="fill:#484b4c;fill-opacity:1;fill-rule:nonzero;stroke:none"
         d="m 1579.15,85.0898 v 35.0192 h 5.19 v -2.453 c 0,0 5.67,3.149 10.86,3.149 9.66,0 11.83,-4.758 11.83,-17.227 V 85.0898 h -5.18 v 18.3482 c 0,9.242 -1.06,12.675 -7.56,12.675 -5.05,0 -9.88,-2.586 -9.88,-2.586 V 85.0898 h -5.26" /><path
         id="path224"
         style="fill:#484b4c;fill-opacity:1;fill-rule:nonzero;stroke:none"
         d="m 1616.59,120.109 h 5.26 V 85.0898 h -5.26 z m 0,14.008 h 5.26 v -6.094 h -5.26 v 6.094" /><path
         id="path226"
         style="fill:#484b4c;fill-opacity:1;fill-rule:nonzero;stroke:none"
         d="m 1654.97,103.02 c 0,9.734 -2.1,13.234 -9.6,13.234 -7.42,0 -9.59,-3.5 -9.59,-13.234 0,-9.9497 1.33,-14.0786 9.59,-14.0786 8.34,0 9.6,4.1289 9.6,14.0786 z m 5.39,0 c 0,-12.7505 -3.15,-18.6294 -14.99,-18.6294 -11.76,0 -14.98,5.8789 -14.98,18.6294 0,12.043 3.92,17.785 14.98,17.785 11.15,0 14.99,-5.742 14.99,-17.785" /><path
         id="path228"
         style="fill:#484b4c;fill-opacity:1;fill-rule:nonzero;stroke:none"
         d="m 1668.89,85.0898 v 35.0192 h 5.18 v -2.453 c 0,0 5.68,3.149 10.86,3.149 9.66,0 11.84,-4.758 11.84,-17.227 V 85.0898 h -5.19 v 18.3482 c 0,9.242 -1.05,12.675 -7.56,12.675 -5.04,0 -9.88,-2.586 -9.88,-2.586 V 85.0898 h -5.25" /><path
         id="path230"
         style="fill:#484b4c;fill-opacity:1;fill-rule:nonzero;stroke:none"
         d="m 1707.21,92.582 h 5.81 l -4.69,-16.1054 h -4.34 l 3.22,16.1054" /><path
         id="path232"
         style="fill:#484b4c;fill-opacity:1;fill-rule:nonzero;stroke:none"
         d="M 1761.97,120.109 V 85.0898 h -5.26 v 2.4493 c 0,0 -5.25,-3.1485 -10.36,-3.1485 -9.81,0 -11.84,4.5508 -11.84,17.4374 v 18.281 h 5.25 v -18.214 c 0,-9.6645 0.84,-12.813 7.35,-12.813 5.19,0 9.6,2.5899 9.6,2.5899 v 28.4371 h 5.26" /><path
         id="path234"
         style="fill:#484b4c;fill-opacity:1;fill-rule:nonzero;stroke:none"
         d="m 1771.75,85.0898 v 35.0192 h 5.19 v -2.453 c 0,0 5.67,3.149 10.86,3.149 9.65,0 11.83,-4.758 11.83,-17.227 V 85.0898 h -5.18 v 18.3482 c 0,9.242 -1.06,12.675 -7.56,12.675 -5.05,0 -9.89,-2.586 -9.89,-2.586 V 85.0898 h -5.25" /><path
         id="path236"
         style="fill:#484b4c;fill-opacity:1;fill-rule:nonzero;stroke:none"
         d="m 1831.11,91.6719 v 23.7421 c -1.13,0.211 -5.47,0.84 -8.34,0.84 -7.36,0 -9.53,-4.832 -9.53,-13.934 0,-11.3473 3.72,-13.238 7.85,-13.238 4.97,0 10.02,2.5899 10.02,2.5899 z m 5.17,-6.5821 h -5.17 v 2.3829 c 0,0 -5.4,-3.0821 -10.65,-3.0821 -6.86,0 -12.61,2.7969 -12.61,17.9294 0,12.325 3.99,18.485 14.64,18.485 3.01,0 7.56,-0.696 8.62,-0.907 v 15.477 h 5.17 V 85.0898" /><path
         id="path238"
         style="fill:#484b4c;fill-opacity:1;fill-rule:nonzero;stroke:none"
         d="m 1868.29,104.629 c 0,8.687 -2.65,11.769 -8.82,11.769 -5.95,0 -9.31,-3.293 -9.39,-11.769 z m 3.93,-14.9884 0.14,-4.1328 c 0,0 -7.98,-1.1172 -13.66,-1.1172 -10.44,0 -13.86,6.0899 -13.86,17.9964 0,13.308 5.74,18.418 14.63,18.418 9.31,0 14.08,-4.903 14.08,-16.387 l -0.29,-3.992 h -23.1 c 0,-7.4963 2.3,-11.4182 9.17,-11.4182 5.25,0 12.89,0.6328 12.89,0.6328" /><path
         id="path240"
         style="fill:#484b4c;fill-opacity:1;fill-rule:nonzero;stroke:none"
         d="m 1881.59,120.109 h 5.19 v -4.765 c 0,0 6.09,4.203 12.82,5.535 v -5.32 c -6.59,-1.336 -12.75,-4.77 -12.75,-4.77 V 85.0898 h -5.26 v 35.0192" /><path
         id="path242"
         style="fill:#484b4c;fill-opacity:1;fill-rule:nonzero;stroke:none"
         d="M 1925.42,115.559 V 98.8125 c 0,-7.6289 0.49,-9.8047 5.04,-9.8047 1.96,0 6.23,0.4219 6.23,0.4219 l 0.35,-4.3399 c 0,0 -4.68,-0.7734 -7.14,-0.7734 -7.21,0 -9.66,2.7344 -9.66,12.8164 v 18.4262 h -4.97 v 4.55 h 4.97 v 10.711 h 5.18 v -10.711 h 11.14 v -4.55 h -11.14" /><path
         id="path244"
         style="fill:#484b4c;fill-opacity:1;fill-rule:nonzero;stroke:none"
         d="m 1943.64,85.0898 v 50.2852 h 5.26 v -17.23 c 0,0 5.6,2.66 10.79,2.66 9.59,0 11.84,-4.758 11.84,-17.227 V 85.0898 h -5.26 v 18.3482 c 0,9.242 -1.05,12.675 -7.49,12.675 -4.98,0 -9.88,-2.097 -9.88,-2.097 V 85.0898 h -5.26" /><path
         id="path246"
         style="fill:#484b4c;fill-opacity:1;fill-rule:nonzero;stroke:none"
         d="m 2003.16,104.629 c 0,8.687 -2.66,11.769 -8.82,11.769 -5.96,0 -9.32,-3.293 -9.4,-11.769 z m 3.92,-14.9884 0.14,-4.1328 c 0,0 -7.98,-1.1172 -13.65,-1.1172 -10.44,0 -13.87,6.0899 -13.87,17.9964 0,13.308 5.74,18.418 14.64,18.418 9.3,0 14.07,-4.903 14.07,-16.387 l -0.28,-3.992 h -23.11 c 0,-7.4963 2.31,-11.4182 9.17,-11.4182 5.26,0 12.89,0.6328 12.89,0.6328" /><path
         id="path248"
         style="fill:#484b4c;fill-opacity:1;fill-rule:nonzero;stroke:none"
         d="M 2060.15,107.012 H 2035.5 V 85.0898 h -5.39 v 48.4652 h 5.39 V 111.84 h 24.65 v 21.715 h 5.32 V 85.0898 h -5.32 v 21.9222" /><path
         id="path250"
         style="fill:#484b4c;fill-opacity:1;fill-rule:nonzero;stroke:none"
         d="m 2099.48,103.02 c 0,9.734 -2.09,13.234 -9.59,13.234 -7.43,0 -9.59,-3.5 -9.59,-13.234 0,-9.9497 1.32,-14.0786 9.59,-14.0786 8.33,0 9.59,4.1289 9.59,14.0786 z m 5.4,0 c 0,-12.7505 -3.16,-18.6294 -14.99,-18.6294 -11.77,0 -14.99,5.8789 -14.99,18.6294 0,12.043 3.92,17.785 14.99,17.785 11.14,0 14.99,-5.742 14.99,-17.785" /><path
         id="path252"
         style="fill:#484b4c;fill-opacity:1;fill-rule:nonzero;stroke:none"
         d="m 2113.4,120.109 h 5.19 v -4.765 c 0,0 6.09,4.203 12.82,5.535 v -5.32 c -6.59,-1.336 -12.76,-4.77 -12.76,-4.77 V 85.0898 h -5.25 v 35.0192" /><path
         id="path254"
         style="fill:#484b4c;fill-opacity:1;fill-rule:nonzero;stroke:none"
         d="m 2138.16,120.109 h 5.25 V 85.0898 h -5.25 z m 0,14.008 h 5.25 v -6.094 h -5.25 v 6.094" /><path
         id="path256"
         style="fill:#484b4c;fill-opacity:1;fill-rule:nonzero;stroke:none"
         d="m 2151.1,120.109 h 25.98 v -4.695 l -19.61,-25.6327 h 19.61 v -4.6915 h -25.98 v 4.6915 l 19.61,25.6327 h -19.61 v 4.695" /><path
         id="path258"
         style="fill:#484b4c;fill-opacity:1;fill-rule:nonzero;stroke:none"
         d="m 2207.63,103.02 c 0,9.734 -2.1,13.234 -9.6,13.234 -7.42,0 -9.59,-3.5 -9.59,-13.234 0,-9.9497 1.33,-14.0786 9.59,-14.0786 8.34,0 9.6,4.1289 9.6,14.0786 z m 5.39,0 c 0,-12.7505 -3.15,-18.6294 -14.99,-18.6294 -11.77,0 -14.98,5.8789 -14.98,18.6294 0,12.043 3.92,17.785 14.98,17.785 11.14,0 14.99,-5.742 14.99,-17.785" /><path
         id="path260"
         style="fill:#484b4c;fill-opacity:1;fill-rule:nonzero;stroke:none"
         d="m 2221.55,85.0898 v 35.0192 h 5.18 v -2.453 c 0,0 5.67,3.149 10.86,3.149 9.66,0 11.84,-4.758 11.84,-17.227 V 85.0898 h -5.19 v 18.3482 c 0,9.242 -1.05,12.675 -7.57,12.675 -5.04,0 -9.87,-2.586 -9.87,-2.586 V 85.0898 h -5.25" /><path
         id="path262"
         style="fill:#484b4c;fill-opacity:1;fill-rule:nonzero;stroke:none"
         d="m 2271.53,85.0898 v 4.5508 l 13.51,14.2184 c 5.74,5.95 9.32,9.735 9.32,15.2 0,6.16 -3.44,8.125 -10.09,8.125 -5.11,0 -11.97,-1.543 -11.97,-1.543 l -0.42,4.48 c 0,0 6.65,1.891 13.38,1.891 9.72,0 14.63,-3.711 14.63,-12.399 0,-6.933 -3.15,-10.992 -9.66,-17.293 L 2277.9,89.7813 h 23.18 v -4.6915 h -29.55" /><path
         id="path264"
         style="fill:#484b4c;fill-opacity:1;fill-rule:nonzero;stroke:none"
         d="m 2313.8,107.434 c 0,-14.5043 4,-18.2817 11.28,-18.2817 7.29,0 11.28,3.8516 11.28,18.3477 0,15.547 -3.57,19.75 -11.28,19.75 -7.56,0 -11.28,-4.062 -11.28,-19.816 z m 28.09,0.066 c 0,-17.7187 -6.23,-23.1094 -16.81,-23.1094 -10.58,0 -16.87,5.25 -16.87,23.0434 0,19.046 6.16,24.652 16.8,24.652 10.93,0 16.88,-5.531 16.88,-24.586" /><path
         id="path266"
         style="fill:#484b4c;fill-opacity:1;fill-rule:nonzero;stroke:none"
         d="m 2348.34,85.0898 v 4.5508 l 13.52,14.2184 c 5.74,5.95 9.31,9.735 9.31,15.2 0,6.16 -3.43,8.125 -10.08,8.125 -5.11,0 -11.98,-1.543 -11.98,-1.543 l -0.42,4.48 c 0,0 6.65,1.891 13.38,1.891 9.73,0 14.63,-3.711 14.63,-12.399 0,-6.933 -3.14,-10.992 -9.66,-17.293 l -12.32,-12.5387 h 23.17 v -4.6915 h -29.55" /><path
         id="path268"
         style="fill:#484b4c;fill-opacity:1;fill-rule:nonzero;stroke:none"
         d="m 2390.61,107.434 c 0,-14.5043 3.99,-18.2817 11.28,-18.2817 7.28,0 11.28,3.8516 11.28,18.3477 0,15.547 -3.58,19.75 -11.28,19.75 -7.56,0 -11.28,-4.062 -11.28,-19.816 z m 28.08,0.066 c 0,-17.7187 -6.23,-23.1094 -16.8,-23.1094 -10.58,0 -16.88,5.25 -16.88,23.0434 0,19.046 6.16,24.652 16.81,24.652 10.93,0 16.87,-5.531 16.87,-24.586" /><path
         id="path270"
         style="fill:#484b4c;fill-opacity:1;fill-rule:nonzero;stroke:none"
         d="m 2426.77,92.582 h 5.81 l -4.7,-16.1054 h -4.33 l 3.22,16.1054" /><path
         id="path272"
         style="fill:#484b4c;fill-opacity:1;fill-rule:nonzero;stroke:none"
         d="M 2461.43,115.559 V 98.8125 c 0,-7.6289 0.49,-9.8047 5.04,-9.8047 1.96,0 6.23,0.4219 6.23,0.4219 l 0.35,-4.3399 c 0,0 -4.69,-0.7734 -7.14,-0.7734 -7.22,0 -9.67,2.7344 -9.67,12.8164 v 18.4262 h -4.97 v 4.55 h 4.97 v 10.711 h 5.19 v -10.711 h 11.13 v -4.55 h -11.13" /><path
         id="path274"
         style="fill:#484b4c;fill-opacity:1;fill-rule:nonzero;stroke:none"
         d="m 2479.65,85.0898 v 50.2852 h 5.25 v -17.23 c 0,0 5.61,2.66 10.8,2.66 9.59,0 11.83,-4.758 11.83,-17.227 V 85.0898 h -5.25 v 18.3482 c 0,9.242 -1.06,12.675 -7.5,12.675 -4.97,0 -9.88,-2.097 -9.88,-2.097 V 85.0898 h -5.25" /><path
         id="path276"
         style="fill:#484b4c;fill-opacity:1;fill-rule:nonzero;stroke:none"
         d="m 2539.16,104.629 c 0,8.687 -2.65,11.769 -8.82,11.769 -5.95,0 -9.31,-3.293 -9.39,-11.769 z m 3.93,-14.9884 0.13,-4.1328 c 0,0 -7.97,-1.1172 -13.65,-1.1172 -10.44,0 -13.86,6.0899 -13.86,17.9964 0,13.308 5.74,18.418 14.63,18.418 9.31,0 14.08,-4.903 14.08,-16.387 l -0.29,-3.992 h -23.1 c 0,-7.4963 2.3,-11.4182 9.17,-11.4182 5.25,0 12.89,0.6328 12.89,0.6328" /><path
         id="path278"
         style="fill:#484b4c;fill-opacity:1;fill-rule:nonzero;stroke:none"
         d="m 2566.11,133.555 h 29.48 v -4.766 h -24.09 v -16.738 h 19.89 v -4.692 H 2571.5 V 89.8477 h 24.09 v -4.7579 h -29.48 v 48.4652" /><path
         id="path280"
         style="fill:#484b4c;fill-opacity:1;fill-rule:nonzero;stroke:none"
         d="m 2621,89.1523 c 7.56,0 11.83,2.9375 11.83,10.5079 v 33.8948 h 5.33 V 99.7969 c 0,-11.0664 -6.1,-15.4063 -17.16,-15.4063 -10.65,0 -16.74,4.2735 -16.74,15.4063 v 33.7581 h 5.39 V 99.6602 c 0,-7.5704 4.2,-10.5079 11.35,-10.5079" /><path
         id="path282"
         style="fill:#484b4c;fill-opacity:1;fill-rule:nonzero;stroke:none"
         d="m 345.563,64.9258 h 29 V 60.1641 H 350.961 V 41.2539 h 19.961 V 36.4883 H 350.961 V 16.4609 h -5.398 v 48.4649" /><path
         id="path284"
         style="fill:#484b4c;fill-opacity:1;fill-rule:nonzero;stroke:none"
         d="m 380.285,51.4805 h 5.18 v -4.7617 c 0,0 6.094,4.1992 12.816,5.5312 v -5.3203 c -6.582,-1.332 -12.742,-4.7656 -12.742,-4.7656 V 16.4609 h -5.254 v 35.0196" /><path
         id="path286"
         style="fill:#484b4c;fill-opacity:1;fill-rule:nonzero;stroke:none"
         d="m 414.281,32.9219 c -4.273,-0.4219 -5.953,-2.4531 -5.953,-6.3047 0,-4.0625 1.75,-6.4453 5.32,-6.4453 5.188,0 10.997,2.1719 10.997,2.1719 v 11.5585 z m 15.617,-9.9492 c 0.145,-2.0313 1.825,-2.8008 4.063,-3.0782 l -0.207,-4.1328 c -3.711,0 -6.238,0.6992 -8.336,2.7969 0,0 -6.305,-2.7969 -12.609,-2.7969 -6.371,0 -9.871,3.6367 -9.871,10.7149 0,6.7226 3.5,9.6679 10.71,10.3632 l 10.997,1.0508 v 3.0117 c 0,4.9024 -2.098,6.6563 -6.301,6.6563 -4.903,0 -13.239,-0.9141 -13.239,-0.9141 l -0.21,3.9961 c 0,0 7.707,1.5391 13.73,1.5391 7.914,0 11.273,-3.6445 11.273,-11.2774 V 22.9727" /><path
         id="path288"
         style="fill:#484b4c;fill-opacity:1;fill-rule:nonzero;stroke:none"
         d="m 440.781,16.4609 v 35.0196 h 5.184 v -2.4532 c 0,0 5.254,3.1524 10.223,3.1524 4.695,0 7.285,-1.0508 9.109,-3.5703 0,0 6.234,3.5703 12.465,3.5703 9.523,0 11.836,-4.5508 11.836,-17.2266 V 16.4609 h -5.25 v 18.3477 c 0,9.2461 -1.055,12.6758 -7.36,12.6758 -5.179,0 -9.871,-2.586 -9.871,-2.586 0.629,-1.6132 0.906,-6.0273 0.906,-10.2304 V 16.4609 h -5.246 v 18.0704 c 0,9.664 -0.984,12.9531 -7.355,12.9531 -4.977,0 -9.387,-2.586 -9.387,-2.586 V 16.4609 h -5.254" /><path
         id="path290"
         style="fill:#484b4c;fill-opacity:1;fill-rule:nonzero;stroke:none"
         d="m 521.223,36 c 0,8.6875 -2.66,11.7695 -8.825,11.7695 -5.949,0 -9.316,-3.2968 -9.382,-11.7695 z m 3.925,-14.9883 0.137,-4.1328 c 0,0 -7.984,-1.1172 -13.656,-1.1172 -10.434,0 -13.867,6.0899 -13.867,18 0,13.3047 5.742,18.418 14.636,18.418 9.317,0 14.079,-4.9024 14.079,-16.3906 l -0.278,-3.9922 h -23.117 c 0,-7.4883 2.316,-11.4141 9.176,-11.4141 5.254,0 12.89,0.6289 12.89,0.6289" /><path
         id="path292"
         style="fill:#484b4c;fill-opacity:1;fill-rule:nonzero;stroke:none"
         d="m 536.867,51.4805 7.074,-30.4688 h 1.125 l 8.336,29.7656 h 5.457 l 8.336,-29.7656 h 1.192 l 7.008,30.4688 h 5.246 l -8.332,-35.0196 h -8.758 l -7.422,27.3829 -7.422,-27.3829 h -8.754 l -8.336,35.0196 h 5.25" /><path
         id="path294"
         style="fill:#484b4c;fill-opacity:1;fill-rule:nonzero;stroke:none"
         d="m 610.543,34.3906 c 0,9.7344 -2.098,13.2383 -9.594,13.2383 -7.426,0 -9.594,-3.5039 -9.594,-13.2383 0,-9.9453 1.329,-14.0781 9.594,-14.0781 8.336,0 9.594,4.1328 9.594,14.0781 z m 5.391,0 c 0,-12.75 -3.149,-18.6289 -14.985,-18.6289 -11.765,0 -14.988,5.8789 -14.988,18.6289 0,12.0469 3.918,17.7891 14.988,17.7891 11.133,0 14.985,-5.7422 14.985,-17.7891" /><path
         id="path296"
         style="fill:#484b4c;fill-opacity:1;fill-rule:nonzero;stroke:none"
         d="m 624.461,51.4805 h 5.18 v -4.7617 c 0,0 6.093,4.1992 12.816,5.5312 v -5.3203 c -6.582,-1.332 -12.742,-4.7656 -12.742,-4.7656 V 16.4609 h -5.254 v 35.0196" /><path
         id="path298"
         style="fill:#484b4c;fill-opacity:1;fill-rule:nonzero;stroke:none"
         d="m 649.215,16.4609 v 50.2852 h 5.254 V 37.0508 l 5.461,0.2773 10.015,14.1524 h 5.957 L 664.484,35.3711 676.391,16.4609 h -5.953 L 660.004,32.7109 654.469,32.5 V 16.4609 h -5.254" /><path
         id="path300"
         style="fill:#484b4c;fill-opacity:1;fill-rule:nonzero;stroke:none"
         d="m 713.902,37.5391 c 7.078,0 10.016,4.2734 10.016,11.7695 0,7.4258 -2.938,10.8555 -10.016,10.8555 H 701.648 V 37.5391 Z M 701.648,32.7773 V 16.4609 h -5.394 v 48.4649 h 17.719 c 10.574,0 15.476,-5.1094 15.476,-15.6172 0,-10.5781 -4.902,-16.5313 -15.476,-16.5313 h -12.325" /><path
         id="path302"
         style="fill:#484b4c;fill-opacity:1;fill-rule:nonzero;stroke:none"
         d="m 737.105,51.4805 h 5.18 v -4.7617 c 0,0 6.098,4.1992 12.82,5.5312 v -5.3203 c -6.582,-1.332 -12.746,-4.7656 -12.746,-4.7656 V 16.4609 h -5.254 v 35.0196" /><path
         id="path304"
         style="fill:#484b4c;fill-opacity:1;fill-rule:nonzero;stroke:none"
         d="m 784.684,34.3906 c 0,9.7344 -2.098,13.2383 -9.594,13.2383 -7.426,0 -9.594,-3.5039 -9.594,-13.2383 0,-9.9453 1.328,-14.0781 9.594,-14.0781 8.336,0 9.594,4.1328 9.594,14.0781 z m 5.39,0 c 0,-12.75 -3.148,-18.6289 -14.984,-18.6289 -11.766,0 -14.988,5.8789 -14.988,18.6289 0,12.0469 3.918,17.7891 14.988,17.7891 11.133,0 14.984,-5.7422 14.984,-17.7891" /><path
         id="path306"
         style="fill:#484b4c;fill-opacity:1;fill-rule:nonzero;stroke:none"
         d="m 818.629,40.2031 c 0,5.5352 -2.172,7.7032 -8.051,7.7032 -5.465,0 -7.848,-2.168 -7.848,-7.7032 0,-5.5351 2.383,-7.6328 7.848,-7.6328 5.879,0 8.051,2.0977 8.051,7.6328 z M 806.164,17.1602 c -2.945,-2.168 -3.922,-3.4297 -3.922,-6.1641 0,-4.83204 2.031,-6.58204 9.942,-6.58204 7.007,0 10.156,1.89063 10.156,6.51564 0,5.3203 -2.238,5.8828 -8.613,5.8828 -2.45,0 -7.563,0.3477 -7.563,0.3477 z m -9.105,-6.5821 c 0,4.0625 1.89,5.9492 5.531,8.6836 -1.262,0.8399 -1.957,2.6641 -1.957,4.8321 0,1.332 2.379,5.5351 2.379,5.5351 -2.942,1.3281 -5.535,4.1328 -5.535,10.5742 0,8.6172 5.324,11.9766 13.101,11.9766 3.5,0 7.281,-0.9102 7.281,-0.9102 l 10.368,0.2774 v -4.4805 l -6.653,0.1406 c 1.328,-1.332 2.309,-3.2929 2.309,-7.0039 0,-9.1054 -4.555,-11.8398 -13.52,-11.8398 -0.699,0 -2.66,0.1445 -3.425,0.2851 0,0 -1.266,-3.082 -1.266,-3.9961 0,-2.8007 0.562,-3.2226 8.476,-3.2226 9.946,0 13.516,-1.957 13.516,-10.293 C 827.664,3.22266 821.992,0 812.117,0 801.051,0 797.059,2.45313 797.059,10.5781" /><path
         id="path308"
         style="fill:#484b4c;fill-opacity:1;fill-rule:nonzero;stroke:none"
         d="m 835.086,51.4805 h 5.18 v -4.7617 c 0,0 6.093,4.1992 12.816,5.5312 V 46.9297 C 846.5,45.5977 840.34,42.1641 840.34,42.1641 V 16.4609 h -5.254 v 35.0196" /><path
         id="path310"
         style="fill:#484b4c;fill-opacity:1;fill-rule:nonzero;stroke:none"
         d="m 869.074,32.9219 c -4.273,-0.4219 -5.953,-2.4531 -5.953,-6.3047 0,-4.0625 1.754,-6.4453 5.324,-6.4453 5.184,0 10.996,2.1719 10.996,2.1719 v 11.5585 z m 15.621,-9.9492 c 0.141,-2.0313 1.821,-2.8008 4.063,-3.0782 l -0.211,-4.1328 c -3.711,0 -6.234,0.6992 -8.336,2.7969 0,0 -6.305,-2.7969 -12.606,-2.7969 -6.371,0 -9.875,3.6367 -9.875,10.7149 0,6.7226 3.504,9.6679 10.715,10.3632 l 10.996,1.0508 v 3.0117 c 0,4.9024 -2.101,6.6563 -6.304,6.6563 -4.903,0 -13.239,-0.9141 -13.239,-0.9141 l -0.207,3.9961 c 0,0 7.704,1.5391 13.731,1.5391 7.914,0 11.273,-3.6445 11.273,-11.2774 V 22.9727" /><path
         id="path312"
         style="fill:#484b4c;fill-opacity:1;fill-rule:nonzero;stroke:none"
         d="m 895.582,16.4609 v 35.0196 h 5.184 v -2.4532 c 0,0 5.254,3.1524 10.222,3.1524 4.692,0 7.285,-1.0508 9.106,-3.5703 0,0 6.234,3.5703 12.469,3.5703 9.523,0 11.835,-4.5508 11.835,-17.2266 V 16.4609 h -5.25 v 18.3477 c 0,9.2461 -1.054,12.6758 -7.359,12.6758 -5.18,0 -9.875,-2.586 -9.875,-2.586 0.633,-1.6132 0.91,-6.0273 0.91,-10.2304 V 16.4609 h -5.25 v 18.0704 c 0,9.664 -0.98,12.9531 -7.351,12.9531 -4.977,0 -9.387,-2.586 -9.387,-2.586 V 16.4609 h -5.254" /><path
         id="path314"
         style="fill:#484b4c;fill-opacity:1;fill-rule:nonzero;stroke:none"
         d="m 954.008,16.4609 v 35.0196 h 5.18 v -2.4532 c 0,0 5.253,3.1524 10.222,3.1524 4.695,0 7.285,-1.0508 9.11,-3.5703 0,0 6.234,3.5703 12.464,3.5703 9.526,0 11.836,-4.5508 11.836,-17.2266 V 16.4609 h -5.25 v 18.3477 c 0,9.2461 -1.054,12.6758 -7.359,12.6758 -5.18,0 -9.871,-2.586 -9.871,-2.586 0.629,-1.6132 0.906,-6.0273 0.906,-10.2304 V 16.4609 h -5.25 v 18.0704 c 0,9.664 -0.98,12.9531 -7.351,12.9531 -4.977,0 -9.383,-2.586 -9.383,-2.586 V 16.4609 h -5.254" /><path
         id="path316"
         style="fill:#484b4c;fill-opacity:1;fill-rule:nonzero;stroke:none"
         d="m 1034.45,36 c 0,8.6875 -2.67,11.7695 -8.83,11.7695 -5.95,0 -9.31,-3.2968 -9.38,-11.7695 z m 3.92,-14.9883 0.14,-4.1328 c 0,0 -7.99,-1.1172 -13.66,-1.1172 -10.43,0 -13.87,6.0899 -13.87,18 0,13.3047 5.75,18.418 14.64,18.418 9.32,0 14.08,-4.9024 14.08,-16.3906 l -0.28,-3.9922 h -23.11 c 0,-7.4883 2.31,-11.4141 9.17,-11.4141 5.25,0 12.89,0.6289 12.89,0.6289" /><path
         id="path318"
         style="fill:#484b4c;fill-opacity:1;fill-rule:nonzero;stroke:none"
         d="m 1067.2,16.4609 h -5.25 v 30.4688 h -4.42 v 4.5508 h 4.42 v 3.1484 c 0,10.0899 2.59,12.8164 9.45,12.8164 2.38,0 7.07,-0.4883 7.07,-0.4883 l -0.06,-4.3398 c 0,0 -3.93,0.1367 -6.03,0.1367 -3.92,0 -5.18,-1.6797 -5.18,-8.1914 v -3.082 h 10.16 V 46.9297 H 1067.2 V 16.4609" /><path
         id="path320"
         style="fill:#484b4c;fill-opacity:1;fill-rule:nonzero;stroke:none"
         d="m 1106.97,34.3906 c 0,9.7344 -2.1,13.2383 -9.59,13.2383 -7.43,0 -9.6,-3.5039 -9.6,-13.2383 0,-9.9453 1.33,-14.0781 9.6,-14.0781 8.33,0 9.59,4.1328 9.59,14.0781 z m 5.39,0 c 0,-12.75 -3.15,-18.6289 -14.98,-18.6289 -11.77,0 -14.99,5.8789 -14.99,18.6289 0,12.0469 3.92,17.7891 14.99,17.7891 11.13,0 14.98,-5.7422 14.98,-17.7891" /><path
         id="path322"
         style="fill:#484b4c;fill-opacity:1;fill-rule:nonzero;stroke:none"
         d="m 1120.89,51.4805 h 5.18 v -4.7617 c 0,0 6.09,4.1992 12.81,5.5312 v -5.3203 c -6.58,-1.332 -12.74,-4.7656 -12.74,-4.7656 V 16.4609 h -5.25 v 35.0196" /><path
         id="path324"
         style="fill:#484b4c;fill-opacity:1;fill-rule:nonzero;stroke:none"
         d="m 1176.54,60.1641 h -12.53 V 39.7813 h 12.6 c 7.28,0 9.88,4.3437 9.88,10.4375 0,6.6523 -3.15,9.9453 -9.95,9.9453 z M 1164.01,35.0195 V 16.4609 h -5.4 v 48.4649 h 17.93 c 10.16,0 15.48,-4.4805 15.48,-14.707 0,-7.1407 -2.8,-12.1172 -8.89,-14.0743 l 9.31,-19.6836 h -5.95 l -8.76,18.5586 h -13.72" /><path
         id="path326"
         style="fill:#484b4c;fill-opacity:1;fill-rule:nonzero;stroke:none"
         d="m 1222.21,36 c 0,8.6875 -2.66,11.7695 -8.82,11.7695 -5.96,0 -9.32,-3.2968 -9.39,-11.7695 z m 3.93,-14.9883 0.13,-4.1328 c 0,0 -7.98,-1.1172 -13.66,-1.1172 -10.43,0 -13.86,6.0899 -13.86,18 0,13.3047 5.74,18.418 14.64,18.418 9.31,0 14.07,-4.9024 14.07,-16.3906 l -0.28,-3.9922 h -23.11 c 0,-7.4883 2.31,-11.4141 9.17,-11.4141 5.26,0 12.9,0.6289 12.9,0.6289" /><path
         id="path328"
         style="fill:#484b4c;fill-opacity:1;fill-rule:nonzero;stroke:none"
         d="m 1259.34,46.3672 c 0,0 -7.78,1.1172 -12.26,1.1172 -4.34,0 -7.63,-1.1914 -7.63,-5.3203 0,-3.293 1.68,-4.1993 9.1,-5.4649 8.76,-1.4687 12.05,-3.2187 12.05,-10.0156 0,-8.1914 -5.18,-10.9219 -13.59,-10.9219 -4.48,0 -12.33,1.3281 -12.33,1.3281 l 0.28,4.5508 c 0,0 7.99,-1.1875 11.56,-1.1875 5.74,0 8.82,1.2617 8.82,6.0235 0,3.6406 -1.82,4.5507 -9.45,5.7422 -7.91,1.2617 -11.7,2.7343 -11.7,9.7343 0,7.7071 6.24,10.2266 12.61,10.2266 5.25,0 12.68,-1.3281 12.68,-1.3281 l -0.14,-4.4844" /><path
         id="path330"
         style="fill:#484b4c;fill-opacity:1;fill-rule:nonzero;stroke:none"
         d="m 1290.87,36 c 0,8.6875 -2.66,11.7695 -8.83,11.7695 -5.95,0 -9.31,-3.2968 -9.38,-11.7695 z m 3.92,-14.9883 0.14,-4.1328 c 0,0 -7.98,-1.1172 -13.66,-1.1172 -10.43,0 -13.87,6.0899 -13.87,18 0,13.3047 5.75,18.418 14.64,18.418 9.32,0 14.08,-4.9024 14.08,-16.3906 l -0.28,-3.9922 h -23.11 c 0,-7.4883 2.31,-11.4141 9.17,-11.4141 5.26,0 12.89,0.6289 12.89,0.6289" /><path
         id="path332"
         style="fill:#484b4c;fill-opacity:1;fill-rule:nonzero;stroke:none"
         d="m 1313.62,32.9219 c -4.27,-0.4219 -5.95,-2.4531 -5.95,-6.3047 0,-4.0625 1.75,-6.4453 5.32,-6.4453 5.19,0 11,2.1719 11,2.1719 v 11.5585 z m 15.62,-9.9492 c 0.14,-2.0313 1.83,-2.8008 4.06,-3.0782 l -0.2,-4.1328 c -3.72,0 -6.24,0.6992 -8.34,2.7969 0,0 -6.3,-2.7969 -12.61,-2.7969 -6.37,0 -9.87,3.6367 -9.87,10.7149 0,6.7226 3.5,9.6679 10.71,10.3632 l 11,1.0508 v 3.0117 c 0,4.9024 -2.1,6.6563 -6.3,6.6563 -4.91,0 -13.24,-0.9141 -13.24,-0.9141 l -0.21,3.9961 c 0,0 7.7,1.5391 13.72,1.5391 7.92,0 11.28,-3.6445 11.28,-11.2774 V 22.9727" /><path
         id="path334"
         style="fill:#484b4c;fill-opacity:1;fill-rule:nonzero;stroke:none"
         d="m 1340.12,51.4805 h 5.19 v -4.7617 c 0,0 6.09,4.1992 12.82,5.5312 v -5.3203 c -6.59,-1.332 -12.76,-4.7656 -12.76,-4.7656 V 16.4609 h -5.25 v 35.0196" /><path
         id="path336"
         style="fill:#484b4c;fill-opacity:1;fill-rule:nonzero;stroke:none"
         d="m 1387.35,51.1289 -0.22,-4.2734 c 0,0 -5.59,0.6289 -8.26,0.6289 -8.06,0 -10.23,-3.5 -10.23,-12.8828 0,-10.3672 1.62,-14.1485 10.3,-14.1485 2.66,0 8.27,0.6328 8.27,0.6328 l 0.2,-4.3476 c 0,0 -6.51,-0.9766 -9.73,-0.9766 -11.13,0 -14.43,5.1133 -14.43,18.8399 0,12.6757 4.14,17.5781 14.57,17.5781 3.22,0 9.53,-1.0508 9.53,-1.0508" /><path
         id="path338"
         style="fill:#484b4c;fill-opacity:1;fill-rule:nonzero;stroke:none"
         d="m 1395.03,16.4609 v 50.2852 h 5.26 V 49.5156 c 0,0 5.6,2.6641 10.79,2.6641 9.59,0 11.83,-4.7617 11.83,-17.2266 V 16.4609 h -5.25 v 18.3477 c 0,9.2461 -1.06,12.6758 -7.49,12.6758 -4.98,0 -9.88,-2.0977 -9.88,-2.0977 V 16.4609 h -5.26" /><path
         id="path340"
         style="fill:#484b4c;fill-opacity:1;fill-rule:nonzero;stroke:none"
         d="m 1454.33,32.9219 c -4.28,-0.4219 -5.96,-2.4531 -5.96,-6.3047 0,-4.0625 1.75,-6.4453 5.32,-6.4453 5.19,0 11,2.1719 11,2.1719 v 11.5585 z m 15.61,-9.9492 c 0.14,-2.0313 1.83,-2.8008 4.07,-3.0782 l -0.21,-4.1328 c -3.72,0 -6.24,0.6992 -8.34,2.7969 0,0 -6.3,-2.7969 -12.61,-2.7969 -6.37,0 -9.87,3.6367 -9.87,10.7149 0,6.7226 3.5,9.6679 10.71,10.3632 l 11,1.0508 v 3.0117 c 0,4.9024 -2.1,6.6563 -6.3,6.6563 -4.9,0 -13.24,-0.9141 -13.24,-0.9141 l -0.21,3.9961 c 0,0 7.71,1.5391 13.72,1.5391 7.92,0 11.28,-3.6445 11.28,-11.2774 V 22.9727" /><path
         id="path342"
         style="fill:#484b4c;fill-opacity:1;fill-rule:nonzero;stroke:none"
         d="m 1480.82,16.4609 v 35.0196 h 5.19 v -2.4532 c 0,0 5.67,3.1524 10.86,3.1524 9.66,0 11.83,-4.7617 11.83,-17.2266 V 16.4609 h -5.18 v 18.3477 c 0,9.2461 -1.06,12.6758 -7.57,12.6758 -5.04,0 -9.87,-2.586 -9.87,-2.586 V 16.4609 h -5.26" /><path
         id="path344"
         style="fill:#484b4c;fill-opacity:1;fill-rule:nonzero;stroke:none"
         d="m 1540.19,23.043 v 23.7461 c -1.13,0.207 -5.47,0.8398 -8.34,0.8398 -7.36,0 -9.52,-4.8359 -9.52,-13.9375 0,-11.3476 3.71,-13.2383 7.84,-13.2383 4.97,0 10.02,2.5899 10.02,2.5899 z m 5.17,-6.5821 h -5.17 v 2.3829 c 0,0 -5.4,-3.0821 -10.65,-3.0821 -6.86,0 -12.6,2.7969 -12.6,17.9297 0,12.3242 3.98,18.4883 14.63,18.4883 3.01,0 7.56,-0.6992 8.62,-0.9102 v 15.4766 h 5.17 V 16.4609" /><path
         id="path346"
         style="fill:#484b4c;fill-opacity:1;fill-rule:nonzero;stroke:none"
         d="m 1569.02,64.9258 h 5.39 V 16.4609 h -5.39 v 48.4649" /><path
         id="path348"
         style="fill:#484b4c;fill-opacity:1;fill-rule:nonzero;stroke:none"
         d="m 1584.98,16.4609 v 35.0196 h 5.19 v -2.4532 c 0,0 5.67,3.1524 10.86,3.1524 9.66,0 11.83,-4.7617 11.83,-17.2266 V 16.4609 h -5.18 v 18.3477 c 0,9.2461 -1.06,12.6758 -7.57,12.6758 -5.04,0 -9.87,-2.586 -9.87,-2.586 V 16.4609 h -5.26" /><path
         id="path350"
         style="fill:#484b4c;fill-opacity:1;fill-rule:nonzero;stroke:none"
         d="m 1622.4,16.4609 v 35.0196 h 5.19 v -2.4532 c 0,0 5.67,3.1524 10.86,3.1524 9.66,0 11.84,-4.7617 11.84,-17.2266 V 16.4609 h -5.19 v 18.3477 c 0,9.2461 -1.05,12.6758 -7.57,12.6758 -5.04,0 -9.87,-2.586 -9.87,-2.586 V 16.4609 h -5.26" /><path
         id="path352"
         style="fill:#484b4c;fill-opacity:1;fill-rule:nonzero;stroke:none"
         d="m 1683.1,34.3906 c 0,9.7344 -2.1,13.2383 -9.6,13.2383 -7.42,0 -9.59,-3.5039 -9.59,-13.2383 0,-9.9453 1.33,-14.0781 9.59,-14.0781 8.34,0 9.6,4.1328 9.6,14.0781 z m 5.39,0 c 0,-12.75 -3.16,-18.6289 -14.99,-18.6289 -11.77,0 -14.98,5.8789 -14.98,18.6289 0,12.0469 3.91,17.7891 14.98,17.7891 11.14,0 14.99,-5.7422 14.99,-17.7891" /><path
         id="path354"
         style="fill:#484b4c;fill-opacity:1;fill-rule:nonzero;stroke:none"
         d="m 1698.98,51.4805 8.19,-30.4688 h 2.6 l 8.46,30.4688 h 5.41 l -9.89,-35.0196 h -10.5 l -9.88,35.0196 h 5.61" /><path
         id="path356"
         style="fill:#484b4c;fill-opacity:1;fill-rule:nonzero;stroke:none"
         d="m 1739.91,32.9219 c -4.27,-0.4219 -5.95,-2.4531 -5.95,-6.3047 0,-4.0625 1.75,-6.4453 5.32,-6.4453 5.19,0 11,2.1719 11,2.1719 v 11.5585 z m 15.62,-9.9492 c 0.14,-2.0313 1.83,-2.8008 4.06,-3.0782 l -0.2,-4.1328 c -3.72,0 -6.24,0.6992 -8.34,2.7969 0,0 -6.3,-2.7969 -12.61,-2.7969 -6.38,0 -9.87,3.6367 -9.87,10.7149 0,6.7226 3.49,9.6679 10.71,10.3632 l 11,1.0508 v 3.0117 c 0,4.9024 -2.1,6.6563 -6.3,6.6563 -4.91,0 -13.25,-0.9141 -13.25,-0.9141 l -0.2,3.9961 c 0,0 7.7,1.5391 13.72,1.5391 7.92,0 11.28,-3.6445 11.28,-11.2774 V 22.9727" /><path
         id="path358"
         style="fill:#484b4c;fill-opacity:1;fill-rule:nonzero;stroke:none"
         d="M 1772.72,46.9297 V 30.1875 c 0,-7.6328 0.49,-9.8047 5.04,-9.8047 1.96,0 6.23,0.418 6.23,0.418 l 0.35,-4.3399 c 0,0 -4.69,-0.7734 -7.14,-0.7734 -7.22,0 -9.67,2.7344 -9.67,12.8203 v 18.4219 h -4.97 v 4.5508 h 4.97 v 10.7109 h 5.19 V 51.4805 h 11.13 v -4.5508 h -11.13" /><path
         id="path360"
         style="fill:#484b4c;fill-opacity:1;fill-rule:nonzero;stroke:none"
         d="m 1790.95,51.4805 h 5.25 V 16.4609 h -5.25 z m 0,14.0078 h 5.25 v -6.0938 h -5.25 v 6.0938" /><path
         id="path362"
         style="fill:#484b4c;fill-opacity:1;fill-rule:nonzero;stroke:none"
         d="m 1829.33,34.3906 c 0,9.7344 -2.1,13.2383 -9.6,13.2383 -7.42,0 -9.59,-3.5039 -9.59,-13.2383 0,-9.9453 1.33,-14.0781 9.59,-14.0781 8.34,0 9.6,4.1328 9.6,14.0781 z m 5.39,0 c 0,-12.75 -3.16,-18.6289 -14.99,-18.6289 -11.77,0 -14.98,5.8789 -14.98,18.6289 0,12.0469 3.91,17.7891 14.98,17.7891 11.14,0 14.99,-5.7422 14.99,-17.7891" /><path
         id="path364"
         style="fill:#484b4c;fill-opacity:1;fill-rule:nonzero;stroke:none"
         d="m 1843.24,16.4609 v 35.0196 h 5.19 v -2.4532 c 0,0 5.67,3.1524 10.86,3.1524 9.66,0 11.84,-4.7617 11.84,-17.2266 V 16.4609 h -5.19 v 18.3477 c 0,9.2461 -1.05,12.6758 -7.57,12.6758 -5.04,0 -9.87,-2.586 -9.87,-2.586 V 16.4609 h -5.26" /><path
         id="path366"
         style="fill:#ffffff;fill-opacity:1;fill-rule:nonzero;stroke:none"
         d="M 0.00390625,4.93359 H 312.758 V 217.367 H 0.00390625 V 4.93359" /><path
         id="path368"
         style="fill:#244c9c;fill-opacity:1;fill-rule:nonzero;stroke:none"
         d="M 6.02734,11.0508 H 306.746 V 211.539 H 6.02734 V 11.0508" /><path
         id="path370"
         style="fill:#f3f023;fill-opacity:1;fill-rule:nonzero;stroke:none"
         d="m 149.973,167.863 6.343,4.633 6.352,-4.633 -2.41,7.492 6.441,4.629 h -7.941 l -2.442,7.575 -2.433,-7.586 -7.942,0.011 6.446,-4.629 -2.414,-7.492" /><path
         id="path372"
         style="fill:#f3f023;fill-opacity:1;fill-rule:nonzero;stroke:none"
         d="m 117.137,159.039 6.336,4.629 6.343,-4.629 -2.398,7.496 6.434,4.629 h -7.946 l -2.433,7.586 -2.426,-7.602 -7.945,0.016 6.445,-4.629 -2.41,-7.496" /><path
         id="path374"
         style="fill:#f3f023;fill-opacity:1;fill-rule:nonzero;stroke:none"
         d="m 99.4492,154.664 -2.4258,-7.598 -7.9453,0.016 6.4453,-4.637 -2.4101,-7.492 6.3359,4.633 6.3438,-4.633 -2.41,7.492 6.441,4.637 h -7.941 l -2.4338,7.582" /><path
         id="path376"
         style="fill:#f3f023;fill-opacity:1;fill-rule:nonzero;stroke:none"
         d="m 90.6367,106.789 6.3438,-4.629 -2.4141,7.492 6.4456,4.629 h -7.9417 l -2.4336,7.59 -2.4258,-7.601 -7.9453,0.011 6.4453,-4.629 -2.4101,-7.492 6.3359,4.629" /><path
         id="path378"
         style="fill:#f3f023;fill-opacity:1;fill-rule:nonzero;stroke:none"
         d="m 101.883,81.3828 -2.426,7.582 -2.4297,-7.5976 -7.9414,0.0156 6.4454,-4.6367 -2.4336,-7.4883 6.3593,4.6445 6.336,-4.6445 -2.41,7.4883 6.441,4.6367 h -7.941" /><path
         id="path380"
         style="fill:#f3f023;fill-opacity:1;fill-rule:nonzero;stroke:none"
         d="m 125.961,57.3086 -2.434,7.5859 -2.425,-7.5976 -7.946,0.0117 6.446,-4.6328 -2.411,-7.4961 6.336,4.6367 6.344,-4.6367 -2.418,7.4961 6.449,4.6328 h -7.941" /><path
         id="path382"
         style="fill:#f3f023;fill-opacity:1;fill-rule:nonzero;stroke:none"
         d="m 158.758,48.5859 -2.434,7.5821 -2.426,-7.5977 -7.945,0.0156 6.445,-4.6328 -2.41,-7.4922 6.336,4.6289 6.344,-4.6289 -2.41,7.4922 6.441,4.6328 h -7.941" /><path
         id="path384"
         style="fill:#f3f023;fill-opacity:1;fill-rule:nonzero;stroke:none"
         d="m 191.555,57.3086 -2.434,7.5859 -2.426,-7.5976 -7.941,0.0117 6.445,-4.6328 -2.414,-7.4961 6.336,4.6367 6.344,-4.6367 -2.414,7.4961 6.441,4.6328 h -7.937" /><path
         id="path386"
         style="fill:#f3f023;fill-opacity:1;fill-rule:nonzero;stroke:none"
         d="m 215.633,81.3828 -2.43,7.582 -2.437,-7.5976 -7.93,0.0156 6.445,-4.6367 -2.433,-7.4883 6.355,4.6445 6.34,-4.6445 -2.426,7.4883 6.446,4.6367 h -7.93" /><path
         id="path388"
         style="fill:#f3f023;fill-opacity:1;fill-rule:nonzero;stroke:none"
         d="m 232.293,114.371 h -7.945 l -2.442,7.582 -2.414,-7.598 -7.941,0.016 6.445,-4.633 -2.414,-7.496 6.324,4.649 6.36,-4.649 -2.418,7.496 6.445,4.633" /><path
         id="path390"
         style="fill:#f3f023;fill-opacity:1;fill-rule:nonzero;stroke:none"
         d="m 206.852,135.055 6.343,4.633 6.352,-4.633 -2.426,7.496 6.445,4.617 h -7.929 l -2.442,7.582 -2.429,-7.598 -7.946,0.016 6.446,-4.617 -2.414,-7.496" /><path
         id="path392"
         style="fill:#f3f023;fill-opacity:1;fill-rule:nonzero;stroke:none"
         d="m 189.215,178.734 -2.426,-7.597 -7.945,0.015 6.433,-4.629 -2.406,-7.496 6.359,4.645 6.325,-4.645 -2.399,7.496 6.446,4.629 h -7.957 l -2.43,7.582" /></g></g></svg>