<svg xmlns="http://www.w3.org/2000/svg" viewBox="0 0 1406.95 225.7"><defs><style>.cls-1{fill:#575756;}.cls-2{fill:#fff;}.cls-3,.cls-5{fill:#164194;}.cls-4{fill:#ffed00;}.cls-5,.cls-6{fill-rule:evenodd;}.cls-6{fill:#6db22d;}</style></defs><g id="Layer_2" data-name="Layer 2"><g id="Layer_1-2" data-name="Layer 1"><path class="cls-1" d="M780.06,121.6h8v1.1h-3.38v10h-1.22v-10h-3.41Z"/><path class="cls-1" d="M789.42,132.67V121.18h1.2v3.94a6.82,6.82,0,0,1,2.47-.61c2.19,0,2.7,1.09,2.7,3.94v4.22h-1.2v-4.19c0-2.11-.24-2.9-1.71-2.9a6.66,6.66,0,0,0-2.26.48v6.61Z"/><path class="cls-1" d="M798,121.47h1.2v1.39H798Zm0,3.2h1.2v8H798Z"/><path class="cls-1" d="M806.83,125.84a25.63,25.63,0,0,0-2.8-.26c-1,0-1.74.27-1.74,1.22,0,.75.38,1,2.08,1.25,2,.33,2.75.73,2.75,2.29,0,1.87-1.18,2.49-3.1,2.49a22.82,22.82,0,0,1-2.82-.3l.06-1s1.83.27,2.65.27c1.31,0,2-.29,2-1.38,0-.83-.41-1-2.16-1.31s-2.67-.62-2.67-2.22c0-1.76,1.42-2.34,2.88-2.34a20.81,20.81,0,0,1,2.9.3Z"/><path class="cls-1" d="M818.13,131.19c0,.46.42.64.93.7l0,.94a2.43,2.43,0,0,1-1.9-.64,8.19,8.19,0,0,1-2.89.64c-1.45,0-2.25-.83-2.25-2.45s.8-2.2,2.45-2.36l2.51-.24v-.69c0-1.12-.48-1.52-1.44-1.52-1.12,0-3,.2-3,.2l0-.91a19.47,19.47,0,0,1,3.13-.35c1.81,0,2.58.83,2.58,2.58Zm-3.57-2.28c-1,.1-1.36.56-1.36,1.44s.4,1.48,1.22,1.48a8.44,8.44,0,0,0,2.51-.5v-2.64Z"/><path class="cls-1" d="M825.67,124.75l0,1s-1.28-.15-1.89-.15c-1.84,0-2.34.8-2.34,3,0,2.37.37,3.23,2.36,3.23.6,0,1.88-.14,1.88-.14l0,1a21.68,21.68,0,0,1-2.22.22c-2.55,0-3.3-1.16-3.3-4.3,0-2.9.94-4,3.33-4A18.85,18.85,0,0,1,825.67,124.75Z"/><path class="cls-1" d="M829.07,125.71v3.83c0,1.74.11,2.24,1.15,2.24.45,0,1.43-.1,1.43-.1l.08,1a13.65,13.65,0,0,1-1.63.18c-1.65,0-2.21-.62-2.21-2.93v-4.21h-1.14v-1h1.14v-2.45h1.18v2.45h2.55v1Z"/><path class="cls-1" d="M833.09,121.47h1.2v1.39h-1.2Zm0,3.2h1.2v8h-1.2Z"/><path class="cls-1" d="M837.12,124.67l1.87,7h.59l1.94-7h1.23l-2.25,8h-2.4l-2.26-8Z"/><path class="cls-1" d="M844.29,121.47h1.2v1.39h-1.2Zm0,3.2h1.2v8h-1.2Z"/><path class="cls-1" d="M849.39,125.71v3.83c0,1.74.11,2.24,1.15,2.24.45,0,1.43-.1,1.43-.1l.08,1a13.65,13.65,0,0,1-1.63.18c-1.65,0-2.21-.62-2.21-2.93v-4.21h-1.14v-1h1.14v-2.45h1.18v2.45h2.55v1Z"/><path class="cls-1" d="M853.86,124.67l2,7h.52l2-7h1.2l-3.33,11.56h-1.2l1-3.56h-1.18l-2.28-8Z"/><path class="cls-1" d="M864.65,132.67V121.18h1.2v3.94a6.75,6.75,0,0,1,2.47-.61c2.19,0,2.71,1.09,2.71,3.94v4.22h-1.21v-4.19c0-2.11-.24-2.9-1.71-2.9a6.59,6.59,0,0,0-2.26.48v6.61Z"/><path class="cls-1" d="M878.9,131.19c0,.46.41.64.92.7l0,.94a2.46,2.46,0,0,1-1.91-.64,8.18,8.18,0,0,1-2.88.64c-1.46,0-2.26-.83-2.26-2.45s.8-2.2,2.45-2.36l2.52-.24v-.69c0-1.12-.49-1.52-1.44-1.52-1.13,0-3,.2-3,.2l-.05-.91a19.49,19.49,0,0,1,3.14-.35c1.81,0,2.58.83,2.58,2.58Zm-3.57-2.28c-1,.1-1.36.56-1.36,1.44s.4,1.48,1.21,1.48a8.45,8.45,0,0,0,2.52-.5v-2.64Z"/><path class="cls-1" d="M886.58,125.84a25.92,25.92,0,0,0-2.81-.26c-1,0-1.74.27-1.74,1.22,0,.75.38,1,2.08,1.25,2,.33,2.75.73,2.75,2.29,0,1.87-1.18,2.49-3.1,2.49a22.82,22.82,0,0,1-2.82-.3l.07-1s1.82.27,2.64.27c1.31,0,2-.29,2-1.38,0-.83-.41-1-2.16-1.31s-2.67-.62-2.67-2.22c0-1.76,1.42-2.34,2.88-2.34a20.81,20.81,0,0,1,2.9.3Z"/><path class="cls-1" d="M892.22,124.67h1.18v1.09a9.22,9.22,0,0,1,2.93-1.27v1.22a11.88,11.88,0,0,0-2.91,1.09v5.87h-1.2Z"/><path class="cls-1" d="M903.5,131.63l0,1a28.73,28.73,0,0,1-3.13.25c-2.38,0-3.17-1.39-3.17-4.11,0-3,1.32-4.21,3.35-4.21s3.22,1.12,3.22,3.75l-.07.91h-5.28c0,1.71.53,2.61,2.1,2.61C901.76,131.78,903.5,131.63,903.5,131.63Zm-.89-3.42c0-2-.61-2.69-2-2.69s-2.13.75-2.14,2.69Z"/><path class="cls-1" d="M910.85,124.75l-.05,1s-1.28-.15-1.89-.15c-1.84,0-2.34.8-2.34,3,0,2.37.37,3.23,2.36,3.23.6,0,1.88-.14,1.88-.14l.05,1a21.68,21.68,0,0,1-2.22.22c-2.55,0-3.3-1.16-3.3-4.3,0-2.9.95-4,3.33-4A18.56,18.56,0,0,1,910.85,124.75Z"/><path class="cls-1" d="M918.46,131.63l0,1a28.44,28.44,0,0,1-3.12.25c-2.38,0-3.16-1.39-3.16-4.11,0-3,1.31-4.21,3.34-4.21s3.22,1.12,3.22,3.75l-.07.91h-5.28c0,1.71.53,2.61,2.1,2.61C916.72,131.78,918.46,131.63,918.46,131.63Zm-.89-3.42c0-2-.61-2.69-2-2.69s-2.13.75-2.15,2.69Z"/><path class="cls-1" d="M920.64,121.47h1.2v1.39h-1.2Zm0,3.2h1.2v8h-1.2Z"/><path class="cls-1" d="M924.67,124.67l1.87,7h.59l1.94-7h1.23l-2.26,8h-2.4l-2.25-8Z"/><path class="cls-1" d="M937.6,131.63l0,1a28.44,28.44,0,0,1-3.12.25c-2.39,0-3.17-1.39-3.17-4.11,0-3,1.31-4.21,3.35-4.21s3.21,1.12,3.21,3.75l-.06.91h-5.28c0,1.71.52,2.61,2.09,2.61C935.85,131.78,937.6,131.63,937.6,131.63Zm-.9-3.42c0-2-.61-2.69-2-2.69s-2.13.75-2.15,2.69Z"/><path class="cls-1" d="M945.92,132.67h-1.19v-.54a5.75,5.75,0,0,1-2.43.7c-1.57,0-2.88-.64-2.88-4.09,0-2.82.91-4.23,3.35-4.23a13.07,13.07,0,0,1,2,.21v-3.54h1.19Zm-1.19-1.5v-5.43a13.1,13.1,0,0,0-1.9-.19c-1.68,0-2.18,1.11-2.18,3.19,0,2.59.85,3,1.8,3A5.81,5.81,0,0,0,944.73,131.17Z"/><path class="cls-1" d="M953.29,132.67h-1.2v-7h-1v-1h1V124c0-2.3.59-2.93,2.16-2.93.55,0,1.62.11,1.62.11l0,1s-.89,0-1.37,0c-.9,0-1.19.39-1.19,1.88v.7h2.32v1h-2.32Z"/><path class="cls-1" d="M963.25,124.67v8H962v-.56a5.34,5.34,0,0,1-2.36.72c-2.24,0-2.71-1-2.71-4v-4.18h1.2v4.16c0,2.21.19,2.93,1.68,2.93a4.82,4.82,0,0,0,2.19-.59v-6.5Z"/><path class="cls-1" d="M965.55,132.67v-8h1.18v.56a6.1,6.1,0,0,1,2.48-.72c2.21,0,2.71,1.09,2.71,3.94v4.22h-1.19v-4.19c0-2.11-.24-2.9-1.72-2.9a5.4,5.4,0,0,0-2.26.6v6.49Z"/><path class="cls-1" d="M980.29,132.67H979.1v-.54a5.75,5.75,0,0,1-2.43.7c-1.57,0-2.88-.64-2.88-4.09,0-2.82.91-4.23,3.34-4.23a13.07,13.07,0,0,1,2,.21v-3.54h1.19Zm-1.19-1.5v-5.43a13.27,13.27,0,0,0-1.9-.19c-1.68,0-2.18,1.11-2.18,3.19,0,2.59.85,3,1.79,3A5.82,5.82,0,0,0,979.1,131.17Z"/><path class="cls-1" d="M982.6,121.47h1.2v1.39h-1.2Zm0,3.2h1.2v8h-1.2Z"/><path class="cls-1" d="M986.11,132.67v-8h1.18v.56a6.1,6.1,0,0,1,2.48-.72c2.21,0,2.71,1.09,2.71,3.94v4.22h-1.19v-4.19c0-2.11-.24-2.9-1.73-2.9a5.39,5.39,0,0,0-2.25.6v6.49Z"/><path class="cls-1" d="M994.35,134c0-.93.43-1.36,1.26-2a1.28,1.28,0,0,1-.45-1.1,5.08,5.08,0,0,1,.55-1.27,2.32,2.32,0,0,1-1.27-2.41c0-2,1.22-2.74,3-2.74a8.14,8.14,0,0,1,1.66.21l2.37-.07v1l-1.52,0a2.09,2.09,0,0,1,.53,1.6c0,2.08-1,2.7-3.09,2.7a7.37,7.37,0,0,1-.79-.06,4.78,4.78,0,0,0-.28.91c0,.64.12.74,1.93.74,2.28,0,3.09.45,3.09,2.35s-1.3,2.55-3.55,2.55C995.26,136.44,994.35,135.88,994.35,134Zm2.08-1.51c-.67.5-.9.79-.9,1.41,0,1.11.47,1.51,2.27,1.51,1.6,0,2.32-.44,2.32-1.49,0-1.22-.51-1.35-2-1.35C997.6,132.59,996.43,132.51,996.43,132.51Zm2.85-5.26c0-1.27-.5-1.76-1.84-1.76s-1.8.49-1.8,1.76.55,1.74,1.8,1.74S999.28,128.51,999.28,127.25Z"/><path class="cls-1" d="M1008,132.67h-1.2v-7h-1v-1h1V124c0-2.3.59-2.93,2.16-2.93.54,0,1.62.11,1.62.11l0,1s-.9,0-1.38,0c-.89,0-1.18.39-1.18,1.88v.7h2.32v1H1008Z"/><path class="cls-1" d="M1011.74,124.67h1.18v1.09a9.09,9.09,0,0,1,2.93-1.27v1.22a11.88,11.88,0,0,0-2.91,1.09v5.87h-1.2Z"/><path class="cls-1" d="M1023.61,128.58c0,2.91-.72,4.25-3.42,4.25s-3.43-1.34-3.43-4.25.9-4.07,3.43-4.07S1023.61,125.82,1023.61,128.58Zm-1.23,0c0-2.23-.48-3-2.19-3s-2.2.8-2.2,3,.31,3.21,2.2,3.21S1022.38,130.85,1022.38,128.58Z"/><path class="cls-1" d="M1025.56,132.67v-8h1.19v.56a5.36,5.36,0,0,1,2.33-.72,2.23,2.23,0,0,1,2.08.82,6.67,6.67,0,0,1,2.85-.82c2.18,0,2.71,1,2.71,3.94v4.22h-1.2v-4.19c0-2.11-.24-2.9-1.68-2.9a5.23,5.23,0,0,0-2.26.6,9.15,9.15,0,0,1,.21,2.33v4.16h-1.2v-4.13c0-2.2-.23-3-1.68-3a4.76,4.76,0,0,0-2.15.6v6.49Z"/><path class="cls-1" d="M1044.06,125.71v3.83c0,1.74.11,2.24,1.15,2.24.45,0,1.42-.1,1.42-.1l.08,1a13.65,13.65,0,0,1-1.63.18c-1.65,0-2.21-.62-2.21-2.93v-4.21h-1.13v-1h1.13v-2.45h1.19v2.45h2.54v1Z"/><path class="cls-1" d="M1048.07,132.67V121.18h1.2v3.94a6.75,6.75,0,0,1,2.47-.61c2.19,0,2.71,1.09,2.71,3.94v4.22h-1.21v-4.19c0-2.11-.24-2.9-1.71-2.9a6.59,6.59,0,0,0-2.26.48v6.61Z"/><path class="cls-1" d="M1062.57,131.63l0,1a28.44,28.44,0,0,1-3.12.25c-2.38,0-3.17-1.39-3.17-4.11,0-3,1.32-4.21,3.35-4.21s3.22,1.12,3.22,3.75l-.07.91h-5.28c0,1.71.53,2.61,2.1,2.61C1060.83,131.78,1062.57,131.63,1062.57,131.63Zm-.89-3.42c0-2-.61-2.69-2-2.69s-2.13.75-2.15,2.69Z"/><path class="cls-1" d="M1068.47,121.6h6.74v1.09h-5.5v3.82h4.54v1.07h-4.54v4h5.5v1.08h-6.74Z"/><path class="cls-1" d="M1083.18,124.67v8H1082v-.56a5.4,5.4,0,0,1-2.37.72c-2.24,0-2.71-1-2.71-4v-4.18h1.21v4.16c0,2.21.19,2.93,1.68,2.93a4.87,4.87,0,0,0,2.19-.59v-6.5Z"/><path class="cls-1" d="M1085.48,124.67h1.19v1.09a9.09,9.09,0,0,1,2.93-1.27v1.22a11.85,11.85,0,0,0-2.92,1.09v5.87h-1.2Z"/><path class="cls-1" d="M1097.36,128.58c0,2.91-.73,4.25-3.43,4.25s-3.42-1.34-3.42-4.25.89-4.07,3.42-4.07S1097.36,125.82,1097.36,128.58Zm-1.24,0c0-2.23-.48-3-2.19-3s-2.19.8-2.19,3,.3,3.21,2.19,3.21S1096.12,130.85,1096.12,128.58Z"/><path class="cls-1" d="M1099.3,124.67h1.19v.58a5.44,5.44,0,0,1,2.4-.74c2,0,2.9,1.23,2.9,4.07,0,3.13-1,4.25-3.49,4.25a10.3,10.3,0,0,1-1.79-.17v3.57h-1.21Zm1.21,1.55v5.4a12.39,12.39,0,0,0,1.72.17c1.77,0,2.34-.91,2.34-3.21s-.69-3-1.86-3A5.2,5.2,0,0,0,1100.51,126.22Z"/><path class="cls-1" d="M1113.64,131.63l0,1a28.73,28.73,0,0,1-3.13.25c-2.38,0-3.17-1.39-3.17-4.11,0-3,1.32-4.21,3.35-4.21s3.22,1.12,3.22,3.75l-.07.91h-5.28c0,1.71.53,2.61,2.1,2.61C1111.9,131.78,1113.64,131.63,1113.64,131.63Zm-.89-3.42c0-2-.61-2.69-2-2.69s-2.13.75-2.14,2.69Z"/><path class="cls-1" d="M1121.47,131.19c0,.46.41.64.93.7l-.05.94a2.46,2.46,0,0,1-1.91-.64,8.18,8.18,0,0,1-2.88.64c-1.45,0-2.26-.83-2.26-2.45s.81-2.2,2.45-2.36l2.52-.24v-.69c0-1.12-.48-1.52-1.44-1.52-1.12,0-3,.2-3,.2l0-.91a19.49,19.49,0,0,1,3.14-.35c1.81,0,2.58.83,2.58,2.58Zm-3.57-2.28c-1,.1-1.36.56-1.36,1.44s.4,1.48,1.21,1.48a8.45,8.45,0,0,0,2.52-.5v-2.64Z"/><path class="cls-1" d="M1123.83,132.67v-8H1125v.56a6,6,0,0,1,2.48-.72c2.21,0,2.7,1.09,2.7,3.94v4.22H1129v-4.19c0-2.11-.24-2.9-1.73-2.9a5.46,5.46,0,0,0-2.26.6v6.49Z"/><path class="cls-1" d="M1136.15,121.6h1.23v11.07h-1.23Z"/><path class="cls-1" d="M1139.88,132.67v-8h1.18v.56a6.1,6.1,0,0,1,2.48-.72c2.21,0,2.71,1.09,2.71,3.94v4.22h-1.18v-4.19c0-2.11-.24-2.9-1.73-2.9a5.4,5.4,0,0,0-2.26.6v6.49Z"/><path class="cls-1" d="M1153.79,125.84a25.92,25.92,0,0,0-2.81-.26c-1,0-1.74.27-1.74,1.22,0,.75.38,1,2.08,1.25,2,.33,2.75.73,2.75,2.29,0,1.87-1.18,2.49-3.1,2.49a22.82,22.82,0,0,1-2.82-.3l.06-1s1.83.27,2.65.27c1.31,0,2-.29,2-1.38,0-.83-.41-1-2.16-1.31s-2.67-.62-2.67-2.22c0-1.76,1.42-2.34,2.88-2.34a20.81,20.81,0,0,1,2.9.3Z"/><path class="cls-1" d="M1157.51,125.71v3.83c0,1.74.11,2.24,1.15,2.24.45,0,1.43-.1,1.43-.1l.08,1a13.65,13.65,0,0,1-1.63.18c-1.65,0-2.21-.62-2.21-2.93v-4.21h-1.14v-1h1.14v-2.45h1.18v2.45h2.55v1Z"/><path class="cls-1" d="M1161.53,121.47h1.2v1.39h-1.2Zm0,3.2h1.2v8h-1.2Z"/><path class="cls-1" d="M1166.63,125.71v3.83c0,1.74.11,2.24,1.16,2.24.44,0,1.42-.1,1.42-.1l.08,1a13.65,13.65,0,0,1-1.63.18c-1.65,0-2.21-.62-2.21-2.93v-4.21h-1.14v-1h1.14v-2.45h1.18v2.45h2.55v1Z"/><path class="cls-1" d="M1176.84,124.67v8h-1.2v-.56a5.4,5.4,0,0,1-2.37.72c-2.24,0-2.7-1-2.7-4v-4.18h1.2v4.16c0,2.21.19,2.93,1.68,2.93a4.87,4.87,0,0,0,2.19-.59v-6.5Z"/><path class="cls-1" d="M1180.74,125.71v3.83c0,1.74.12,2.24,1.16,2.24.45,0,1.42-.1,1.42-.1l.08,1a13.65,13.65,0,0,1-1.63.18c-1.65,0-2.21-.62-2.21-2.93v-4.21h-1.14v-1h1.14v-2.45h1.18v2.45h2.55v1Z"/><path class="cls-1" d="M1190.67,131.63l0,1a28.44,28.44,0,0,1-3.12.25c-2.39,0-3.17-1.39-3.17-4.11,0-3,1.31-4.21,3.34-4.21s3.22,1.12,3.22,3.75l-.06.91h-5.29c0,1.71.53,2.61,2.1,2.61C1188.92,131.78,1190.67,131.63,1190.67,131.63Zm-.9-3.42c0-2-.61-2.69-2-2.69s-2.13.75-2.14,2.69Z"/><path class="cls-1" d="M1202.86,128.58c0,2.91-.72,4.25-3.43,4.25s-3.42-1.34-3.42-4.25.89-4.07,3.42-4.07S1202.86,125.82,1202.86,128.58Zm-1.23,0c0-2.23-.48-3-2.2-3s-2.19.8-2.19,3,.3,3.21,2.19,3.21S1201.63,130.85,1201.63,128.58Z"/><path class="cls-1" d="M1206.35,132.67h-1.21v-7h-1v-1h1V124c0-2.3.6-2.93,2.16-2.93.55,0,1.62.11,1.62.11v1s-.9,0-1.38,0c-.9,0-1.18.39-1.18,1.88v.7h2.32v1h-2.32Z"/><path class="cls-1" d="M1213.83,121.6h1.23v11.07h-1.23Z"/><path class="cls-1" d="M1217.56,132.67v-8h1.18v.56a6.1,6.1,0,0,1,2.48-.72c2.21,0,2.71,1.09,2.71,3.94v4.22h-1.18v-4.19c0-2.11-.24-2.9-1.73-2.9a5.4,5.4,0,0,0-2.26.6v6.49Z"/><path class="cls-1" d="M1226.15,132.67v-8h1.19v.56a6,6,0,0,1,2.48-.72c2.21,0,2.7,1.09,2.7,3.94v4.22h-1.18v-4.19c0-2.11-.24-2.9-1.73-2.9a5.46,5.46,0,0,0-2.26.6v6.49Z"/><path class="cls-1" d="M1241.24,128.58c0,2.91-.72,4.25-3.42,4.25s-3.43-1.34-3.43-4.25.9-4.07,3.43-4.07S1241.24,125.82,1241.24,128.58Zm-1.23,0c0-2.23-.48-3-2.19-3s-2.2.8-2.2,3,.31,3.21,2.2,3.21S1240,130.85,1240,128.58Z"/><path class="cls-1" d="M1243.58,124.67l1.87,7h.59l1.94-7h1.23l-2.26,8h-2.4l-2.26-8Z"/><path class="cls-1" d="M1256.27,131.19c0,.46.41.64.92.7l0,.94a2.46,2.46,0,0,1-1.91-.64,8.18,8.18,0,0,1-2.88.64c-1.46,0-2.26-.83-2.26-2.45s.8-2.2,2.45-2.36l2.51-.24v-.69c0-1.12-.48-1.52-1.44-1.52-1.12,0-3,.2-3,.2l0-.91a19.49,19.49,0,0,1,3.14-.35c1.81,0,2.58.83,2.58,2.58Zm-3.57-2.28c-1,.1-1.36.56-1.36,1.44s.39,1.48,1.21,1.48a8.35,8.35,0,0,0,2.51-.5v-2.64Z"/><path class="cls-1" d="M1260.23,125.71v3.83c0,1.74.11,2.24,1.15,2.24.45,0,1.43-.1,1.43-.1l.08,1a13.65,13.65,0,0,1-1.63.18c-1.65,0-2.21-.62-2.21-2.93v-4.21h-1.14v-1h1.14v-2.45h1.18v2.45h2.55v1Z"/><path class="cls-1" d="M1264.25,121.47h1.2v1.39h-1.2Zm0,3.2h1.2v8h-1.2Z"/><path class="cls-1" d="M1274.25,128.58c0,2.91-.72,4.25-3.43,4.25s-3.42-1.34-3.42-4.25.89-4.07,3.42-4.07S1274.25,125.82,1274.25,128.58Zm-1.23,0c0-2.23-.48-3-2.2-3s-2.19.8-2.19,3,.31,3.21,2.19,3.21S1273,130.85,1273,128.58Z"/><path class="cls-1" d="M1276.2,132.67v-8h1.18v.56a6.11,6.11,0,0,1,2.49-.72c2.2,0,2.7,1.09,2.7,3.94v4.22h-1.19v-4.19c0-2.11-.24-2.9-1.72-2.9a5.4,5.4,0,0,0-2.26.6v6.49Z"/><path class="cls-1" d="M1294,131.19c0,.46.42.64.93.7l-.05.94a2.43,2.43,0,0,1-1.9-.64,8.19,8.19,0,0,1-2.89.64c-1.45,0-2.25-.83-2.25-2.45s.8-2.2,2.45-2.36l2.51-.24v-.69c0-1.12-.48-1.52-1.44-1.52-1.12,0-3,.2-3,.2l0-.91a19.47,19.47,0,0,1,3.13-.35c1.81,0,2.58.83,2.58,2.58Zm-3.57-2.28c-1,.1-1.36.56-1.36,1.44s.4,1.48,1.22,1.48a8.44,8.44,0,0,0,2.51-.5v-2.64Z"/><path class="cls-1" d="M1296.33,132.67v-8h1.18v.56a6.1,6.1,0,0,1,2.48-.72c2.21,0,2.71,1.09,2.71,3.94v4.22h-1.19v-4.19c0-2.11-.24-2.9-1.73-2.9a5.39,5.39,0,0,0-2.25.6v6.49Z"/><path class="cls-1" d="M1311.06,132.67h-1.18v-.54a5.75,5.75,0,0,1-2.43.7c-1.57,0-2.88-.64-2.88-4.09,0-2.82.91-4.23,3.34-4.23a13.07,13.07,0,0,1,2,.21v-3.54h1.18Zm-1.18-1.5v-5.43a13.44,13.44,0,0,0-1.91-.19c-1.68,0-2.17,1.11-2.17,3.19,0,2.59.85,3,1.79,3A5.82,5.82,0,0,0,1309.88,131.17Z"/><path class="cls-1" d="M778.67,139.41h8v1.11H783.3v10h-1.22v-10h-3.41Z"/><path class="cls-1" d="M792.48,149.45l0,.94a27.65,27.65,0,0,1-3.13.26c-2.38,0-3.17-1.4-3.17-4.12,0-3,1.32-4.21,3.35-4.21s3.22,1.12,3.22,3.75l-.07.91h-5.28c0,1.71.53,2.61,2.1,2.61C790.74,149.59,792.48,149.45,792.48,149.45Zm-.89-3.43c0-2-.61-2.69-2-2.69s-2.13.75-2.14,2.69Z"/><path class="cls-1" d="M799.83,142.56l-.05,1s-1.28-.14-1.89-.14c-1.84,0-2.34.8-2.34,2.94,0,2.37.37,3.23,2.36,3.23.6,0,1.88-.14,1.88-.14l.05,1a20.77,20.77,0,0,1-2.22.23c-2.55,0-3.3-1.17-3.3-4.31,0-2.9.95-4,3.33-4A18.56,18.56,0,0,1,799.83,142.56Z"/><path class="cls-1" d="M801.63,150.49V139h1.2v3.94a6.75,6.75,0,0,1,2.47-.61c2.19,0,2.7,1.09,2.7,3.94v4.23h-1.2v-4.2c0-2.11-.24-2.89-1.71-2.89a6.59,6.59,0,0,0-2.26.48v6.61Z"/><path class="cls-1" d="M810.22,150.49v-8h1.19V143a6.1,6.1,0,0,1,2.48-.72c2.21,0,2.7,1.09,2.7,3.94v4.23h-1.18v-4.2c0-2.11-.24-2.89-1.73-2.89a5.53,5.53,0,0,0-2.26.59v6.5Z"/><path class="cls-1" d="M825.31,146.39c0,2.91-.72,4.26-3.42,4.26s-3.43-1.35-3.43-4.26c0-2.75.9-4.07,3.43-4.07S825.31,143.64,825.31,146.39Zm-1.23,0c0-2.23-.48-3-2.19-3s-2.19.8-2.19,3,.3,3.22,2.19,3.22S824.08,148.66,824.08,146.39Z"/><path class="cls-1" d="M827.36,139h1.2v11.5h-1.2Z"/><path class="cls-1" d="M837.46,146.39c0,2.91-.72,4.26-3.43,4.26s-3.42-1.35-3.42-4.26c0-2.75.89-4.07,3.42-4.07S837.46,143.64,837.46,146.39Zm-1.23,0c0-2.23-.48-3-2.2-3s-2.19.8-2.19,3,.3,3.22,2.19,3.22S836.23,148.66,836.23,146.39Z"/><path class="cls-1" d="M839.06,151.83c0-.93.43-1.36,1.26-2a1.31,1.31,0,0,1-.45-1.11,5.15,5.15,0,0,1,.55-1.26,2.33,2.33,0,0,1-1.27-2.42c0-2,1.22-2.74,3-2.74a8.17,8.17,0,0,1,1.67.21l2.37-.06v1l-1.52,0a2.09,2.09,0,0,1,.53,1.6c0,2.08-1,2.71-3.09,2.71a7.46,7.46,0,0,1-.79-.07,5,5,0,0,0-.28.91c0,.64.12.74,1.93.74,2.27,0,3.09.45,3.09,2.35s-1.3,2.55-3.55,2.55C840,154.25,839.06,153.69,839.06,151.83Zm2.08-1.5c-.68.49-.9.78-.9,1.41,0,1.1.47,1.5,2.27,1.5,1.6,0,2.32-.43,2.32-1.49,0-1.21-.51-1.34-2-1.34C842.3,150.41,841.14,150.33,841.14,150.33Zm2.85-5.27c0-1.26-.5-1.76-1.85-1.76s-1.79.5-1.79,1.76.55,1.75,1.79,1.75S844,146.33,844,145.06Z"/><path class="cls-1" d="M848.08,142.48l2,7h.53l2-7h1.21L850.5,154h-1.2l1-3.55h-1.19l-2.27-8Z"/><path class="cls-1" d="M861.36,138.48a25.63,25.63,0,0,0-1.52,7.19,22.09,22.09,0,0,0,1.52,6.82h-1.15a17.6,17.6,0,0,1-1.67-6.82,20.67,20.67,0,0,1,1.67-7.19Z"/><path class="cls-1" d="M863.31,139.41h6.74v1.09h-5.51v3.82h4.55v1.08h-4.55v4h5.51v1.09h-6.74Z"/><path class="cls-1" d="M872.16,139.41h1.23v11.08h-1.23Z"/><path class="cls-1" d="M874.94,139.41h8v1.11h-3.37v10h-1.22v-10h-3.41Z"/><path class="cls-1" d="M884.89,138.48a20.67,20.67,0,0,1,1.67,7.19,17.6,17.6,0,0,1-1.67,6.82h-1.15a22.09,22.09,0,0,0,1.52-6.82,25.63,25.63,0,0,0-1.52-7.19Z"/><path class="cls-1" d="M888.65,148.77H890l-1.07,3.69h-1Z"/><path class="cls-1" d="M901.26,149c0,.46.42.64.93.7l-.05,1a2.43,2.43,0,0,1-1.9-.64,8.18,8.18,0,0,1-2.88.64c-1.46,0-2.26-.84-2.26-2.45s.8-2.21,2.45-2.37l2.51-.24v-.69c0-1.12-.48-1.52-1.44-1.52-1.12,0-3,.21-3,.21l-.05-.91a19,19,0,0,1,3.14-.36c1.8,0,2.57.84,2.57,2.58Zm-3.57-2.27a1.28,1.28,0,0,0-1.36,1.44c0,.92.4,1.47,1.22,1.47a8.44,8.44,0,0,0,2.51-.5V146.5Z"/><path class="cls-1" d="M913.6,146.36c0,3.18-.87,4.29-3.78,4.29-1,0-2.67-.18-2.67-.18V139h1.18v3.89a6.62,6.62,0,0,1,2.35-.56C912.86,142.32,913.6,143.48,913.6,146.36Zm-1.22,0c0-2.07-.42-3-1.82-3a6.77,6.77,0,0,0-2.23.46v5.64s1,.07,1.47.07C912,149.57,912.38,148.6,912.38,146.36Z"/><path class="cls-1" d="M922.06,146.39c0,2.91-.72,4.26-3.42,4.26s-3.43-1.35-3.43-4.26c0-2.75.9-4.07,3.43-4.07S922.06,143.64,922.06,146.39Zm-1.23,0c0-2.23-.48-3-2.19-3s-2.2.8-2.2,3,.31,3.22,2.2,3.22S920.83,148.66,920.83,146.39Z"/><path class="cls-1" d="M930.16,150.49H929v-.55a5.69,5.69,0,0,1-2.43.71c-1.57,0-2.88-.64-2.88-4.1,0-2.82.91-4.23,3.34-4.23a13.07,13.07,0,0,1,2,.21V139h1.19ZM929,149v-5.42a13,13,0,0,0-1.9-.2c-1.68,0-2.18,1.11-2.18,3.19,0,2.59.85,3,1.79,3A5.82,5.82,0,0,0,929,149Z"/><path class="cls-1" d="M932.92,142.48l2,7h.53l2-7h1.2L935.34,154h-1.2l1-3.55H934l-2.28-8Z"/><path class="cls-1" d="M950.22,146.39c0,2.91-.72,4.26-3.43,4.26s-3.42-1.35-3.42-4.26c0-2.75.9-4.07,3.42-4.07S950.22,143.64,950.22,146.39Zm-1.23,0c0-2.23-.48-3-2.2-3s-2.19.8-2.19,3,.31,3.22,2.19,3.22S949,148.66,949,146.39Z"/><path class="cls-1" d="M953.71,150.49h-1.2v-7h-1v-1h1v-.72c0-2.3.59-2.93,2.16-2.93.54,0,1.62.12,1.62.12l0,1s-.9,0-1.38,0c-.89,0-1.18.38-1.18,1.87v.7H956v1h-2.32Z"/><path class="cls-1" d="M962.59,143.52v3.83c0,1.74.11,2.24,1.15,2.24.45,0,1.42-.09,1.42-.09l.08,1a14.42,14.42,0,0,1-1.63.17c-1.65,0-2.21-.62-2.21-2.93v-4.21h-1.13v-1h1.13V140h1.19v2.44h2.54v1Z"/><path class="cls-1" d="M966.6,150.49V139h1.2v3.94a6.75,6.75,0,0,1,2.47-.61c2.19,0,2.7,1.09,2.7,3.94v4.23h-1.2v-4.2c0-2.11-.24-2.89-1.71-2.89a6.59,6.59,0,0,0-2.26.48v6.61Z"/><path class="cls-1" d="M981.1,149.45l0,.94a27.37,27.37,0,0,1-3.12.26c-2.38,0-3.17-1.4-3.17-4.12,0-3,1.31-4.21,3.35-4.21s3.21,1.12,3.21,3.75l-.06.91h-5.28c0,1.71.53,2.61,2.09,2.61C979.36,149.59,981.1,149.45,981.1,149.45Zm-.9-3.43c0-2-.6-2.69-2-2.69s-2.13.75-2.15,2.69Z"/><path class="cls-1" d="M987,139.41h6.74v1.09h-5.51v3.82h4.55v1.08h-4.55v4h5.51v1.09H987Z"/><path class="cls-1" d="M1001.71,142.48v8h-1.2v-.56a5.4,5.4,0,0,1-2.37.72c-2.24,0-2.71-1-2.71-4v-4.18h1.2v4.17c0,2.2.2,2.92,1.68,2.92a4.88,4.88,0,0,0,2.2-.59v-6.5Z"/><path class="cls-1" d="M1004,142.48h1.18v1.09a9.07,9.07,0,0,1,2.93-1.26v1.21a11.88,11.88,0,0,0-2.91,1.09v5.88H1004Z"/><path class="cls-1" d="M1015.88,146.39c0,2.91-.72,4.26-3.42,4.26s-3.42-1.35-3.42-4.26c0-2.75.89-4.07,3.42-4.07S1015.88,143.64,1015.88,146.39Zm-1.23,0c0-2.23-.48-3-2.19-3s-2.19.8-2.19,3,.3,3.22,2.19,3.22S1014.65,148.66,1014.65,146.39Z"/><path class="cls-1" d="M1017.83,142.48H1019v.58a5.39,5.39,0,0,1,2.4-.74c2,0,2.9,1.24,2.9,4.07,0,3.14-1,4.26-3.49,4.26a10.16,10.16,0,0,1-1.8-.18V154h-1.2ZM1019,144v5.39a12.17,12.17,0,0,0,1.73.18c1.76,0,2.34-.92,2.34-3.22s-.69-3-1.86-3A5.21,5.21,0,0,0,1019,144Z"/><path class="cls-1" d="M1032.17,149.45l0,.94a27.37,27.37,0,0,1-3.12.26c-2.38,0-3.17-1.4-3.17-4.12,0-3,1.32-4.21,3.35-4.21s3.22,1.12,3.22,3.75l-.07.91h-5.28c0,1.71.53,2.61,2.1,2.61C1030.43,149.59,1032.17,149.45,1032.17,149.45Zm-.89-3.43c0-2-.61-2.69-2-2.69s-2.13.75-2.15,2.69Z"/><path class="cls-1" d="M1040,149c0,.46.41.64.92.7l0,1A2.46,2.46,0,0,1,1039,150a8.18,8.18,0,0,1-2.88.64c-1.46,0-2.26-.84-2.26-2.45s.8-2.21,2.45-2.37l2.51-.24v-.69c0-1.12-.48-1.52-1.43-1.52-1.13,0-3,.21-3,.21l0-.91a19,19,0,0,1,3.14-.36c1.81,0,2.58.84,2.58,2.58Zm-3.57-2.27c-1,.09-1.36.56-1.36,1.44s.39,1.47,1.21,1.47a8.35,8.35,0,0,0,2.51-.5V146.5Z"/><path class="cls-1" d="M1042.36,150.49v-8h1.18V143a6.11,6.11,0,0,1,2.49-.72c2.2,0,2.7,1.09,2.7,3.94v4.23h-1.18v-4.2c0-2.11-.24-2.89-1.73-2.89a5.53,5.53,0,0,0-2.26.59v6.5Z"/><path class="cls-1" d="M1058.43,149.56c1.72,0,2.7-.67,2.7-2.4v-7.75h1.22v7.72c0,2.52-1.39,3.52-3.92,3.52s-3.83-1-3.83-3.52v-7.72h1.23v7.75C1055.83,148.89,1056.79,149.56,1058.43,149.56Z"/><path class="cls-1" d="M1064.78,150.49v-8H1066V143a6.1,6.1,0,0,1,2.48-.72c2.21,0,2.71,1.09,2.71,3.94v4.23H1070v-4.2c0-2.11-.24-2.89-1.73-2.89a5.46,5.46,0,0,0-2.25.59v6.5Z"/><path class="cls-1" d="M1073.37,139.28h1.2v1.4h-1.2Zm0,3.2h1.2v8h-1.2Z"/><path class="cls-1" d="M1083.37,146.39c0,2.91-.72,4.26-3.42,4.26s-3.43-1.35-3.43-4.26c0-2.75.9-4.07,3.43-4.07S1083.37,143.64,1083.37,146.39Zm-1.23,0c0-2.23-.48-3-2.19-3s-2.2.8-2.2,3,.31,3.22,2.2,3.22S1082.14,148.66,1082.14,146.39Z"/><path class="cls-1" d="M1085.32,150.49v-8h1.18V143a6.11,6.11,0,0,1,2.49-.72c2.2,0,2.7,1.09,2.7,3.94v4.23h-1.18v-4.2c0-2.11-.24-2.89-1.73-2.89a5.47,5.47,0,0,0-2.26.59v6.5Z"/><path class="cls-1" d="M1094,148.77h1.33l-1.07,3.69h-1Z"/><path class="cls-1" d="M1107.19,142.48v8H1106v-.56a5.4,5.4,0,0,1-2.37.72c-2.24,0-2.7-1-2.7-4v-4.18h1.2v4.17c0,2.2.19,2.92,1.68,2.92A4.87,4.87,0,0,0,1106,149v-6.5Z"/><path class="cls-1" d="M1109.5,150.49v-8h1.18V143a6.1,6.1,0,0,1,2.48-.72c2.21,0,2.71,1.09,2.71,3.94v4.23h-1.19v-4.2c0-2.11-.24-2.89-1.73-2.89a5.46,5.46,0,0,0-2.25.59v6.5Z"/><path class="cls-1" d="M1124.23,150.49h-1.18v-.55a5.69,5.69,0,0,1-2.43.71c-1.57,0-2.88-.64-2.88-4.1,0-2.82.91-4.23,3.34-4.23a13.07,13.07,0,0,1,2,.21V139h1.18Zm-1.18-1.51v-5.42a13.15,13.15,0,0,0-1.91-.2c-1.68,0-2.17,1.11-2.17,3.19,0,2.59.85,3,1.79,3A5.82,5.82,0,0,0,1123.05,149Z"/><path class="cls-1" d="M1132.46,149.45l0,.94a27.37,27.37,0,0,1-3.12.26c-2.39,0-3.17-1.4-3.17-4.12,0-3,1.31-4.21,3.34-4.21s3.22,1.12,3.22,3.75l-.06.91h-5.28c0,1.71.53,2.61,2.09,2.61C1130.71,149.59,1132.46,149.45,1132.46,149.45Zm-.9-3.43c0-2-.6-2.69-2-2.69s-2.12.75-2.14,2.69Z"/><path class="cls-1" d="M1134.63,142.48h1.19v1.09a9,9,0,0,1,2.93-1.26v1.21a11.85,11.85,0,0,0-2.92,1.09v5.88h-1.2Z"/><path class="cls-1" d="M1145.29,143.52v3.83c0,1.74.11,2.24,1.15,2.24.45,0,1.43-.09,1.43-.09l.08,1a14.7,14.7,0,0,1-1.64.17c-1.65,0-2.21-.62-2.21-2.93v-4.21H1143v-1h1.13V140h1.19v2.44h2.54v1Z"/><path class="cls-1" d="M1149.3,150.49V139h1.2v3.94a6.82,6.82,0,0,1,2.47-.61c2.19,0,2.71,1.09,2.71,3.94v4.23h-1.21v-4.2c0-2.11-.24-2.89-1.71-2.89a6.59,6.59,0,0,0-2.26.48v6.61Z"/><path class="cls-1" d="M1163.8,149.45l0,.94a27.37,27.37,0,0,1-3.12.26c-2.38,0-3.17-1.4-3.17-4.12,0-3,1.32-4.21,3.35-4.21s3.22,1.12,3.22,3.75l-.07.91h-5.28c0,1.71.53,2.61,2.1,2.61C1162.06,149.59,1163.8,149.45,1163.8,149.45Zm-.89-3.43c0-2-.61-2.69-2-2.69s-2.13.75-2.15,2.69Z"/><path class="cls-1" d="M1176.57,145.48h-5.63v5h-1.24V139.41h1.24v5h5.63v-5h1.22v11.08h-1.22Z"/><path class="cls-1" d="M1186.71,146.39c0,2.91-.72,4.26-3.42,4.26s-3.43-1.35-3.43-4.26c0-2.75.9-4.07,3.43-4.07S1186.71,143.64,1186.71,146.39Zm-1.23,0c0-2.23-.48-3-2.19-3s-2.19.8-2.19,3,.3,3.22,2.19,3.22S1185.48,148.66,1185.48,146.39Z"/><path class="cls-1" d="M1188.66,142.48h1.19v1.09a9,9,0,0,1,2.93-1.26v1.21a11.85,11.85,0,0,0-2.92,1.09v5.88h-1.2Z"/><path class="cls-1" d="M1194.2,139.28h1.2v1.4h-1.2Zm0,3.2h1.2v8h-1.2Z"/><path class="cls-1" d="M1197.22,142.48h5.94v1.08l-4.48,5.86h4.48v1.07h-5.94v-1.07l4.49-5.86h-4.49Z"/><path class="cls-1" d="M1211.43,146.39c0,2.91-.72,4.26-3.42,4.26s-3.43-1.35-3.43-4.26c0-2.75.9-4.07,3.43-4.07S1211.43,143.64,1211.43,146.39Zm-1.23,0c0-2.23-.48-3-2.19-3s-2.19.8-2.19,3,.3,3.22,2.19,3.22S1210.2,148.66,1210.2,146.39Z"/><path class="cls-1" d="M1213.38,150.49v-8h1.19V143a6.1,6.1,0,0,1,2.48-.72c2.21,0,2.7,1.09,2.7,3.94v4.23h-1.18v-4.2c0-2.11-.24-2.89-1.73-2.89a5.53,5.53,0,0,0-2.26.59v6.5Z"/><path class="cls-1" d="M1225.45,150.49v-1l3.09-3.25c1.31-1.36,2.12-2.23,2.12-3.48,0-1.4-.78-1.85-2.3-1.85a15.49,15.49,0,0,0-2.74.35l-.09-1a12.58,12.58,0,0,1,3-.44c2.23,0,3.35.85,3.35,2.84,0,1.58-.72,2.51-2.21,4l-2.82,2.87h5.3v1.07Z"/><path class="cls-1" d="M1241.62,145.37c0,4-1.42,5.28-3.84,5.28s-3.85-1.2-3.85-5.27c0-4.35,1.41-5.63,3.84-5.63S1241.62,141,1241.62,145.37Zm-6.41,0c0,3.31.91,4.18,2.57,4.18s2.58-.88,2.58-4.19c0-3.56-.82-4.52-2.58-4.52S1235.21,141.78,1235.21,145.38Z"/><path class="cls-1" d="M1243.37,150.49v-1l3.09-3.25c1.31-1.36,2.12-2.23,2.12-3.48,0-1.4-.78-1.85-2.3-1.85a15.49,15.49,0,0,0-2.74.35l-.09-1a12.58,12.58,0,0,1,3-.44c2.23,0,3.35.85,3.35,2.84,0,1.58-.72,2.51-2.21,4l-2.82,2.87h5.3v1.07Z"/><path class="cls-1" d="M1259.54,145.37c0,4-1.42,5.28-3.84,5.28s-3.85-1.2-3.85-5.27c0-4.35,1.41-5.63,3.84-5.63S1259.54,141,1259.54,145.37Zm-6.41,0c0,3.31.91,4.18,2.57,4.18s2.58-.88,2.58-4.19c0-3.56-.82-4.52-2.58-4.52S1253.13,141.78,1253.13,145.38Z"/><path class="cls-1" d="M1261.46,148.77h1.33l-1.07,3.69h-1Z"/><path class="cls-1" d="M1270,143.52v3.83c0,1.74.11,2.24,1.15,2.24.45,0,1.43-.09,1.43-.09l.08,1a14.42,14.42,0,0,1-1.63.17c-1.65,0-2.21-.62-2.21-2.93v-4.21h-1.14v-1h1.14V140H1270v2.44h2.55v1Z"/><path class="cls-1" d="M1274,150.49V139h1.2v3.94a6.74,6.74,0,0,1,2.46-.61c2.2,0,2.71,1.09,2.71,3.94v4.23h-1.2v-4.2c0-2.11-.24-2.89-1.71-2.89a6.59,6.59,0,0,0-2.26.48v6.61Z"/><path class="cls-1" d="M1288.54,149.45l0,.94a27.63,27.63,0,0,1-3.12.26c-2.39,0-3.17-1.4-3.17-4.12,0-3,1.31-4.21,3.34-4.21s3.22,1.12,3.22,3.75l-.06.91h-5.29c0,1.71.53,2.61,2.1,2.61C1286.79,149.59,1288.54,149.45,1288.54,149.45Zm-.9-3.43c0-2-.61-2.69-2-2.69s-2.13.75-2.14,2.69Z"/><path class="cls-1" d="M1294.44,139.41h6.74v1.09h-5.51v3.82h4.54v1.08h-4.54v4h5.51v1.09h-6.74Z"/><path class="cls-1" d="M1307,149.56c1.73,0,2.71-.67,2.71-2.4v-7.75H1311v7.72c0,2.52-1.39,3.52-3.92,3.52s-3.82-1-3.82-3.52v-7.72h1.23v7.75C1304.44,148.89,1305.4,149.56,1307,149.56Z"/><path class="cls-1" d="M961.66,157.22h6.63v1.09h-5.4v4.32h4.56v1.09h-4.56v4.58h-1.23Z"/><path class="cls-1" d="M969.53,160.3h1.18v1.09a9.22,9.22,0,0,1,2.93-1.27v1.22a11.44,11.44,0,0,0-2.91,1.09v5.87h-1.2Z"/><path class="cls-1" d="M980.72,166.81c0,.47.41.64.93.71l0,.94a2.46,2.46,0,0,1-1.91-.64,8.18,8.18,0,0,1-2.88.64c-1.45,0-2.26-.83-2.26-2.45s.81-2.21,2.45-2.37l2.52-.24v-.69c0-1.12-.48-1.52-1.44-1.52-1.12,0-3,.21-3,.21l0-.91a19.49,19.49,0,0,1,3.14-.35c1.81,0,2.58.83,2.58,2.57Zm-3.57-2.27c-1,.09-1.36.56-1.36,1.44s.4,1.47,1.21,1.47a8.6,8.6,0,0,0,2.52-.49v-2.65Z"/><path class="cls-1" d="M983.08,168.3v-8h1.19v.56a5.36,5.36,0,0,1,2.33-.72,2.28,2.28,0,0,1,2.09.81,6.66,6.66,0,0,1,2.84-.81c2.18,0,2.71,1,2.71,3.93v4.23H993v-4.19c0-2.12-.24-2.9-1.68-2.9a5.3,5.3,0,0,0-2.26.59,8.84,8.84,0,0,1,.21,2.34v4.16h-1.2v-4.13c0-2.21-.23-3-1.68-3a4.82,4.82,0,0,0-2.15.59v6.5Z"/><path class="cls-1" d="M1002.37,167.26l0,.94a27.63,27.63,0,0,1-3.12.26c-2.39,0-3.17-1.39-3.17-4.11,0-3,1.31-4.21,3.34-4.21s3.22,1.12,3.22,3.74l-.06.91h-5.29c0,1.72.53,2.61,2.1,2.61C1000.62,167.4,1002.37,167.26,1002.37,167.26Zm-.9-3.43c0-2-.61-2.68-2-2.68s-2.13.75-2.14,2.68Z"/><path class="cls-1" d="M1005,160.3l1.62,7h.26l1.9-6.8H1010l1.9,6.8h.28l1.6-7h1.2l-1.91,8h-2l-1.7-6.26-1.69,6.26h-2l-1.91-8Z"/><path class="cls-1" d="M1023.07,164.2c0,2.92-.72,4.26-3.43,4.26s-3.42-1.34-3.42-4.26c0-2.75.89-4.06,3.42-4.06S1023.07,161.45,1023.07,164.2Zm-1.23,0c0-2.22-.48-3-2.2-3s-2.19.8-2.19,3,.3,3.22,2.19,3.22S1021.84,166.48,1021.84,164.2Z"/><path class="cls-1" d="M1025,160.3h1.18v1.09a9.22,9.22,0,0,1,2.93-1.27v1.22a11.44,11.44,0,0,0-2.91,1.09v5.87H1025Z"/><path class="cls-1" d="M1030.55,168.3V156.81h1.2v6.78l1.25-.06,2.29-3.23h1.36L1034,164l2.73,4.32h-1.37l-2.38-3.71-1.27,0v3.67Z"/><path class="cls-1" d="M1043.18,164.57v3.73H1042V157.22h4c2.41,0,3.53,1.17,3.53,3.57s-1.12,3.78-3.53,3.78Zm2.8-1.09c1.62,0,2.29-1,2.29-2.69s-.67-2.48-2.29-2.48h-2.8v5.17Z"/><path class="cls-1" d="M1051.23,160.3h1.18v1.09a9.09,9.09,0,0,1,2.93-1.27v1.22a11.44,11.44,0,0,0-2.91,1.09v5.87h-1.2Z"/><path class="cls-1" d="M1063.1,164.2c0,2.92-.72,4.26-3.42,4.26s-3.43-1.34-3.43-4.26c0-2.75.9-4.06,3.43-4.06S1063.1,161.45,1063.1,164.2Zm-1.23,0c0-2.22-.48-3-2.19-3s-2.2.8-2.2,3,.31,3.22,2.2,3.22S1061.87,166.48,1061.87,164.2Z"/><path class="cls-1" d="M1064.7,169.65c0-.93.43-1.37,1.26-2a1.32,1.32,0,0,1-.44-1.1,5.13,5.13,0,0,1,.54-1.27,2.32,2.32,0,0,1-1.27-2.42c0-2,1.22-2.73,3-2.73a8.14,8.14,0,0,1,1.66.21l2.37-.07v1l-1.52,0a2.08,2.08,0,0,1,.53,1.6c0,2.09-1,2.71-3.09,2.71a7,7,0,0,1-.78-.06,4.66,4.66,0,0,0-.29.91c0,.64.13.73,1.94.73,2.27,0,3.08.45,3.08,2.36s-1.29,2.54-3.55,2.54C1065.61,172.06,1064.7,171.5,1064.7,169.65Zm2.08-1.51c-.67.5-.9.78-.9,1.41,0,1.1.47,1.5,2.28,1.5,1.6,0,2.32-.43,2.32-1.49,0-1.21-.52-1.34-2-1.34C1068,168.22,1066.78,168.14,1066.78,168.14Zm2.85-5.27c0-1.26-.5-1.76-1.84-1.76s-1.79.5-1.79,1.76.54,1.75,1.79,1.75S1069.63,164.14,1069.63,162.87Z"/><path class="cls-1" d="M1073.28,160.3h1.18v1.09a9.09,9.09,0,0,1,2.93-1.27v1.22a11.42,11.42,0,0,0-2.92,1.09v5.87h-1.19Z"/><path class="cls-1" d="M1084.46,166.81c0,.47.42.64.93.71l-.05.94a2.43,2.43,0,0,1-1.9-.64,8.18,8.18,0,0,1-2.88.64c-1.46,0-2.26-.83-2.26-2.45s.8-2.21,2.45-2.37l2.51-.24v-.69c0-1.12-.48-1.52-1.44-1.52-1.12,0-3,.21-3,.21l0-.91a19.47,19.47,0,0,1,3.13-.35c1.81,0,2.58.83,2.58,2.57Zm-3.57-2.27a1.28,1.28,0,0,0-1.36,1.44c0,.93.4,1.47,1.22,1.47a8.58,8.58,0,0,0,2.51-.49v-2.65Z"/><path class="cls-1" d="M1086.83,168.3v-8H1088v.56a5.37,5.37,0,0,1,2.34-.72,2.28,2.28,0,0,1,2.08.81,6.67,6.67,0,0,1,2.85-.81c2.18,0,2.7,1,2.7,3.93v4.23h-1.2v-4.19c0-2.12-.24-2.9-1.68-2.9a5.28,5.28,0,0,0-2.25.59,9.4,9.4,0,0,1,.2,2.34v4.16h-1.2v-4.13c0-2.21-.22-3-1.68-3a4.8,4.8,0,0,0-2.14.59v6.5Z"/><path class="cls-1" d="M1100.2,168.3v-8h1.19v.56a5.36,5.36,0,0,1,2.33-.72,2.25,2.25,0,0,1,2.08.81,6.73,6.73,0,0,1,2.85-.81c2.18,0,2.71,1,2.71,3.93v4.23h-1.2v-4.19c0-2.12-.24-2.9-1.68-2.9a5.3,5.3,0,0,0-2.26.59,8.84,8.84,0,0,1,.21,2.34v4.16h-1.2v-4.13c0-2.21-.23-3-1.68-3a4.82,4.82,0,0,0-2.15.59v6.5Z"/><path class="cls-1" d="M1119.48,167.26l0,.94a27.63,27.63,0,0,1-3.12.26c-2.39,0-3.17-1.39-3.17-4.11,0-3,1.31-4.21,3.34-4.21s3.22,1.12,3.22,3.74l-.07.91h-5.28c0,1.72.53,2.61,2.1,2.61C1117.74,167.4,1119.48,167.26,1119.48,167.26Zm-.89-3.43c0-2-.61-2.68-2-2.68s-2.13.75-2.14,2.68Z"/><path class="cls-1" d="M1126.71,168.3h-1.2v-7h-1v-1h1v-.72c0-2.31.6-2.93,2.17-2.93.54,0,1.61.11,1.61.11v1s-.9,0-1.38,0c-.9,0-1.19.38-1.19,1.87v.71H1129v1h-2.33Z"/><path class="cls-1" d="M1136.83,164.2c0,2.92-.72,4.26-3.43,4.26s-3.42-1.34-3.42-4.26c0-2.75.89-4.06,3.42-4.06S1136.83,161.45,1136.83,164.2Zm-1.23,0c0-2.22-.48-3-2.2-3s-2.19.8-2.19,3,.3,3.22,2.19,3.22S1135.6,166.48,1135.6,164.2Z"/><path class="cls-1" d="M1138.78,160.3H1140v1.09a9.22,9.22,0,0,1,2.93-1.27v1.22a11.44,11.44,0,0,0-2.91,1.09v5.87h-1.2Z"/><path class="cls-1" d="M1149.27,164.06v4.24H1148V157.22h4.1c2.32,0,3.54,1,3.54,3.36a3,3,0,0,1-2,3.22l2.13,4.5h-1.36l-2-4.24Zm2.87-5.75h-2.87V163h2.89c1.66,0,2.25-1,2.25-2.39A2,2,0,0,0,1152.14,158.31Z"/><path class="cls-1" d="M1163.45,167.26l0,.94a27.37,27.37,0,0,1-3.12.26c-2.38,0-3.16-1.39-3.16-4.11,0-3,1.31-4.21,3.34-4.21s3.22,1.12,3.22,3.74l-.07.91h-5.28c0,1.72.53,2.61,2.1,2.61C1161.71,167.4,1163.45,167.26,1163.45,167.26Zm-.89-3.43c0-2-.61-2.68-2-2.68s-2.13.75-2.15,2.68Z"/><path class="cls-1" d="M1170.94,161.47a25.92,25.92,0,0,0-2.8-.26c-1,0-1.75.27-1.75,1.22,0,.75.39,1,2.09,1.24,2,.34,2.75.74,2.75,2.29,0,1.88-1.19,2.5-3.11,2.5a22.83,22.83,0,0,1-2.81-.3l.06-1s1.83.27,2.64.27c1.31,0,2-.29,2-1.38,0-.83-.42-1-2.16-1.31s-2.67-.63-2.67-2.23c0-1.76,1.42-2.33,2.88-2.33a20.58,20.58,0,0,1,2.89.3Z"/><path class="cls-1" d="M1179,167.26l0,.94a27.37,27.37,0,0,1-3.12.26c-2.38,0-3.17-1.39-3.17-4.11,0-3,1.32-4.21,3.35-4.21s3.22,1.12,3.22,3.74l-.07.91h-5.28c0,1.72.53,2.61,2.1,2.61C1177.23,167.4,1179,167.26,1179,167.26Zm-.89-3.43c0-2-.61-2.68-2-2.68s-2.13.75-2.15,2.68Z"/><path class="cls-1" d="M1186.8,166.81c0,.47.41.64.92.71l0,.94a2.46,2.46,0,0,1-1.91-.64,8.18,8.18,0,0,1-2.88.64c-1.46,0-2.26-.83-2.26-2.45s.8-2.21,2.45-2.37l2.52-.24v-.69c0-1.12-.48-1.52-1.44-1.52-1.12,0-3,.21-3,.21l-.05-.91a19.49,19.49,0,0,1,3.14-.35c1.81,0,2.58.83,2.58,2.57Zm-3.57-2.27c-1,.09-1.36.56-1.36,1.44s.4,1.47,1.21,1.47a8.6,8.6,0,0,0,2.52-.49v-2.65Z"/><path class="cls-1" d="M1189.16,160.3h1.19v1.09a9.09,9.09,0,0,1,2.93-1.27v1.22a11.42,11.42,0,0,0-2.92,1.09v5.87h-1.2Z"/><path class="cls-1" d="M1199.71,160.38l0,1s-1.28-.14-1.89-.14c-1.84,0-2.33.8-2.33,2.94,0,2.37.36,3.24,2.35,3.24.61,0,1.89-.15,1.89-.15l0,1a21.35,21.35,0,0,1-2.22.22c-2.54,0-3.3-1.17-3.3-4.31,0-2.89,1-4,3.33-4A18.56,18.56,0,0,1,1199.71,160.38Z"/><path class="cls-1" d="M1201.51,168.3V156.81h1.2v3.94a6.75,6.75,0,0,1,2.47-.61c2.19,0,2.7,1.09,2.7,3.93v4.23h-1.2v-4.19c0-2.12-.24-2.9-1.71-2.9a6.59,6.59,0,0,0-2.26.48v6.61Z"/><path class="cls-1" d="M1219.28,166.81c0,.47.41.64.92.71l0,.94a2.46,2.46,0,0,1-1.91-.64,8.18,8.18,0,0,1-2.88.64c-1.46,0-2.26-.83-2.26-2.45s.8-2.21,2.45-2.37l2.51-.24v-.69c0-1.12-.48-1.52-1.44-1.52-1.12,0-3,.21-3,.21l0-.91a19.49,19.49,0,0,1,3.14-.35c1.81,0,2.58.83,2.58,2.57Zm-3.57-2.27c-1,.09-1.36.56-1.36,1.44s.39,1.47,1.21,1.47a8.49,8.49,0,0,0,2.51-.49v-2.65Z"/><path class="cls-1" d="M1221.64,168.3v-8h1.18v.56a6.11,6.11,0,0,1,2.49-.72c2.2,0,2.7,1.09,2.7,3.93v4.23h-1.18v-4.19c0-2.12-.24-2.9-1.73-2.9a5.53,5.53,0,0,0-2.26.59v6.5Z"/><path class="cls-1" d="M1236.38,168.3h-1.19v-.54a5.75,5.75,0,0,1-2.43.7c-1.57,0-2.88-.64-2.88-4.1,0-2.81.91-4.22,3.34-4.22a13.07,13.07,0,0,1,2,.21v-3.54h1.19Zm-1.19-1.5v-5.43a13.1,13.1,0,0,0-1.9-.19c-1.68,0-2.18,1.1-2.18,3.18,0,2.6.85,3,1.79,3A5.82,5.82,0,0,0,1235.19,166.8Z"/><path class="cls-1" d="M1242.42,157.22h1.24V168.3h-1.24Z"/><path class="cls-1" d="M1246.15,168.3v-8h1.19v.56a6,6,0,0,1,2.48-.72c2.21,0,2.7,1.09,2.7,3.93v4.23h-1.18v-4.19c0-2.12-.24-2.9-1.73-2.9a5.53,5.53,0,0,0-2.26.59v6.5Z"/><path class="cls-1" d="M1254.74,168.3v-8h1.19v.56a6,6,0,0,1,2.48-.72c2.21,0,2.71,1.09,2.71,3.93v4.23h-1.19v-4.19c0-2.12-.24-2.9-1.73-2.9a5.53,5.53,0,0,0-2.26.59v6.5Z"/><path class="cls-1" d="M1269.83,164.2c0,2.92-.72,4.26-3.42,4.26s-3.43-1.34-3.43-4.26c0-2.75.9-4.06,3.43-4.06S1269.83,161.45,1269.83,164.2Zm-1.23,0c0-2.22-.48-3-2.19-3s-2.19.8-2.19,3,.3,3.22,2.19,3.22S1268.6,166.48,1268.6,164.2Z"/><path class="cls-1" d="M1272.17,160.3l1.87,7h.59l1.94-7h1.23l-2.26,8h-2.4l-2.25-8Z"/><path class="cls-1" d="M1284.86,166.81c0,.47.41.64.93.71l0,.94a2.46,2.46,0,0,1-1.91-.64,8.18,8.18,0,0,1-2.88.64c-1.46,0-2.25-.83-2.25-2.45s.79-2.21,2.44-2.37l2.52-.24v-.69c0-1.12-.48-1.52-1.44-1.52-1.12,0-3,.21-3,.21l0-.91a19.49,19.49,0,0,1,3.14-.35c1.81,0,2.58.83,2.58,2.57Zm-3.57-2.27c-1,.09-1.36.56-1.36,1.44s.4,1.47,1.21,1.47a8.6,8.6,0,0,0,2.52-.49v-2.65Z"/><path class="cls-1" d="M1288.82,161.34v3.82c0,1.75.12,2.24,1.15,2.24.45,0,1.43-.09,1.43-.09l.08,1a13.65,13.65,0,0,1-1.63.18c-1.65,0-2.21-.63-2.21-2.93v-4.21h-1.14v-1h1.14v-2.45h1.18v2.45h2.55v1Z"/><path class="cls-1" d="M1292.84,157.1h1.2v1.39h-1.2Zm0,3.2h1.2v8h-1.2Z"/><path class="cls-1" d="M1302.84,164.2c0,2.92-.72,4.26-3.42,4.26s-3.43-1.34-3.43-4.26c0-2.75.9-4.06,3.43-4.06S1302.84,161.45,1302.84,164.2Zm-1.23,0c0-2.22-.48-3-2.19-3s-2.2.8-2.2,3,.31,3.22,2.2,3.22S1301.61,166.48,1301.61,164.2Z"/><path class="cls-1" d="M1304.79,168.3v-8H1306v.56a6.11,6.11,0,0,1,2.49-.72c2.2,0,2.7,1.09,2.7,3.93v4.23H1310v-4.19c0-2.12-.24-2.9-1.73-2.9a5.53,5.53,0,0,0-2.26.59v6.5Z"/><rect class="cls-2" x="1323.48" y="116.62" width="83.47" height="56.69"/><rect class="cls-3" x="1325.09" y="118.17" width="80.25" height="53.5"/><polygon class="cls-4" points="1363.51 129.83 1365.2 128.59 1366.89 129.83 1366.25 127.83 1367.97 126.59 1365.85 126.59 1365.2 124.57 1364.55 126.6 1362.43 126.59 1364.15 127.83 1363.51 129.83"/><polygon class="cls-4" points="1354.74 132.18 1356.44 130.95 1358.13 132.18 1357.49 130.18 1359.2 128.95 1357.08 128.95 1356.44 126.92 1355.79 128.95 1353.67 128.95 1355.39 130.18 1354.74 132.18"/><polygon class="cls-4" points="1350.02 133.35 1349.38 135.38 1347.26 135.37 1348.98 136.61 1348.33 138.61 1350.02 137.37 1351.72 138.61 1351.07 136.61 1352.79 135.37 1350.67 135.37 1350.02 133.35"/><polygon class="cls-4" points="1347.67 146.13 1349.36 147.36 1348.72 145.36 1350.44 144.13 1348.32 144.13 1347.67 142.1 1347.02 144.13 1344.9 144.13 1346.62 145.36 1345.98 147.36 1347.67 146.13"/><polygon class="cls-4" points="1350.67 152.91 1350.03 150.88 1349.38 152.91 1347.26 152.91 1348.98 154.14 1348.33 156.14 1350.03 154.9 1351.72 156.14 1351.07 154.14 1352.79 152.91 1350.67 152.91"/><polygon class="cls-4" points="1357.1 159.33 1356.45 157.31 1355.8 159.34 1353.68 159.33 1355.4 160.57 1354.76 162.57 1356.45 161.33 1358.14 162.57 1357.5 160.57 1359.22 159.33 1357.1 159.33"/><polygon class="cls-4" points="1365.85 161.66 1365.2 159.63 1364.56 161.66 1362.43 161.66 1364.15 162.9 1363.51 164.9 1365.2 163.66 1366.89 164.9 1366.25 162.9 1367.97 161.66 1365.85 161.66"/><polygon class="cls-4" points="1374.6 159.33 1373.95 157.31 1373.31 159.34 1371.19 159.33 1372.91 160.57 1372.26 162.57 1373.95 161.33 1375.65 162.57 1375 160.57 1376.72 159.33 1374.6 159.33"/><polygon class="cls-4" points="1381.03 152.91 1380.38 150.88 1379.73 152.91 1377.61 152.91 1379.33 154.14 1378.69 156.14 1380.38 154.9 1382.07 156.14 1381.43 154.14 1383.15 152.91 1381.03 152.91"/><polygon class="cls-4" points="1385.48 144.1 1383.36 144.1 1382.7 142.08 1382.06 144.11 1379.94 144.1 1381.66 145.34 1381.02 147.34 1382.7 146.1 1384.4 147.34 1383.76 145.34 1385.48 144.1"/><polygon class="cls-4" points="1378.69 138.58 1380.38 137.35 1382.08 138.58 1381.43 136.58 1383.15 135.35 1381.03 135.35 1380.38 133.33 1379.73 135.35 1377.61 135.35 1379.33 136.58 1378.69 138.58"/><polygon class="cls-4" points="1373.98 126.93 1373.33 128.95 1371.21 128.95 1372.93 130.19 1372.29 132.19 1373.98 130.95 1375.67 132.19 1375.03 130.19 1376.75 128.95 1374.63 128.95 1373.98 126.93"/><path class="cls-3" d="M368.64,206.74c-3.72,0-5.93-2.33-5.93-6.41v-7.88c0-5.76,3.56-6.41,8.51-6.41h1.9c4.26,0,5.57,1.85,5.57,5.87v.65h-2.31V192c0-2.85-.6-3.91-3.59-3.91h-1.3c-4.78,0-6.47.57-6.47,4.29V198c0,4.64.19,6.74,4.05,6.74h2.74c3.7,0,4.84-.52,4.84-3.43v-1.63H379v1.91c0,4.67-3,5.18-7.06,5.18Z"/><path class="cls-3" d="M387.3,192.16c5.3,0,6.33,1.27,6.33,7.3s-1,7.28-6.33,7.28-6.33-1.28-6.33-7.28,1-7.3,6.33-7.3m0,12.84c3.83,0,4.1-.59,4.1-5.54s-.27-5.57-4.1-5.57-4.1.6-4.1,5.57.27,5.54,4.1,5.54"/><path class="cls-3" d="M399.07,194.06h.05c.68-1.72,2.78-1.91,4.41-1.91,3.66,0,5.43,1,5.37,4.95v9.48h-2.14v-9.65c0-2.6-1-3-3.42-3-3.51,0-4.27,1.09-4.27,4.38v8.31h-2.15V192.32h2.15Z"/><path class="cls-3" d="M414.83,194.06h.05c.68-1.72,2.77-1.91,4.4-1.91,3.67,0,5.44,1,5.38,4.95v9.48h-2.14v-9.65c0-2.6-1-3-3.42-3-3.51,0-4.27,1.09-4.27,4.38v8.31h-2.15V192.32h2.15Z"/><path class="cls-3" d="M440.48,202.26v.52c0,3.77-2.91,4-6.09,4-5.56,0-6.41-1.85-6.41-7.28,0-5.92,1.31-7.31,6.41-7.31,4.62,0,6.09,1.06,6.09,6.33v1.44H430.21c0,4.51.33,5.08,4.18,5.08,2.94,0,3.89-.18,3.89-2.2v-.54Zm-2.23-4.07c-.11-4.05-.6-4.3-3.86-4.3-3.88,0-4,1-4.18,4.3Z"/><path class="cls-3" d="M455.64,201.42v.78c0,4-2.66,4.54-6.06,4.54-5.92,0-6.33-2.28-6.33-7.58,0-4.64.82-7,6-7,3.45,0,6.17.39,6.17,4.43V197h-2.15v-.43c0-2.58-1.41-2.64-3.88-2.64-3.81,0-3.89,1.31-3.89,5.87,0,4,.16,5.24,4.35,5.24,2.69,0,3.67-.3,3.67-2.88v-.7Z"/><path class="cls-3" d="M466.16,194.06h-5.52v9c0,1.55.44,1.9,2,1.9,2,0,2-1.06,2-2.41v-1.07h2v1.07c0,2.82-1.17,4.15-4.1,4.15-3.34,0-4.1-1-4.1-4.29v-8.39h-1.9v-1.74h1.9v-3.45h2.14v3.45h5.52Z"/><path class="cls-3" d="M470.7,188.57h-2.15V186.2h2.15Zm0,18h-2.15V192.32h2.15Z"/><path class="cls-3" d="M476.56,194.06h.06c.68-1.72,2.77-1.91,4.4-1.91,3.67,0,5.43,1,5.38,4.95v9.48h-2.14v-9.65c0-2.6-1-3-3.43-3-3.51,0-4.27,1.09-4.27,4.38v8.31h-2.14V192.32h2.14Z"/><path class="cls-3" d="M502.11,208.26c0,3.81-2.83,4.65-6.28,4.65s-5.92-.52-5.71-4.65h2.15c0,2.75,1.31,2.91,3.56,2.91,2.55,0,4.1-.27,4.13-3.07v-3.28h-.06c-.59,1.73-2.9,1.92-4.59,1.92-4.61,0-5.62-2.39-5.62-7.28s.74-7.31,5.62-7.31c2,0,3.75.27,4.59,2l.06,0v-1.79h2.15Zm-2.15-8.8c0-4-.27-5.57-4.13-5.57s-3.91,1.82-3.91,5.57c0,3.42-.24,5.54,3.91,5.54s4.13-2.36,4.13-5.54"/><path class="cls-3" d="M517.19,194.52h0c.76-1.85,2.94-2.37,4.76-2.37s3.91.49,4.4,2.37c1-1.9,3.15-2.37,5.08-2.37,3.67,0,4.94,1.5,4.94,5v9.4h-2.15V197.4c0-2.42-.35-3.51-3.12-3.51-3,0-4.34.87-4.34,3.94v8.75h-2.15V197c-.08-1.91-.08-3.13-3.18-3.13-2.83,0-4.29,1.2-4.29,4.11v8.58H515V192.32h2.15Z"/><path class="cls-3" d="M549.74,206.58v-1.47l0-.05c-.82,1.63-2.91,1.68-4.7,1.68-3.21,0-5.44-.59-5.44-4.32,0-3.94,2-4.48,5.57-4.48,1.41,0,4.18.14,4.48,1.44h.14v-2.63c0-2.61-1.38-2.86-3.8-2.86-1.69,0-3.75,0-3.73,2v.49H540V196c0-3.67,2.53-3.91,5.7-3.89,3.59,0,6.22.36,6.19,4.7v9.73Zm0-4.24c0-2.69-1.61-2.66-4.32-2.66s-3.59.16-3.59,2.47c0,2.72,1.11,2.85,3.59,2.85,2.14,0,4.32-.05,4.32-2.66"/><path class="cls-3" d="M563.11,194.06H557.6v9c0,1.55.43,1.9,2,1.9,2,0,2-1.06,2-2.41v-1.07h2v1.07c0,2.82-1.16,4.15-4.1,4.15-3.34,0-4.1-1-4.1-4.29v-8.39h-1.9v-1.74h1.9v-3.45h2.15v3.45h5.51Z"/><path class="cls-3" d="M573.05,194.06h-5.51v9c0,1.55.43,1.9,2,1.9,2,0,2-1.06,2-2.41v-1.07h2v1.07c0,2.82-1.17,4.15-4.1,4.15-3.34,0-4.11-1-4.11-4.29v-8.39h-1.9v-1.74h1.9v-3.45h2.15v3.45h5.51Z"/><path class="cls-3" d="M587.51,202.26v.52c0,3.77-2.91,4-6.09,4-5.56,0-6.41-1.85-6.41-7.28,0-5.92,1.31-7.31,6.41-7.31,4.62,0,6.09,1.06,6.09,6.33v1.44H577.24c0,4.51.33,5.08,4.18,5.08,2.94,0,3.89-.18,3.89-2.2v-.54Zm-2.23-4.07c-.11-4.05-.59-4.3-3.86-4.3-3.88,0-4,1-4.18,4.3Z"/><path class="cls-3" d="M592.62,192.32l-.11,1.76,0,.06c.74-1.58,2.45-2,4.05-2,2.75,0,4,1.36,4,4v1h-2v-1c0-1.77-.6-2.37-2.39-2.37-2.66,0-3.53,1.28-3.48,3.81v8.88h-2.14V192.32Z"/><path class="cls-3" d="M614.11,196h-2.23v-.55c0-1.43-1.08-1.43-3.34-1.43-2.69,0-4,0-4,1.74,0,2.55.71,2.36,2.93,2.47,3.67.21,7-.36,7,4.29,0,4-2.77,4.18-6,4.18s-6.33-.16-6.33-3.34v-1.33h2.23v1.11c0,1.36.84,1.66,4.1,1.66,1.47,0,3.72.33,3.72-2.2s-1.11-2.17-3.72-2.34c-3.09-.21-6.22.11-6.22-3.94s2.37-4.21,6.22-4.21c2.5,0,5.57.11,5.57,3.34Z"/><rect class="cls-3" x="90" y="112.2" width="4.8" height="4.81"/><rect class="cls-3" x="90" y="121.69" width="4.8" height="37.84"/><path class="cls-5" d="M104.17,112.2H109v9.48h18.84v4.69H109V150a4.72,4.72,0,0,0,4.68,4.81h14.16v4.68H113.65a9.5,9.5,0,0,1-9.48-9.49V126.37H97.08v-4.69h7.09Z"/><path class="cls-3" d="M79.92,135.86H48.35c.12-3.48,1-5.89,2.64-7.21a8.91,8.91,0,0,1,4.56-1.92,40,40,0,0,1,8.65-.6,41.27,41.27,0,0,1,8.64.6,9.39,9.39,0,0,1,4.56,1.92c1.68,1.32,2.52,3.73,2.52,7.21m-31.57,4.8h37a44.53,44.53,0,0,0-.72-9.37,14,14,0,0,0-2.52-5.4,11.17,11.17,0,0,0-6-3.72,55,55,0,0,0-12-1,56.32,56.32,0,0,0-12.13,1,10.43,10.43,0,0,0-5.88,3.72,11.23,11.23,0,0,0-2.52,5.4,52,52,0,0,0,0,18.62,11.27,11.27,0,0,0,2.52,5.41A10.43,10.43,0,0,0,52,159c2.52.72,6.48,1,12.13,1s9.6-.24,12-1a11.17,11.17,0,0,0,6-3.72,13.51,13.51,0,0,0,2.16-4.09H78.6a12.71,12.71,0,0,1-1.2,1.44,10.56,10.56,0,0,1-4.56,1.92,52.72,52.72,0,0,1-8.64.49,51,51,0,0,1-8.65-.49A10,10,0,0,1,51,152.67c-1.44-1.2-2.28-3.24-2.52-6-.12-1.93-.12-4.09-.12-6"/><path class="cls-5" d="M85.32,225.7a85.1,85.1,0,1,0,0-170.2A83.66,83.66,0,0,0,42.83,66.91l4.68,8.17A74.85,74.85,0,0,1,85.32,65,75.67,75.67,0,1,1,9.7,140.66H.22a85.11,85.11,0,0,0,85.1,85"/><path class="cls-6" d="M85.32,206.84a66,66,0,0,0,57.25-33.14L134.41,169a56.76,56.76,0,1,1,0-56.81l8.16-4.69a66.15,66.15,0,1,0-57.25,99.33"/><path class="cls-3" d="M582,150.39h4.44v.72a6.13,6.13,0,0,0,.48,3,2.86,2.86,0,0,0,1.8,1.45c1.2.47,4.56.6,10.32.6a56.94,56.94,0,0,0,7.44-.24,5.6,5.6,0,0,0,3-.84,3.7,3.7,0,0,0,1.2-3,3.53,3.53,0,0,0-1.44-3.24,13.62,13.62,0,0,0-5.41-.83c-.83,0-4.92,0-12-.12a16,16,0,0,1-4.56-.49,6.45,6.45,0,0,1-2.76-1.2c-1.44-1.08-2-2.88-2-5.52s.84-4.68,2.64-6a10.25,10.25,0,0,1,4.44-1.32,60,60,0,0,1,9.12-.48,46.81,46.81,0,0,1,9.72.72,7.48,7.48,0,0,1,4.69,2.64,5.22,5.22,0,0,1,1,1.8,24.29,24.29,0,0,1,.12,3.36h-4.32a4.94,4.94,0,0,0-.85-3.24,7,7,0,0,0-3.35-1.2,51.35,51.35,0,0,0-7.09-.36c-5.64,0-9.12.36-10.32,1.2a3.15,3.15,0,0,0-1.32,3c0,1.44.48,2.4,1.44,2.76s3.12.72,6.36.6c3,0,7.08.12,12,.24,3,.12,5.16.84,6.48,2s1.92,3.12,1.92,5.64a11.22,11.22,0,0,1-.6,3.85,5.47,5.47,0,0,1-2.28,2.4,11.07,11.07,0,0,1-4.45,1.2,82.33,82.33,0,0,1-8.88.36,96,96,0,0,1-9.72-.36,11.29,11.29,0,0,1-4.56-1.44,5,5,0,0,1-2-2.4,9.22,9.22,0,0,1-.6-4Zm-8.16,9.12h4.08V121.7H573.8ZM553,147.5c-3.36,0-5.76.12-7.08.24a11.06,11.06,0,0,0-3,.6,4,4,0,0,0-1.56,3.61,3.44,3.44,0,0,0,1.92,3.48c1.08.48,4.56.72,10.56.72,4.44,0,7.45-.24,8.77-.85a3.34,3.34,0,0,0,2.16-3.47,3.22,3.22,0,0,0-2.41-3.37c-1.55-.59-4.68-1-9.36-1m-10.56-6.36h-4.32a4.5,4.5,0,0,1-.12-1.2c0-2.64,1.08-4.56,3.12-5.52s6-1.56,11.64-1.56a57.56,57.56,0,0,1,9.6.6,9.16,9.16,0,0,1,4.69,2.4,7.13,7.13,0,0,1,1.8,3.24,40.4,40.4,0,0,1,.36,6.6v13.81h-4.08v-3.12h-.25a6.69,6.69,0,0,1-3.72,2.88,38.19,38.19,0,0,1-8.16.6,85.56,85.56,0,0,1-9.6-.36,10.17,10.17,0,0,1-4.08-1.32,7.16,7.16,0,0,1-1.92-2.4,11.88,11.88,0,0,1-.48-4,10.59,10.59,0,0,1,.84-4.69,5,5,0,0,1,2.76-2.4c1.32-.6,4.68-1,9.72-1a62.76,62.76,0,0,1,10.68.6,6.05,6.05,0,0,1,3.85,2.29h.36v-2.89c0-2.28-.48-4-1.32-4.92a4.89,4.89,0,0,0-3.37-1.8,35.71,35.71,0,0,0-7.32-.48c-4.56,0-7.44.24-8.76.72s-1.92,1.68-1.92,3.48ZM529,126.62h4.08V121.7H529Zm0,32.89h4.08V133.22H529Zm-31,0h4.08V147.38c0-4.56.72-7.56,2.16-8.88s4.56-1.92,9.6-1.92c3.37,0,5.52.48,6.61,1.44a3.23,3.23,0,0,1,1,1.8,12,12,0,0,1,.37,3.36v1.92H526v-2.76c0-3.48-.84-5.88-2.65-7.44a6.79,6.79,0,0,0-3.24-1.56,31.09,31.09,0,0,0-5.76-.48c-2.64,0-4.56.12-5.88.24a14.36,14.36,0,0,0-3.12.84,7.71,7.71,0,0,0-3,2.88h-.24v-3.6h-4.08Zm-8.4-15.73c0-2.64-.72-4.44-2-5.4a8.07,8.07,0,0,0-3.72-1.44,52.56,52.56,0,0,0-7.09-.36,38.57,38.57,0,0,0-6.12.36,7.88,7.88,0,0,0-3.36,1.32c-1.32,1-2,2.88-2.28,5.52Zm.12,7.68h4.32q0,4.69-3.24,6.49c-2.16,1.32-5.88,1.92-11.16,1.92a97,97,0,0,1-10.09-.48,12.29,12.29,0,0,1-5.16-1.8q-4-2.88-4-11.17c0-3.84.6-6.84,1.68-8.76a8,8,0,0,1,4.68-3.72c1.92-.72,5.4-1.08,10.09-1.08a47.36,47.36,0,0,1,9.84.72,9.6,9.6,0,0,1,4.8,2.76,10.07,10.07,0,0,1,2,4.08,30.23,30.23,0,0,1,.6,6.85H464.93c.12,3.36.72,5.51,1.92,6.71a7.11,7.11,0,0,0,3.84,1.81,71.65,71.65,0,0,0,8.53.36,42,42,0,0,0,6.48-.36,5.5,5.5,0,0,0,3.12-1.56,5,5,0,0,0,1-2.77m-55.1-18.24H428.2v3.6h6.48v12.72a24,24,0,0,0,.25,4.69,6.51,6.51,0,0,0,1.2,2.64,6.09,6.09,0,0,0,3.59,2.28,23.45,23.45,0,0,0,6.61.72,23,23,0,0,0,6.48-.72,7.45,7.45,0,0,0,3.48-2.53,9.29,9.29,0,0,0,1.08-2.75,40.14,40.14,0,0,0,.24-4.56v-1.69h-4.08v1.69a19.2,19.2,0,0,1-.24,3.35,2.63,2.63,0,0,1-.6,1.69,3.31,3.31,0,0,1-1.92,1.44,17.38,17.38,0,0,1-4.08.36,21.59,21.59,0,0,1-4.56-.36,4.73,4.73,0,0,1-2.41-1.32,6.26,6.26,0,0,1-.71-1.69,29.55,29.55,0,0,1-.24-4.56v-11.4h18.36v-3.6H438.77v-6.48h-4.09Zm-24.6,14.28c-3.36,0-5.76.12-7.08.24a9,9,0,0,0-2.88.6,3.8,3.8,0,0,0-1.68,3.61,3.44,3.44,0,0,0,1.92,3.48c1.08.48,4.56.72,10.68.72,4.32,0,7.32-.24,8.64-.85a3.34,3.34,0,0,0,2.16-3.47,3.23,3.23,0,0,0-2.4-3.37c-1.56-.59-4.68-1-9.36-1m-10.56-6.36H395.2c0-.48-.13-.84-.13-1.2,0-2.64,1.09-4.56,3.13-5.52s6-1.56,11.64-1.56a57.56,57.56,0,0,1,9.6.6,9.17,9.17,0,0,1,4.68,2.4,7.13,7.13,0,0,1,1.8,3.24,40.4,40.4,0,0,1,.36,6.6v13.81H422.2l.12-3.12h-.24a7.7,7.7,0,0,1-3.72,2.88,39.58,39.58,0,0,1-8.28.6,85.56,85.56,0,0,1-9.6-.36,10.17,10.17,0,0,1-4.08-1.32,7.16,7.16,0,0,1-1.92-2.4,11.88,11.88,0,0,1-.48-4,10.59,10.59,0,0,1,.84-4.69,5,5,0,0,1,2.75-2.4c1.33-.6,4.69-1,9.85-1a61,61,0,0,1,10.56.6,5.77,5.77,0,0,1,3.84,2.29h.36v-2.89c0-2.28-.48-4-1.32-4.92a4.86,4.86,0,0,0-3.36-1.8,35.71,35.71,0,0,0-7.32-.48c-4.44,0-7.44.24-8.76.72s-1.92,1.68-1.92,3.48Zm-70.58,18.37h5V126.38h2.16l21.37,33.13h4.08l21.12-33.13h2.16v33.13h5V121.7h-10.2l-20.16,32.05L339,121.7H328.94Zm-43.09,0H292l8-22.33h.36l8.17,22.33h6.12l12.24-26.29h-4.8l-10.2,22.45h-.36l-8.05-22.45h-6.6L289,155.67h-.36l-10.08-22.45h-4.68Zm-29.05-12c-3.36,0-5.76.12-7.2.24a11,11,0,0,0-2.88.6A4,4,0,0,0,245,152a3.53,3.53,0,0,0,2,3.48c1,.48,4.56.72,10.56.72,4.44,0,7.33-.24,8.77-.85a3.71,3.71,0,0,0-.24-6.84c-1.57-.59-4.69-1-9.37-1m-10.68-6.36H241.8v-1.2c0-2.64,1-4.56,3.12-5.52s5.88-1.56,11.64-1.56a57.7,57.7,0,0,1,9.61.6,8.77,8.77,0,0,1,4.56,2.4,5.47,5.47,0,0,1,1.8,3.24,28.05,28.05,0,0,1,.48,6.6v13.81h-4.2l.12-3.12h-.24a7.2,7.2,0,0,1-3.72,2.88,39.2,39.2,0,0,1-8.17.6,84.1,84.1,0,0,1-9.6-.36,10.17,10.17,0,0,1-4.08-1.32,5.93,5.93,0,0,1-1.92-2.4,11.49,11.49,0,0,1-.6-4,12.62,12.62,0,0,1,.84-4.69,5.49,5.49,0,0,1,2.76-2.4c1.44-.6,4.68-1,9.84-1a61,61,0,0,1,10.56.6,5.5,5.5,0,0,1,3.85,2.29h.36v-2.89c0-2.28-.36-4-1.2-4.92a5.14,5.14,0,0,0-3.36-1.8,37.26,37.26,0,0,0-7.45-.48q-6.66,0-8.64.72a3.42,3.42,0,0,0-2,3.48Zm-47.05-.6h18.48c4.92,0,8-.12,9.49-.24a8.55,8.55,0,0,0,3.36-1c1.32-.84,1.92-3,1.92-6.36,0-2.76-.6-4.68-1.8-5.52a9.14,9.14,0,0,0-3.6-1.08c-1.68-.12-4.8-.24-9.37-.24H199.07Zm-5,19V121.7h23.52c6.37.12,10.45.24,12.25.48a7.71,7.71,0,0,1,6.48,4.2,14.64,14.64,0,0,1,1.2,6.72,27.17,27.17,0,0,1-.36,5,4.62,4.62,0,0,1-1.32,2.64,8.23,8.23,0,0,1-4.56,2.4,6.42,6.42,0,0,1,3.84,1.8,6.17,6.17,0,0,1,1.44,2.76,36,36,0,0,1,.36,6.36v5.41h-5v-3.6c0-3.13-.12-5.28-.24-6.37a4.73,4.73,0,0,0-4.08-4.32,19.48,19.48,0,0,0-2.52-.12c-.72-.12-3.13-.12-7.45-.12H199.07v14.53Z"/><path class="cls-3" d="M13.09,3S8.81,2.52,7,2.52C4,2.52,2.4,3.58,2.4,5.94c0,2.73,1.48,3.18,5.21,4,4.25.94,6.13,2,6.13,5.64,0,4.63-2.59,6.45-6.81,6.45a56.67,56.67,0,0,1-6.74-.67l.24-1.94S4.62,20,6.81,20c3,0,4.56-1.3,4.56-4.21,0-2.37-1.26-3-4.75-3.7-4.4-.94-6.62-2-6.62-6S2.71.45,6.87.45a53.53,53.53,0,0,1,6.44.61Z"/><path class="cls-3" d="M29.36,6.61V21.76H27V20.7a10.52,10.52,0,0,1-4.55,1.36c-4.32,0-5.21-2-5.21-7.54V6.61h2.31v7.88c0,4.18.37,5.54,3.23,5.54A9.45,9.45,0,0,0,27,18.91V6.61Z"/><path class="cls-3" d="M33.79,6.61h2.28V7.7a10.55,10.55,0,0,1,4.62-1.4c3.88,0,5.57,2.34,5.57,7.7,0,5.94-2,8.06-6.71,8.06a20.46,20.46,0,0,1-3.45-.33v6.76H33.79ZM36.1,9.55V19.76a23.63,23.63,0,0,0,3.33.33c3.38,0,4.49-1.73,4.49-6.09,0-4.15-1.32-5.67-3.57-5.67A10.07,10.07,0,0,0,36.1,9.55Z"/><path class="cls-3" d="M50,6.61H52.3V7.7a10.55,10.55,0,0,1,4.62-1.4c3.88,0,5.58,2.34,5.58,7.7,0,5.94-2,8.06-6.72,8.06a20.46,20.46,0,0,1-3.45-.33v6.76H50Zm2.31,2.94V19.76a23.63,23.63,0,0,0,3.33.33c3.38,0,4.49-1.73,4.49-6.09,0-4.15-1.32-5.67-3.57-5.67A10.13,10.13,0,0,0,52.33,9.55Z"/><path class="cls-3" d="M78.76,14c0,5.52-1.39,8.06-6.59,8.06s-6.6-2.54-6.6-8.06c0-5.21,1.73-7.7,6.6-7.7S78.76,8.79,78.76,14Zm-2.37,0c0-4.21-.93-5.73-4.22-5.73S68,9.79,68,14s.58,6.09,4.22,6.09S76.39,18.3,76.39,14Z"/><path class="cls-3" d="M82.51,6.61h2.28V8.67a17.57,17.57,0,0,1,5.64-2.4V8.58a22.3,22.3,0,0,0-5.61,2.06V21.76H82.51Z"/><path class="cls-3" d="M96.25,8.58v7.24c0,3.3.22,4.24,2.22,4.24.86,0,2.74-.18,2.74-.18l.15,1.88a27.54,27.54,0,0,1-3.14.33c-3.17,0-4.25-1.18-4.25-5.54v-8H91.78v-2H94V2h2.28V6.61h4.9v2Z"/><path class="cls-3" d="M115.35,19.79l.06,1.79a55.07,55.07,0,0,1-6,.48c-4.59,0-6.1-2.64-6.1-7.79,0-5.75,2.53-8,6.44-8,4.1,0,6.19,2.12,6.19,7.09l-.12,1.73H105.64c0,3.24,1,4.94,4,4.94C112,20.06,115.35,19.79,115.35,19.79Zm-1.73-6.49c0-3.75-1.17-5.09-3.88-5.09s-4.1,1.43-4.13,5.09Z"/><path class="cls-3" d="M131.36,21.76h-2.28v-1a11.18,11.18,0,0,1-4.68,1.33c-3,0-5.54-1.21-5.54-7.76,0-5.33,1.75-8,6.43-8a26.05,26.05,0,0,1,3.79.4V0h2.28Zm-2.28-2.85V8.64a26.4,26.4,0,0,0-3.66-.37c-3.24,0-4.19,2.09-4.19,6,0,4.91,1.63,5.73,3.45,5.73A11.29,11.29,0,0,0,129.08,18.91Z"/><path class="cls-3" d="M155,13.94c0,6-1.67,8.12-7.27,8.12-1.85,0-5.15-.33-5.15-.33V0h2.28V7.36a12.87,12.87,0,0,1,4.53-1.06C153.6,6.3,155,8.49,155,13.94Zm-2.34,0c0-3.91-.8-5.61-3.52-5.61a13.12,13.12,0,0,0-4.28.88V19.88s2,.15,2.84.15C151.94,20,152.68,18.18,152.68,13.94Z"/><path class="cls-3" d="M159.39,6.61l3.85,13.18h1l3.88-13.18h2.31L164,28.49h-2.31l2-6.73h-2.28L157.08,6.61Z"/></g></g></svg>