<svg xmlns="http://www.w3.org/2000/svg" viewBox="0 0 616.57 325.6"><defs><style>.cls-1,.cls-2{fill:#fff;}.cls-2{fill-rule:evenodd;}.cls-3{fill:#164194;}.cls-4{fill:#ffed00;}</style></defs><g id="Layer_2" data-name="Layer 2"><g id="Layer_1-2" data-name="Layer 1"><path class="cls-1" d="M370.12,206.74c-3.72,0-5.92-2.33-5.92-6.41v-7.88c0-5.76,3.56-6.41,8.5-6.41h1.9c4.27,0,5.57,1.85,5.57,5.87v.65h-2.31V192c0-2.85-.6-3.91-3.58-3.91H373c-4.78,0-6.47.57-6.47,4.29V198c0,4.64.2,6.74,4.05,6.74h2.75c3.69,0,4.83-.52,4.83-3.43v-1.63h2.31v1.91c0,4.66-3,5.18-7.06,5.18Z"/><path class="cls-1" d="M388.79,192.16c5.29,0,6.33,1.27,6.33,7.3s-1,7.28-6.33,7.28-6.33-1.28-6.33-7.28,1-7.3,6.33-7.3m0,12.84c3.83,0,4.1-.59,4.1-5.54s-.27-5.57-4.1-5.57-4.11.6-4.11,5.57S385,205,388.79,205"/><path class="cls-1" d="M400.55,194.06h.06c.68-1.72,2.77-1.91,4.4-1.91,3.67,0,5.43,1,5.38,4.95v9.48h-2.15v-9.65c0-2.6-1-3-3.42-3-3.51,0-4.27,1.09-4.27,4.38v8.31h-2.14V192.32h2.14Z"/><path class="cls-1" d="M416.31,194.06h.06c.68-1.72,2.77-1.91,4.4-1.91,3.67,0,5.43,1,5.38,4.95v9.48H424v-9.65c0-2.6-1-3-3.42-3-3.51,0-4.27,1.09-4.27,4.38v8.31h-2.14V192.32h2.14Z"/><path class="cls-1" d="M442,202.26v.52c0,3.77-2.91,4-6.09,4-5.56,0-6.4-1.85-6.4-7.28,0-5.92,1.3-7.31,6.4-7.31,4.62,0,6.09,1.06,6.09,6.33v1.44H431.69c0,4.51.33,5.08,4.18,5.08,2.94,0,3.89-.18,3.89-2.2v-.54Zm-2.23-4.07c-.11-4.05-.59-4.3-3.86-4.3-3.88,0-4,1-4.18,4.3Z"/><path class="cls-1" d="M457.12,201.42v.78c0,4-2.66,4.54-6.05,4.54-5.93,0-6.34-2.28-6.34-7.58,0-4.64.82-7,6-7,3.45,0,6.17.39,6.17,4.43V197h-2.15v-.43c0-2.58-1.41-2.64-3.88-2.64-3.8,0-3.89,1.31-3.89,5.87,0,4,.17,5.24,4.35,5.24,2.69,0,3.67-.3,3.67-2.88v-.7Z"/><path class="cls-1" d="M467.64,194.06h-5.51v9c0,1.55.43,1.9,2,1.9,2,0,2-1.06,2-2.41v-1.07h2v1.07c0,2.82-1.16,4.15-4.1,4.15-3.34,0-4.1-1-4.1-4.29v-8.39h-1.9v-1.74H460v-3.45h2.15v3.45h5.51Z"/><path class="cls-1" d="M472.18,188.57H470V186.2h2.14Zm0,18H470V192.32h2.14Z"/><path class="cls-1" d="M478.05,194.06h.05c.68-1.72,2.78-1.91,4.41-1.91,3.66,0,5.43,1,5.37,4.95v9.48h-2.14v-9.65c0-2.6-1-3-3.43-3-3.5,0-4.26,1.09-4.26,4.38v8.31H475.9V192.32h2.15Z"/><path class="cls-1" d="M503.59,208.26c0,3.81-2.83,4.65-6.28,4.65s-5.92-.52-5.7-4.65h2.15c0,2.75,1.3,2.91,3.55,2.91,2.56,0,4.11-.27,4.13-3.07v-3.28h-.05c-.6,1.73-2.91,1.92-4.59,1.92-4.62,0-5.63-2.39-5.63-7.28s.74-7.31,5.63-7.31c2,0,3.75.27,4.59,2l.05,0v-1.79h2.15Zm-2.15-8.8c0-4-.27-5.57-4.13-5.57s-3.91,1.82-3.91,5.57c0,3.42-.24,5.54,3.91,5.54s4.13-2.36,4.13-5.54"/><path class="cls-1" d="M518.67,194.52h.06c.76-1.85,2.93-2.37,4.75-2.37s3.91.49,4.4,2.37c1-1.9,3.15-2.37,5.08-2.37,3.67,0,4.95,1.5,4.95,5v9.4h-2.15V197.4c0-2.42-.35-3.51-3.13-3.51-3,0-4.34.87-4.34,3.94v8.75h-2.15V197c-.08-1.9-.08-3.12-3.17-3.12-2.83,0-4.3,1.2-4.3,4.11v8.58h-2.14V192.32h2.14Z"/><path class="cls-1" d="M551.23,206.58v-1.47l-.06-.05c-.82,1.63-2.91,1.68-4.7,1.68-3.21,0-5.43-.59-5.43-4.32,0-3.94,2-4.48,5.57-4.48,1.41,0,4.18.14,4.48,1.44h.14v-2.63c0-2.61-1.39-2.86-3.81-2.86-1.68,0-3.75,0-3.72,2v.49h-2.23V196c0-3.67,2.53-3.91,5.71-3.89,3.58,0,6.22.36,6.19,4.7v9.73Zm-.06-4.24c0-2.69-1.6-2.66-4.32-2.66-2.55,0-3.59.16-3.59,2.47,0,2.72,1.12,2.85,3.59,2.85,2.15,0,4.32-.05,4.32-2.66"/><path class="cls-1" d="M564.59,194.06h-5.51v9c0,1.55.43,1.9,2,1.9,2,0,2-1.06,2-2.41v-1.07h2v1.07c0,2.82-1.17,4.15-4.11,4.15-3.34,0-4.1-1-4.1-4.29v-8.39H555v-1.74h1.9v-3.45h2.15v3.45h5.51Z"/><path class="cls-1" d="M574.54,194.06H569v9c0,1.55.43,1.9,2,1.9,2,0,2-1.06,2-2.41v-1.07h2v1.07c0,2.82-1.17,4.15-4.1,4.15-3.34,0-4.1-1-4.1-4.29v-8.39H565v-1.74h1.9v-3.45H569v3.45h5.51Z"/><path class="cls-1" d="M589,202.26v.52c0,3.77-2.9,4-6.08,4-5.57,0-6.41-1.85-6.41-7.28,0-5.92,1.3-7.31,6.41-7.31,4.61,0,6.08,1.06,6.08,6.33v1.44H578.72c0,4.51.33,5.08,4.19,5.08,2.93,0,3.88-.18,3.88-2.2v-.54Zm-2.22-4.07c-.11-4.05-.6-4.3-3.86-4.3-3.89,0-4,1-4.19,4.3Z"/><path class="cls-1" d="M594.1,192.32l-.11,1.76.06.06c.73-1.58,2.44-2,4.05-2,2.74,0,4,1.36,4,4v1h-2v-1c0-1.77-.59-2.37-2.38-2.37-2.67,0-3.54,1.28-3.48,3.81v8.88H592V192.32Z"/><path class="cls-1" d="M615.6,196h-2.23v-.55c0-1.44-1.09-1.44-3.34-1.44-2.69,0-4,0-4,1.75,0,2.55.71,2.36,2.94,2.47,3.66.21,7-.36,7,4.29,0,4-2.78,4.18-6,4.18s-6.33-.16-6.33-3.34v-1.33h2.22v1.11c0,1.36.84,1.66,4.11,1.66,1.46,0,3.72.33,3.72-2.2s-1.12-2.17-3.72-2.34c-3.1-.21-6.23.11-6.23-3.94s2.37-4.21,6.23-4.21c2.49,0,5.57.11,5.57,3.34Z"/><rect class="cls-1" x="91.49" y="112.22" width="4.8" height="4.8"/><rect class="cls-1" x="91.49" y="121.7" width="4.8" height="37.81"/><path class="cls-2" d="M105.65,112.22h4.8v9.48H129.3v4.68H110.45V150a4.72,4.72,0,0,0,4.68,4.81H129.3v4.68H115.13a9.5,9.5,0,0,1-9.48-9.49V126.38H98.57V121.7h7.08Z"/><path class="cls-1" d="M81.4,135.86H49.84c.12-3.48,1-5.88,2.64-7.2A8.91,8.91,0,0,1,57,126.74a39.9,39.9,0,0,1,8.64-.6,41.27,41.27,0,0,1,8.64.6,9.39,9.39,0,0,1,4.56,1.92q2.52,2,2.52,7.2m-31.56,4.8h37a45.11,45.11,0,0,0-.72-9.36,14.16,14.16,0,0,0-2.53-5.4,11.17,11.17,0,0,0-6-3.72,55.14,55.14,0,0,0-12-1,56.43,56.43,0,0,0-12.12,1,10.49,10.49,0,0,0-5.89,3.72A11.23,11.23,0,0,0,45,131.3a52,52,0,0,0,0,18.61,11.16,11.16,0,0,0,2.52,5.39A10.45,10.45,0,0,0,53.44,159c2.52.72,6.48,1,12.12,1s9.6-.24,12-1a11.13,11.13,0,0,0,6-3.73,13.41,13.41,0,0,0,2.16-4.07H80.08a12.64,12.64,0,0,1-1.2,1.43,10.68,10.68,0,0,1-4.56,1.93,54.09,54.09,0,0,1-8.64.48,52.21,52.21,0,0,1-8.64-.48,10.06,10.06,0,0,1-4.56-1.93c-1.44-1.2-2.28-3.24-2.52-6-.12-1.93-.12-4.09-.12-6"/><path class="cls-2" d="M86.8,225.64a85,85,0,1,0,0-170.08A83.59,83.59,0,0,0,44.31,67L49,75.13A74.78,74.78,0,0,1,86.8,65a75.62,75.62,0,1,1-75.61,75.62H1.71a85.08,85.08,0,0,0,85.09,85"/><path class="cls-2" d="M86.8,206.8a66,66,0,0,0,57.26-33.13L135.9,169a56.72,56.72,0,1,1,0-56.77l8.16-4.69A66.14,66.14,0,1,0,86.8,206.8"/><path class="cls-1" d="M583.44,150.39h4.44v.72a6.13,6.13,0,0,0,.48,3,2.92,2.92,0,0,0,1.8,1.45c1.2.47,4.56.6,10.32.6a57,57,0,0,0,7.45-.24,5.59,5.59,0,0,0,3-.84,3.67,3.67,0,0,0,1.2-3,3.53,3.53,0,0,0-1.44-3.24,13.56,13.56,0,0,0-5.4-.83c-.84,0-4.92,0-12-.12a16.05,16.05,0,0,1-4.56-.49,6.45,6.45,0,0,1-2.76-1.2c-1.44-1.08-2-2.88-2-5.52s.84-4.68,2.64-6a10.25,10.25,0,0,1,4.44-1.32,60.24,60.24,0,0,1,9.13-.48,46.81,46.81,0,0,1,9.72.72,7.48,7.48,0,0,1,4.68,2.64,5.22,5.22,0,0,1,1,1.8,24.29,24.29,0,0,1,.12,3.36h-4.32a5,5,0,0,0-.84-3.24,7,7,0,0,0-3.36-1.2,51.19,51.19,0,0,0-7.08-.36c-5.64,0-9.13.36-10.33,1.2a3.15,3.15,0,0,0-1.32,3c0,1.44.48,2.4,1.45,2.76s3.11.72,6.36.6c3,0,7.08.12,12,.24,3,.12,5.16.84,6.48,2s1.92,3.12,1.92,5.64a11.22,11.22,0,0,1-.6,3.85,5.47,5.47,0,0,1-2.28,2.4,11.06,11.06,0,0,1-4.44,1.2,82.33,82.33,0,0,1-8.88.36,96.06,96.06,0,0,1-9.73-.36,11.35,11.35,0,0,1-4.56-1.44,5,5,0,0,1-2-2.4,9.22,9.22,0,0,1-.6-4Zm-8.16,9.12h4.08V121.7h-4.08Zm-20.77-12c-3.36,0-5.76.12-7.08.24a11.06,11.06,0,0,0-3,.6,4,4,0,0,0-1.56,3.61,3.44,3.44,0,0,0,1.92,3.48c1.08.48,4.56.72,10.57.72,4.44,0,7.44-.24,8.76-.85a3.34,3.34,0,0,0,2.16-3.47,3.23,3.23,0,0,0-2.4-3.37c-1.56-.59-4.68-1-9.37-1M544,141.14h-4.32a4.5,4.5,0,0,1-.12-1.2c0-2.64,1.08-4.56,3.12-5.52s6-1.56,11.65-1.56a57.56,57.56,0,0,1,9.6.6,9.17,9.17,0,0,1,4.68,2.4,7.13,7.13,0,0,1,1.8,3.24,40.4,40.4,0,0,1,.36,6.6v13.81h-4.08v-3.12h-.24a6.76,6.76,0,0,1-3.72,2.88,38.24,38.24,0,0,1-8.17.6,85.56,85.56,0,0,1-9.6-.36,10.17,10.17,0,0,1-4.08-1.32,7.16,7.16,0,0,1-1.92-2.4,11.88,11.88,0,0,1-.48-4,10.59,10.59,0,0,1,.84-4.69,5,5,0,0,1,2.76-2.4c1.32-.6,4.68-1,9.73-1a62.76,62.76,0,0,1,10.68.6,6.06,6.06,0,0,1,3.84,2.29h.36v-2.89c0-2.28-.48-4-1.32-4.92a4.86,4.86,0,0,0-3.36-1.8,35.71,35.71,0,0,0-7.32-.48c-4.57,0-7.45.24-8.77.72S544,139,544,140.78Zm-13.44-14.52h4.08V121.7h-4.08Zm0,32.89h4.08V133.22h-4.08Zm-31,0h4.09V147.38c0-4.56.72-7.56,2.15-8.88s4.56-1.92,9.61-1.92c3.36,0,5.52.48,6.6,1.44a3.3,3.3,0,0,1,1,1.8,12.44,12.44,0,0,1,.36,3.36v1.92h4.2v-2.76c0-3.48-.84-5.88-2.64-7.44a6.83,6.83,0,0,0-3.24-1.56,31.09,31.09,0,0,0-5.76-.48c-2.64,0-4.56.12-5.88.24a14.2,14.2,0,0,0-3.12.84,7.74,7.74,0,0,0-3,2.88h-.23v-3.6h-4.09Zm-8.4-15.73c0-2.64-.72-4.44-2-5.4a8.07,8.07,0,0,0-3.72-1.44,52.39,52.39,0,0,0-7.08-.36,38.57,38.57,0,0,0-6.12.36,7.88,7.88,0,0,0-3.36,1.32c-1.32,1-2,2.88-2.28,5.52Zm.12,7.68h4.32q0,4.69-3.24,6.49c-2.16,1.32-5.88,1.92-11.16,1.92a96.67,96.67,0,0,1-10.08-.48,12.29,12.29,0,0,1-5.16-1.8q-4-2.88-4-11.17c0-3.84.6-6.84,1.68-8.76a8.06,8.06,0,0,1,4.69-3.72c1.92-.72,5.4-1.08,10.08-1.08a47.36,47.36,0,0,1,9.84.72,9.6,9.6,0,0,1,4.8,2.76,10.07,10.07,0,0,1,2,4.08,30.23,30.23,0,0,1,.6,6.85H466.41c.13,3.36.73,5.51,1.93,6.71a7.11,7.11,0,0,0,3.84,1.81,71.45,71.45,0,0,0,8.52.36,42,42,0,0,0,6.48-.36,5.5,5.5,0,0,0,3.12-1.56,5,5,0,0,0,1-2.77m-55.09-18.24h-6.48v3.6h6.48v12.72a24.93,24.93,0,0,0,.24,4.69,6.64,6.64,0,0,0,1.2,2.64,6.08,6.08,0,0,0,3.6,2.28,23.33,23.33,0,0,0,6.6.72,23,23,0,0,0,6.48-.72,7.45,7.45,0,0,0,3.48-2.53,9.29,9.29,0,0,0,1.08-2.75,40.14,40.14,0,0,0,.24-4.56v-1.69H455v1.69a19.2,19.2,0,0,1-.24,3.35,2.63,2.63,0,0,1-.6,1.69,3.31,3.31,0,0,1-1.92,1.44,17.38,17.38,0,0,1-4.08.36,21.59,21.59,0,0,1-4.56-.36,4.66,4.66,0,0,1-2.4-1.32,6.32,6.32,0,0,1-.72-1.69,29.55,29.55,0,0,1-.24-4.56v-11.4h18.36v-3.6H440.25v-6.48h-4.08ZM411.56,147.5c-3.36,0-5.76.12-7.08.24a9,9,0,0,0-2.88.6,3.8,3.8,0,0,0-1.68,3.61,3.44,3.44,0,0,0,1.92,3.48c1.08.48,4.56.72,10.68.72,4.32,0,7.32-.24,8.65-.85a3.34,3.34,0,0,0,2.16-3.47,3.22,3.22,0,0,0-2.41-3.37c-1.55-.59-4.68-1-9.36-1M401,141.14h-4.32c0-.48-.12-.84-.12-1.2,0-2.64,1.08-4.56,3.12-5.52s6-1.56,11.64-1.56a57.56,57.56,0,0,1,9.6.6,9.2,9.2,0,0,1,4.69,2.4,7,7,0,0,1,1.79,3.24,39,39,0,0,1,.37,6.6v13.81h-4.08l.12-3.12h-.25a7.61,7.61,0,0,1-3.72,2.88,39.58,39.58,0,0,1-8.28.6,85.56,85.56,0,0,1-9.6-.36,10.17,10.17,0,0,1-4.08-1.32,7.16,7.16,0,0,1-1.92-2.4,11.88,11.88,0,0,1-.48-4,10.59,10.59,0,0,1,.84-4.69,5,5,0,0,1,2.76-2.4c1.32-.6,4.68-1,9.84-1a61,61,0,0,1,10.56.6,5.79,5.79,0,0,1,3.85,2.29h.36v-2.89c0-2.28-.48-4-1.33-4.92a4.84,4.84,0,0,0-3.36-1.8,35.71,35.71,0,0,0-7.32-.48c-4.44,0-7.44.24-8.76.72S401,139,401,140.78Zm-70.58,18.37h5V126.38h2.17L359,159.51h4.08l21.13-33.13h2.16v33.13h5V121.7H381.2L361,153.75l-20.53-32H330.42Zm-43.09,0h6.13l8-22.33h.36L310,159.51h6.12l12.24-26.29h-4.8l-10.2,22.45H313l-8-22.45h-6.61l-7.92,22.45h-.36L280,133.22h-4.68Zm-29-12c-3.37,0-5.76.12-7.21.24a11,11,0,0,0-2.87.6,4,4,0,0,0-1.69,3.61,3.53,3.53,0,0,0,2,3.48c1,.48,4.57.72,10.57.72,4.44,0,7.32-.24,8.76-.85a3.71,3.71,0,0,0-.24-6.84c-1.56-.59-4.68-1-9.36-1m-10.68-6.36h-4.33v-1.2c0-2.64,1-4.56,3.12-5.52s5.88-1.56,11.65-1.56a57.56,57.56,0,0,1,9.6.6,8.77,8.77,0,0,1,4.56,2.4,5.47,5.47,0,0,1,1.8,3.24,28.05,28.05,0,0,1,.48,6.6v13.81h-4.2l.12-3.12h-.24a7.2,7.2,0,0,1-3.72,2.88,39,39,0,0,1-8.16.6,83.85,83.85,0,0,1-9.6-.36,10.27,10.27,0,0,1-4.09-1.32,5.93,5.93,0,0,1-1.92-2.4,11.49,11.49,0,0,1-.6-4,12.62,12.62,0,0,1,.84-4.69,5.49,5.49,0,0,1,2.76-2.4c1.44-.6,4.68-1,9.85-1a61,61,0,0,1,10.56.6,5.5,5.5,0,0,1,3.84,2.29h.36v-2.89c0-2.28-.36-4-1.2-4.92a5.14,5.14,0,0,0-3.36-1.8,37.08,37.08,0,0,0-7.44-.48c-4.44,0-7.33.24-8.65.72a3.42,3.42,0,0,0-2,3.48Zm-47.06-.6H219c4.92,0,8-.12,9.48-.24a8.55,8.55,0,0,0,3.36-1c1.32-.84,1.92-3,1.92-6.36,0-2.76-.6-4.68-1.8-5.52a9.14,9.14,0,0,0-3.6-1.08c-1.68-.12-4.8-.24-9.36-.24H200.55Zm-5,19V121.7H219c6.36.12,10.44.24,12.24.48a7.71,7.71,0,0,1,6.48,4.2,14.64,14.64,0,0,1,1.2,6.72,27.17,27.17,0,0,1-.36,5,4.62,4.62,0,0,1-1.32,2.64,8.23,8.23,0,0,1-4.56,2.4,6.42,6.42,0,0,1,3.84,1.8,6.17,6.17,0,0,1,1.44,2.76,36,36,0,0,1,.36,6.36v5.41h-5v-3.6c0-3.13-.12-5.28-.24-6.37a4.73,4.73,0,0,0-4.08-4.32,19.48,19.48,0,0,0-2.52-.12c-.72-.12-3.12-.12-7.44-.12H200.55v14.53Z"/><path class="cls-1" d="M1.37,274.1H9.22v1.08H5.9V285H4.71v-9.79H1.37Z"/><path class="cls-1" d="M10.55,285V273.69h1.18v3.87a6.57,6.57,0,0,1,2.42-.6c2.15,0,2.65,1.07,2.65,3.86V285H15.62v-4.12c0-2.07-.23-2.84-1.68-2.84a6.47,6.47,0,0,0-2.21.47V285Z"/><path class="cls-1" d="M19,274h1.18v1.36H19Zm0,3.14h1.18V285H19Z"/><path class="cls-1" d="M27.63,278.26a25.74,25.74,0,0,0-2.75-.25c-1,0-1.71.27-1.71,1.19,0,.74.38.95,2,1.23,2,.33,2.7.72,2.7,2.24,0,1.84-1.16,2.45-3,2.45a22.81,22.81,0,0,1-2.77-.29l.07-1a25.84,25.84,0,0,0,2.59.27c1.28,0,2-.28,2-1.35,0-.81-.41-1-2.12-1.29S22,280.82,22,279.25c0-1.73,1.4-2.29,2.83-2.29a19.88,19.88,0,0,1,2.84.3Z"/><path class="cls-1" d="M38.71,283.51c0,.45.41.62.92.69l-.05.92a2.41,2.41,0,0,1-1.87-.62,8.09,8.09,0,0,1-2.83.62c-1.42,0-2.21-.81-2.21-2.4s.79-2.17,2.4-2.32l2.47-.24v-.67c0-1.1-.47-1.49-1.42-1.49s-3,.2-3,.2l0-.9a19.36,19.36,0,0,1,3.08-.34c1.77,0,2.52.82,2.52,2.53Zm-3.5-2.23a1.25,1.25,0,0,0-1.33,1.41c0,.91.39,1.44,1.19,1.44a8.49,8.49,0,0,0,2.47-.48v-2.59Z"/><path class="cls-1" d="M46.11,277.19l0,1s-1.25-.14-1.85-.14c-1.81,0-2.29.79-2.29,2.89,0,2.32.36,3.17,2.3,3.17.6,0,1.86-.14,1.86-.14l0,1a20.5,20.5,0,0,1-2.18.22c-2.49,0-3.23-1.14-3.23-4.22,0-2.84.92-3.94,3.26-3.94A18.55,18.55,0,0,1,46.11,277.19Z"/><path class="cls-1" d="M49.45,278.14v3.75c0,1.71.11,2.2,1.13,2.2.44,0,1.4-.1,1.4-.1l.08,1a13.9,13.9,0,0,1-1.6.17c-1.62,0-2.17-.61-2.17-2.87v-4.13H47.18v-1h1.11v-2.41h1.16v2.41H52v1Z"/><path class="cls-1" d="M53.39,274h1.18v1.36H53.39Zm0,3.14h1.18V285H53.39Z"/><path class="cls-1" d="M57.35,277.12,59.19,284h.58l1.9-6.83h1.21L60.66,285H58.31l-2.22-7.85Z"/><path class="cls-1" d="M64.38,274h1.18v1.36H64.38Zm0,3.14h1.18V285H64.38Z"/><path class="cls-1" d="M69.39,278.14v3.75c0,1.71.11,2.2,1.13,2.2.44,0,1.4-.1,1.4-.1l.08,1a13.9,13.9,0,0,1-1.6.17c-1.62,0-2.17-.61-2.17-2.87v-4.13H67.12v-1h1.11v-2.41h1.16v2.41h2.5v1Z"/><path class="cls-1" d="M73.77,277.12l2,6.83h.51l2-6.83h1.18l-3.27,11.33H75L76,285H74.82l-2.23-7.85Z"/><path class="cls-1" d="M84.37,285V273.69h1.18v3.87A6.57,6.57,0,0,1,88,277c2.15,0,2.65,1.07,2.65,3.86V285H89.44v-4.12c0-2.07-.23-2.84-1.68-2.84a6.47,6.47,0,0,0-2.21.47V285Z"/><path class="cls-1" d="M98.34,283.51c0,.45.41.62.91.69l0,.92a2.39,2.39,0,0,1-1.87-.62,8.17,8.17,0,0,1-2.83.62c-1.43,0-2.21-.81-2.21-2.4s.78-2.17,2.4-2.32l2.47-.24v-.67c0-1.1-.48-1.49-1.42-1.49-1.1,0-3,.2-3,.2l-.05-.9a19.19,19.19,0,0,1,3.08-.34c1.77,0,2.52.82,2.52,2.53Zm-3.5-2.23c-1,.09-1.33.55-1.33,1.41s.39,1.44,1.19,1.44a8.49,8.49,0,0,0,2.47-.48v-2.59Z"/><path class="cls-1" d="M105.88,278.26a25.74,25.74,0,0,0-2.75-.25c-1,0-1.71.27-1.71,1.19,0,.74.38.95,2,1.23,2,.33,2.7.72,2.7,2.24,0,1.84-1.16,2.45-3,2.45a22.81,22.81,0,0,1-2.77-.29l.06-1a25.84,25.84,0,0,0,2.59.27c1.29,0,2-.28,2-1.35,0-.81-.4-1-2.12-1.29s-2.62-.61-2.62-2.18c0-1.73,1.4-2.29,2.83-2.29a19.88,19.88,0,0,1,2.84.3Z"/><path class="cls-1" d="M111.42,277.12h1.16v1.06a9,9,0,0,1,2.88-1.24v1.2a11.14,11.14,0,0,0-2.86,1.06V285h-1.18Z"/><path class="cls-1" d="M122.49,284l0,.92a27.5,27.5,0,0,1-3.06.25c-2.34,0-3.11-1.36-3.11-4,0-3,1.29-4.13,3.28-4.13s3.16,1.1,3.16,3.67l-.07.9h-5.18c0,1.68.52,2.56,2.06,2.56C120.78,284.09,122.49,284,122.49,284Zm-.88-3.36c0-1.95-.6-2.64-2-2.64s-2.09.74-2.1,2.64Z"/><path class="cls-1" d="M129.7,277.19l0,1s-1.26-.14-1.86-.14c-1.8,0-2.29.79-2.29,2.89,0,2.32.36,3.17,2.31,3.17.6,0,1.85-.14,1.85-.14l.05,1a20.82,20.82,0,0,1-2.18.22c-2.5,0-3.24-1.14-3.24-4.22,0-2.84.93-3.94,3.27-3.94A18.84,18.84,0,0,1,129.7,277.19Z"/><path class="cls-1" d="M137.17,284l0,.92a27.5,27.5,0,0,1-3.06.25c-2.34,0-3.11-1.36-3.11-4,0-3,1.29-4.13,3.28-4.13s3.16,1.1,3.16,3.67l-.07.9h-5.18c0,1.68.52,2.56,2.06,2.56C135.46,284.09,137.17,284,137.17,284Zm-.88-3.36c0-1.95-.6-2.64-2-2.64s-2.09.74-2.1,2.64Z"/><path class="cls-1" d="M139.3,274h1.18v1.36H139.3Zm0,3.14h1.18V285H139.3Z"/><path class="cls-1" d="M143.26,277.12,145.1,284h.58l1.9-6.83h1.21L146.57,285h-2.35L142,277.12Z"/><path class="cls-1" d="M156,284l0,.92a27.5,27.5,0,0,1-3.06.25c-2.34,0-3.11-1.36-3.11-4,0-3,1.28-4.13,3.28-4.13s3.15,1.1,3.15,3.67l-.06.9H151c0,1.68.52,2.56,2.06,2.56C154.23,284.09,156,284,156,284Zm-.88-3.36c0-1.95-.6-2.64-2-2.64s-2.09.74-2.11,2.64Z"/><path class="cls-1" d="M164.11,285H163v-.54a5.64,5.64,0,0,1-2.39.69c-1.54,0-2.82-.62-2.82-4,0-2.76.89-4.14,3.28-4.14a14.54,14.54,0,0,1,1.93.2v-3.47h1.16ZM163,283.49v-5.32a12.92,12.92,0,0,0-1.87-.19c-1.65,0-2.14,1.08-2.14,3.12,0,2.55.84,3,1.76,3A5.72,5.72,0,0,0,163,283.49Z"/><path class="cls-1" d="M171.35,285h-1.18v-6.83h-1v-1h1v-.71c0-2.26.58-2.87,2.12-2.87.53,0,1.59.11,1.59.11l0,1s-.88,0-1.35,0c-.88,0-1.16.37-1.16,1.83v.7h2.27v1h-2.27Z"/><path class="cls-1" d="M181.11,277.12V285h-1.18v-.55a5.29,5.29,0,0,1-2.32.7c-2.2,0-2.65-1-2.65-3.91v-4.09h1.17v4.08c0,2.17.19,2.87,1.65,2.87a4.72,4.72,0,0,0,2.15-.58v-6.37Z"/><path class="cls-1" d="M183.37,285v-7.85h1.16v.55A6,6,0,0,1,187,277c2.16,0,2.65,1.07,2.65,3.86V285h-1.16v-4.12c0-2.07-.24-2.84-1.7-2.84a5.36,5.36,0,0,0-2.21.58V285Z"/><path class="cls-1" d="M197.83,285h-1.16v-.54a5.64,5.64,0,0,1-2.39.69c-1.53,0-2.82-.62-2.82-4,0-2.76.89-4.14,3.28-4.14a14.15,14.15,0,0,1,1.93.2v-3.47h1.16Zm-1.16-1.48v-5.32a12.76,12.76,0,0,0-1.87-.19c-1.65,0-2.13,1.08-2.13,3.12,0,2.55.83,3,1.76,3A5.7,5.7,0,0,0,196.67,283.49Z"/><path class="cls-1" d="M200.11,274h1.18v1.36h-1.18Zm0,3.14h1.18V285h-1.18Z"/><path class="cls-1" d="M203.55,285v-7.85h1.16v.55a5.93,5.93,0,0,1,2.43-.71c2.17,0,2.66,1.07,2.66,3.86V285h-1.17v-4.12c0-2.07-.23-2.84-1.69-2.84a5.43,5.43,0,0,0-2.22.58V285Z"/><path class="cls-1" d="M211.63,286.29c0-.91.43-1.34,1.24-2a1.29,1.29,0,0,1-.44-1.09A5.17,5.17,0,0,1,213,282a2.26,2.26,0,0,1-1.24-2.37c0-1.93,1.19-2.68,2.93-2.68a8.17,8.17,0,0,1,1.63.2l2.33-.06v1l-1.49,0a2,2,0,0,1,.52,1.57c0,2-1,2.66-3,2.66a5.12,5.12,0,0,1-.77-.07,4.76,4.76,0,0,0-.29.9c0,.63.13.72,1.9.72,2.23,0,3,.44,3,2.31s-1.27,2.5-3.48,2.5C212.53,288.66,211.63,288.11,211.63,286.29Zm2-1.48c-.66.49-.88.77-.88,1.38,0,1.08.46,1.48,2.23,1.48,1.57,0,2.28-.43,2.28-1.46,0-1.2-.5-1.32-1.93-1.32C214.82,284.89,213.67,284.81,213.67,284.81Zm2.8-5.17c0-1.24-.49-1.72-1.81-1.72s-1.76.48-1.76,1.72.54,1.72,1.76,1.72S216.47,280.88,216.47,279.64Z"/><path class="cls-1" d="M225,285h-1.18v-6.83h-1v-1h1v-.71c0-2.26.58-2.87,2.12-2.87.53,0,1.59.11,1.59.11l0,1s-.88,0-1.35,0c-.88,0-1.16.37-1.16,1.83v.7h2.27v1H225Z"/><path class="cls-1" d="M228.7,277.12h1.16v1.06a8.84,8.84,0,0,1,2.87-1.24v1.2a11.32,11.32,0,0,0-2.86,1.06V285H228.7Z"/><path class="cls-1" d="M240.35,281c0,2.85-.71,4.17-3.36,4.17s-3.36-1.32-3.36-4.17c0-2.7.88-4,3.36-4S240.35,278.25,240.35,281Zm-1.21,0c0-2.19-.47-3-2.15-3s-2.15.78-2.15,3,.29,3.15,2.15,3.15S239.14,283.18,239.14,281Z"/><path class="cls-1" d="M242.26,285v-7.85h1.16v.55a5.27,5.27,0,0,1,2.3-.71,2.21,2.21,0,0,1,2,.8,6.55,6.55,0,0,1,2.79-.8c2.14,0,2.66,1,2.66,3.86V285H252v-4.12c0-2.07-.24-2.84-1.65-2.84a5.18,5.18,0,0,0-2.21.58,9,9,0,0,1,.2,2.29V285h-1.18v-4.05c0-2.17-.22-2.91-1.65-2.91a4.7,4.7,0,0,0-2.1.58V285Z"/><path class="cls-1" d="M260.41,278.14v3.75c0,1.71.11,2.2,1.13,2.2.44,0,1.4-.1,1.4-.1l.08,1a13.9,13.9,0,0,1-1.6.17c-1.62,0-2.17-.61-2.17-2.87v-4.13h-1.12v-1h1.12v-2.41h1.16v2.41h2.5v1Z"/><path class="cls-1" d="M264.35,285V273.69h1.18v3.87A6.64,6.64,0,0,1,268,277c2.15,0,2.65,1.07,2.65,3.86V285h-1.18v-4.12c0-2.07-.23-2.84-1.68-2.84a6.47,6.47,0,0,0-2.21.47V285Z"/><path class="cls-1" d="M278.58,284l0,.92a27.5,27.5,0,0,1-3.06.25c-2.34,0-3.11-1.36-3.11-4,0-3,1.28-4.13,3.28-4.13s3.16,1.1,3.16,3.67l-.07.9h-5.18c0,1.68.52,2.56,2.06,2.56C276.87,284.09,278.58,284,278.58,284Zm-.88-3.36c0-1.95-.6-2.64-2-2.64s-2.09.74-2.1,2.64Z"/><path class="cls-1" d="M284.37,274.1H291v1.07h-5.4v3.75H290V280h-4.46v3.93H291V285h-6.61Z"/><path class="cls-1" d="M298.8,277.12V285h-1.18v-.55a5.34,5.34,0,0,1-2.32.7c-2.2,0-2.66-1-2.66-3.91v-4.09h1.18v4.08c0,2.17.19,2.87,1.65,2.87a4.77,4.77,0,0,0,2.15-.58v-6.37Z"/><path class="cls-1" d="M301.06,277.12h1.16v1.06a9,9,0,0,1,2.87-1.24v1.2a11.16,11.16,0,0,0-2.85,1.06V285h-1.18Z"/><path class="cls-1" d="M312.71,281c0,2.85-.71,4.17-3.36,4.17S306,283.8,306,281c0-2.7.88-4,3.36-4S312.71,278.25,312.71,281Zm-1.21,0c0-2.19-.47-3-2.15-3s-2.15.78-2.15,3,.3,3.15,2.15,3.15S311.5,283.18,311.5,281Z"/><path class="cls-1" d="M314.62,277.12h1.17v.56a5.33,5.33,0,0,1,2.35-.72c2,0,2.84,1.21,2.84,4,0,3.07-1,4.17-3.42,4.17a10,10,0,0,1-1.76-.17v3.5h-1.18Zm1.18,1.52v5.29a12.19,12.19,0,0,0,1.7.17c1.72,0,2.29-.89,2.29-3.15S319.11,278,318,278A5.11,5.11,0,0,0,315.8,278.64Z"/><path class="cls-1" d="M328.69,284l0,.92a27.5,27.5,0,0,1-3.06.25c-2.34,0-3.11-1.36-3.11-4,0-3,1.29-4.13,3.28-4.13s3.16,1.1,3.16,3.67l-.06.9h-5.18c0,1.68.51,2.56,2.05,2.56C327,284.09,328.69,284,328.69,284Zm-.88-3.36c0-1.95-.6-2.64-2-2.64s-2.08.74-2.1,2.64Z"/><path class="cls-1" d="M336.37,283.51c0,.45.41.62.91.69l0,.92a2.41,2.41,0,0,1-1.87-.62,8.08,8.08,0,0,1-2.82.62c-1.43,0-2.22-.81-2.22-2.4s.79-2.17,2.41-2.32l2.46-.24v-.67c0-1.1-.47-1.49-1.41-1.49-1.1,0-3,.2-3,.2l-.05-.9a19.36,19.36,0,0,1,3.08-.34c1.77,0,2.53.82,2.53,2.53Zm-3.5-2.23c-1,.09-1.34.55-1.34,1.41s.39,1.44,1.2,1.44a8.38,8.38,0,0,0,2.46-.48v-2.59Z"/><path class="cls-1" d="M338.69,285v-7.85h1.16v.55a5.94,5.94,0,0,1,2.44-.71c2.16,0,2.65,1.07,2.65,3.86V285h-1.16v-4.12c0-2.07-.24-2.84-1.7-2.84a5.36,5.36,0,0,0-2.21.58V285Z"/><path class="cls-1" d="M350.78,274.1H352V285h-1.21Z"/><path class="cls-1" d="M354.44,285v-7.85h1.16v.55A5.93,5.93,0,0,1,358,277c2.17,0,2.66,1.07,2.66,3.86V285h-1.16v-4.12c0-2.07-.24-2.84-1.7-2.84a5.36,5.36,0,0,0-2.21.58V285Z"/><path class="cls-1" d="M368.08,278.26a25.74,25.74,0,0,0-2.75-.25c-1,0-1.71.27-1.71,1.19,0,.74.38.95,2,1.23,2,.33,2.7.72,2.7,2.24,0,1.84-1.16,2.45-3,2.45a22.81,22.81,0,0,1-2.77-.29l.07-1a25.84,25.84,0,0,0,2.59.27c1.29,0,2-.28,2-1.35,0-.81-.41-1-2.12-1.29s-2.62-.61-2.62-2.18c0-1.73,1.39-2.29,2.82-2.29a19.88,19.88,0,0,1,2.84.3Z"/><path class="cls-1" d="M371.74,278.14v3.75c0,1.71.11,2.2,1.13,2.2.44,0,1.4-.1,1.4-.1l.08,1a14.17,14.17,0,0,1-1.61.17c-1.61,0-2.16-.61-2.16-2.87v-4.13h-1.12v-1h1.12v-2.41h1.16v2.41h2.5v1Z"/><path class="cls-1" d="M375.68,274h1.18v1.36h-1.18Zm0,3.14h1.18V285h-1.18Z"/><path class="cls-1" d="M380.69,278.14v3.75c0,1.71.11,2.2,1.13,2.2.44,0,1.4-.1,1.4-.1l.07,1a13.9,13.9,0,0,1-1.6.17c-1.61,0-2.16-.61-2.16-2.87v-4.13h-1.12v-1h1.12v-2.41h1.16v2.41h2.5v1Z"/><path class="cls-1" d="M390.71,277.12V285h-1.18v-.55a5.35,5.35,0,0,1-2.33.7c-2.19,0-2.65-1-2.65-3.91v-4.09h1.18v4.08c0,2.17.19,2.87,1.65,2.87a4.77,4.77,0,0,0,2.15-.58v-6.37Z"/><path class="cls-1" d="M394.54,278.14v3.75c0,1.71.11,2.2,1.13,2.2.44,0,1.39-.1,1.39-.1l.08,1a13.9,13.9,0,0,1-1.6.17c-1.62,0-2.16-.61-2.16-2.87v-4.13h-1.12v-1h1.12v-2.41h1.16v2.41H397v1Z"/><path class="cls-1" d="M404.27,284l0,.92a27.5,27.5,0,0,1-3.06.25c-2.34,0-3.11-1.36-3.11-4,0-3,1.29-4.13,3.28-4.13s3.16,1.1,3.16,3.67l-.06.9h-5.18c0,1.68.51,2.56,2.05,2.56C402.56,284.09,404.27,284,404.27,284Zm-.88-3.36c0-1.95-.6-2.64-2-2.64s-2.08.74-2.1,2.64Z"/><path class="cls-1" d="M416.23,281c0,2.85-.7,4.17-3.35,4.17s-3.37-1.32-3.37-4.17c0-2.7.88-4,3.37-4S416.23,278.25,416.23,281Zm-1.2,0c0-2.19-.48-3-2.15-3s-2.16.78-2.16,3,.3,3.15,2.16,3.15S415,283.18,415,281Z"/><path class="cls-1" d="M419.66,285h-1.18v-6.83h-1v-1h1v-.71c0-2.26.58-2.87,2.12-2.87.53,0,1.59.11,1.59.11l0,1s-.88,0-1.35,0c-.88,0-1.16.37-1.16,1.83v.7h2.27v1h-2.27Z"/><path class="cls-1" d="M427,274.1h1.21V285H427Z"/><path class="cls-1" d="M430.66,285v-7.85h1.16v.55a6,6,0,0,1,2.44-.71c2.16,0,2.65,1.07,2.65,3.86V285h-1.16v-4.12c0-2.07-.24-2.84-1.7-2.84a5.36,5.36,0,0,0-2.21.58V285Z"/><path class="cls-1" d="M439.09,285v-7.85h1.16v.55a6,6,0,0,1,2.44-.71c2.17,0,2.65,1.07,2.65,3.86V285h-1.16v-4.12c0-2.07-.23-2.84-1.7-2.84a5.36,5.36,0,0,0-2.21.58V285Z"/><path class="cls-1" d="M453.9,281c0,2.85-.71,4.17-3.36,4.17s-3.36-1.32-3.36-4.17c0-2.7.88-4,3.36-4S453.9,278.25,453.9,281Zm-1.21,0c0-2.19-.47-3-2.15-3s-2.15.78-2.15,3,.3,3.15,2.15,3.15S452.69,283.18,452.69,281Z"/><path class="cls-1" d="M456.19,277.12,458,284h.58l1.9-6.83h1.21L459.5,285h-2.35l-2.22-7.85Z"/><path class="cls-1" d="M468.64,283.51c0,.45.41.62.91.69l0,.92a2.39,2.39,0,0,1-1.87-.62,8.17,8.17,0,0,1-2.83.62c-1.43,0-2.21-.81-2.21-2.4s.78-2.17,2.4-2.32l2.46-.24v-.67c0-1.1-.47-1.49-1.41-1.49-1.1,0-3,.2-3,.2l0-.9a19.16,19.16,0,0,1,3.07-.34c1.78,0,2.53.82,2.53,2.53Zm-3.5-2.23c-1,.09-1.33.55-1.33,1.41s.39,1.44,1.19,1.44a8.38,8.38,0,0,0,2.46-.48v-2.59Z"/><path class="cls-1" d="M472.53,278.14v3.75c0,1.71.11,2.2,1.14,2.2.43,0,1.39-.1,1.39-.1l.08,1a13.9,13.9,0,0,1-1.6.17c-1.62,0-2.17-.61-2.17-2.87v-4.13h-1.11v-1h1.11v-2.41h1.16v2.41H475v1Z"/><path class="cls-1" d="M476.48,274h1.17v1.36h-1.17Zm0,3.14h1.17V285h-1.17Z"/><path class="cls-1" d="M486.29,281c0,2.85-.71,4.17-3.36,4.17s-3.36-1.32-3.36-4.17c0-2.7.88-4,3.36-4S486.29,278.25,486.29,281Zm-1.21,0c0-2.19-.47-3-2.15-3s-2.15.78-2.15,3,.3,3.15,2.15,3.15S485.08,283.18,485.08,281Z"/><path class="cls-1" d="M488.2,285v-7.85h1.17v.55a5.93,5.93,0,0,1,2.43-.71c2.17,0,2.65,1.07,2.65,3.86V285h-1.16v-4.12c0-2.07-.23-2.84-1.69-2.84a5.37,5.37,0,0,0-2.22.58V285Z"/><path class="cls-1" d="M505.63,283.51c0,.45.41.62.91.69l-.05.92a2.38,2.38,0,0,1-1.86-.62,8.17,8.17,0,0,1-2.83.62c-1.43,0-2.21-.81-2.21-2.4s.78-2.17,2.4-2.32l2.46-.24v-.67c0-1.1-.47-1.49-1.41-1.49-1.1,0-3,.2-3,.2l0-.9a19.16,19.16,0,0,1,3.07-.34c1.78,0,2.53.82,2.53,2.53Zm-3.5-2.23c-1,.09-1.34.55-1.34,1.41s.4,1.44,1.2,1.44a8.38,8.38,0,0,0,2.46-.48v-2.59Z"/><path class="cls-1" d="M508,285v-7.85h1.17v.55a5.93,5.93,0,0,1,2.43-.71c2.17,0,2.65,1.07,2.65,3.86V285H513v-4.12c0-2.07-.23-2.84-1.69-2.84a5.37,5.37,0,0,0-2.22.58V285Z"/><path class="cls-1" d="M522.41,285h-1.16v-.54a5.63,5.63,0,0,1-2.38.69c-1.54,0-2.83-.62-2.83-4,0-2.76.89-4.14,3.28-4.14a14.15,14.15,0,0,1,1.93.2v-3.47h1.16Zm-1.16-1.48v-5.32a12.76,12.76,0,0,0-1.87-.19c-1.65,0-2.13,1.08-2.13,3.12,0,2.55.83,3,1.76,3A5.7,5.7,0,0,0,521.25,283.49Z"/><path class="cls-1" d="M0,291.92H7.85V293H4.54v9.78H3.34V293H0Z"/><path class="cls-1" d="M13.55,301.76l0,.93a27.5,27.5,0,0,1-3.06.25c-2.34,0-3.11-1.37-3.11-4,0-3,1.29-4.13,3.28-4.13s3.16,1.1,3.16,3.68l-.07.89H8.6c0,1.68.52,2.56,2.06,2.56C11.84,301.9,13.55,301.76,13.55,301.76Zm-.88-3.36c0-1.95-.6-2.64-2-2.64s-2.09.74-2.1,2.64Z"/><path class="cls-1" d="M20.75,295l0,1s-1.26-.15-1.85-.15c-1.81,0-2.3.79-2.3,2.89,0,2.33.36,3.17,2.31,3.17.6,0,1.85-.14,1.85-.14l.05,1a20.82,20.82,0,0,1-2.18.22c-2.5,0-3.24-1.15-3.24-4.23,0-2.84.93-3.94,3.27-3.94A17.82,17.82,0,0,1,20.75,295Z"/><path class="cls-1" d="M22.53,302.78V291.51h1.18v3.86a6.56,6.56,0,0,1,2.41-.6c2.16,0,2.66,1.07,2.66,3.86v4.15H27.6v-4.11c0-2.08-.24-2.85-1.68-2.85a6.47,6.47,0,0,0-2.21.47v6.49Z"/><path class="cls-1" d="M31,302.78v-7.85h1.16v.55a5.93,5.93,0,0,1,2.43-.71c2.17,0,2.66,1.07,2.66,3.86v4.15H36.05v-4.11c0-2.08-.24-2.85-1.7-2.85a5.29,5.29,0,0,0-2.21.59v6.37Z"/><path class="cls-1" d="M45.76,298.76c0,2.86-.7,4.18-3.35,4.18S39,301.62,39,298.76c0-2.7.88-4,3.37-4S45.76,296.06,45.76,298.76Zm-1.2,0c0-2.18-.48-3-2.15-3s-2.16.79-2.16,3,.3,3.16,2.16,3.16S44.56,301,44.56,298.76Z"/><path class="cls-1" d="M47.77,291.51H49v11.27H47.77Z"/><path class="cls-1" d="M57.68,298.76c0,2.86-.7,4.18-3.36,4.18S51,301.62,51,298.76c0-2.7.88-4,3.36-4S57.68,296.06,57.68,298.76Zm-1.21,0c0-2.18-.47-3-2.15-3s-2.15.79-2.15,3,.3,3.16,2.15,3.16S56.47,301,56.47,298.76Z"/><path class="cls-1" d="M59.25,304.1c0-.91.43-1.34,1.24-2a1.27,1.27,0,0,1-.44-1.08,5,5,0,0,1,.54-1.24,2.28,2.28,0,0,1-1.24-2.37c0-1.93,1.19-2.69,2.93-2.69a8,8,0,0,1,1.64.21l2.32-.07v1l-1.49,0a2,2,0,0,1,.52,1.57c0,2-1,2.65-3,2.65a6.83,6.83,0,0,1-.77-.06,4.62,4.62,0,0,0-.29.89c0,.63.13.73,1.9.73,2.23,0,3,.43,3,2.3s-1.27,2.5-3.48,2.5C60.15,306.47,59.25,305.92,59.25,304.1Zm2-1.48c-.66.49-.88.77-.88,1.38,0,1.09.46,1.48,2.23,1.48,1.57,0,2.28-.42,2.28-1.46s-.5-1.32-1.93-1.32C62.44,302.7,61.29,302.62,61.29,302.62Zm2.8-5.16c0-1.24-.49-1.73-1.81-1.73s-1.76.49-1.76,1.73.54,1.71,1.76,1.71S64.09,298.7,64.09,297.46Z"/><path class="cls-1" d="M68.11,294.93l2,6.83h.52l2-6.83h1.17l-3.26,11.34H69.3l1-3.49H69.16l-2.23-7.85Z"/><path class="cls-1" d="M81.14,291a25.14,25.14,0,0,0-1.49,7.05,21.69,21.69,0,0,0,1.49,6.69H80a17.21,17.21,0,0,1-1.64-6.69A20.26,20.26,0,0,1,80,291Z"/><path class="cls-1" d="M83.05,291.92h6.61V293h-5.4v3.76h4.46v1.05H84.26v3.92h5.4v1.07H83.05Z"/><path class="cls-1" d="M91.73,291.92h1.21v10.86H91.73Z"/><path class="cls-1" d="M94.47,291.92h7.85V293H99v9.78H97.81V293H94.47Z"/><path class="cls-1" d="M104.23,291a20.36,20.36,0,0,1,1.63,7.05,17.29,17.29,0,0,1-1.63,6.69H103.1a21.69,21.69,0,0,0,1.49-6.69A25.14,25.14,0,0,0,103.1,291Z"/><path class="cls-1" d="M107.92,301.1h1.3l-1,3.61h-1Z"/><path class="cls-1" d="M120.29,301.32c0,.46.41.63.91.69l0,.93a2.4,2.4,0,0,1-1.87-.63,8.06,8.06,0,0,1-2.83.63c-1.43,0-2.21-.82-2.21-2.4s.78-2.17,2.4-2.33l2.46-.23v-.68c0-1.1-.47-1.49-1.41-1.49-1.1,0-3,.2-3,.2l0-.89a18.64,18.64,0,0,1,3.07-.35c1.78,0,2.53.82,2.53,2.53Zm-3.5-2.23c-1,.09-1.33.55-1.33,1.41s.39,1.45,1.19,1.45a8.24,8.24,0,0,0,2.46-.49v-2.59Z"/><path class="cls-1" d="M132.4,298.73c0,3.12-.85,4.21-3.71,4.21-.94,0-2.62-.18-2.62-.18V291.51h1.16v3.81a6.45,6.45,0,0,1,2.31-.55C131.67,294.77,132.4,295.9,132.4,298.73Zm-1.2,0c0-2-.41-2.91-1.79-2.91a6.54,6.54,0,0,0-2.18.46v5.53s1,.07,1.45.07C130.83,301.88,131.2,300.93,131.2,298.73Z"/><path class="cls-1" d="M140.7,298.76c0,2.86-.7,4.18-3.36,4.18s-3.36-1.32-3.36-4.18c0-2.7.88-4,3.36-4S140.7,296.06,140.7,298.76Zm-1.21,0c0-2.18-.47-3-2.15-3s-2.15.79-2.15,3,.3,3.16,2.15,3.16S139.49,301,139.49,298.76Z"/><path class="cls-1" d="M148.65,302.78h-1.17v-.53a5.57,5.57,0,0,1-2.38.69c-1.54,0-2.83-.63-2.83-4,0-2.77.9-4.15,3.28-4.15a12.42,12.42,0,0,1,1.93.21v-3.47h1.17Zm-1.17-1.48V296a12.75,12.75,0,0,0-1.86-.19c-1.65,0-2.14,1.09-2.14,3.13,0,2.54.83,3,1.76,3A5.7,5.7,0,0,0,147.48,301.3Z"/><path class="cls-1" d="M151.36,294.93l2,6.83h.52l2-6.83H157l-3.27,11.34h-1.18l1-3.49h-1.17l-2.23-7.85Z"/><path class="cls-1" d="M168.33,298.76c0,2.86-.7,4.18-3.36,4.18s-3.36-1.32-3.36-4.18c0-2.7.88-4,3.36-4S168.33,296.06,168.33,298.76Zm-1.21,0c0-2.18-.47-3-2.15-3s-2.15.79-2.15,3,.3,3.16,2.15,3.16S167.12,301,167.12,298.76Z"/><path class="cls-1" d="M171.76,302.78h-1.18V296h-1v-1h1v-.71c0-2.26.58-2.87,2.12-2.87.53,0,1.58.11,1.58.11v1s-.88,0-1.35,0c-.88,0-1.16.38-1.16,1.84v.69H174v1h-2.27Z"/><path class="cls-1" d="M180.47,296v3.75c0,1.71.11,2.2,1.13,2.2.44,0,1.4-.09,1.4-.09l.08,1a14.17,14.17,0,0,1-1.61.17c-1.61,0-2.16-.61-2.16-2.87V296h-1.12v-1h1.12v-2.4h1.16v2.4H183v1Z"/><path class="cls-1" d="M184.41,302.78V291.51h1.18v3.86a6.57,6.57,0,0,1,2.42-.6c2.15,0,2.65,1.07,2.65,3.86v4.15h-1.18v-4.11c0-2.08-.23-2.85-1.68-2.85a6.47,6.47,0,0,0-2.21.47v6.49Z"/><path class="cls-1" d="M198.63,301.76l0,.93a27.53,27.53,0,0,1-3.07.25c-2.34,0-3.1-1.37-3.1-4,0-3,1.28-4.13,3.28-4.13s3.15,1.1,3.15,3.68l-.06.89h-5.18c0,1.68.52,2.56,2.06,2.56C196.92,301.9,198.63,301.76,198.63,301.76Zm-.88-3.36c0-1.95-.59-2.64-2-2.64s-2.09.74-2.11,2.64Z"/><path class="cls-1" d="M204.43,291.92H211V293h-5.4v3.76h4.46v1.05h-4.46v3.92H211v1.07h-6.61Z"/><path class="cls-1" d="M218.86,294.93v7.85h-1.18v-.55a5.3,5.3,0,0,1-2.33.71c-2.19,0-2.65-1-2.65-3.91v-4.1h1.18V299c0,2.17.19,2.87,1.65,2.87a4.77,4.77,0,0,0,2.15-.58v-6.37Z"/><path class="cls-1" d="M221.12,294.93h1.16V296a8.6,8.6,0,0,1,2.87-1.24V296a11.57,11.57,0,0,0-2.86,1.07v5.76h-1.17Z"/><path class="cls-1" d="M232.77,298.76c0,2.86-.71,4.18-3.36,4.18s-3.36-1.32-3.36-4.18c0-2.7.87-4,3.36-4S232.77,296.06,232.77,298.76Zm-1.21,0c0-2.18-.47-3-2.15-3s-2.16.79-2.16,3,.3,3.16,2.16,3.16S231.56,301,231.56,298.76Z"/><path class="cls-1" d="M234.68,294.93h1.16v.57a5.34,5.34,0,0,1,2.36-.73c2,0,2.84,1.21,2.84,4,0,3.08-1,4.18-3.42,4.18a9.71,9.71,0,0,1-1.76-.18v3.51h-1.18Zm1.18,1.52v5.29a10.32,10.32,0,0,0,1.69.18c1.73,0,2.3-.9,2.3-3.16s-.68-2.94-1.82-2.94A5.11,5.11,0,0,0,235.86,296.45Z"/><path class="cls-1" d="M248.75,301.76l0,.93a27.5,27.5,0,0,1-3.06.25c-2.34,0-3.11-1.37-3.11-4,0-3,1.29-4.13,3.28-4.13s3.16,1.1,3.16,3.68l-.07.89H243.8c0,1.68.52,2.56,2.06,2.56C247,301.9,248.75,301.76,248.75,301.76Zm-.88-3.36c0-1.95-.6-2.64-2-2.64s-2.09.74-2.1,2.64Z"/><path class="cls-1" d="M256.43,301.32c0,.46.4.63.91.69l0,.93a2.41,2.41,0,0,1-1.87-.63,8,8,0,0,1-2.83.63c-1.42,0-2.21-.82-2.21-2.4s.79-2.17,2.4-2.33l2.47-.23v-.68c0-1.1-.47-1.49-1.42-1.49s-3,.2-3,.2l-.05-.89a18.84,18.84,0,0,1,3.08-.35c1.77,0,2.53.82,2.53,2.53Zm-3.51-2.23a1.25,1.25,0,0,0-1.33,1.41c0,.91.39,1.45,1.19,1.45a8.25,8.25,0,0,0,2.47-.49v-2.59Z"/><path class="cls-1" d="M258.75,302.78v-7.85h1.16v.55a5.93,5.93,0,0,1,2.43-.71c2.17,0,2.66,1.07,2.66,3.86v4.15h-1.16v-4.11c0-2.08-.24-2.85-1.7-2.85a5.29,5.29,0,0,0-2.21.59v6.37Z"/><path class="cls-1" d="M274.51,301.87c1.7,0,2.66-.66,2.66-2.36v-7.59h1.19v7.56c0,2.48-1.37,3.46-3.85,3.46s-3.75-1-3.75-3.46v-7.56H272v7.59C272,301.21,272.91,301.87,274.51,301.87Z"/><path class="cls-1" d="M280.74,302.78v-7.85h1.17v.55a5.93,5.93,0,0,1,2.43-.71c2.17,0,2.65,1.07,2.65,3.86v4.15h-1.16v-4.11c0-2.08-.23-2.85-1.7-2.85a5.29,5.29,0,0,0-2.21.59v6.37Z"/><path class="cls-1" d="M289.17,291.79h1.18v1.37h-1.18Zm0,3.14h1.18v7.85h-1.18Z"/><path class="cls-1" d="M299,298.76c0,2.86-.71,4.18-3.36,4.18s-3.36-1.32-3.36-4.18c0-2.7.88-4,3.36-4S299,296.06,299,298.76Zm-1.21,0c0-2.18-.47-3-2.15-3s-2.15.79-2.15,3,.29,3.16,2.15,3.16S297.78,301,297.78,298.76Z"/><path class="cls-1" d="M300.9,302.78v-7.85h1.16v.55a6,6,0,0,1,2.44-.71c2.17,0,2.65,1.07,2.65,3.86v4.15H306v-4.11c0-2.08-.24-2.85-1.7-2.85a5.29,5.29,0,0,0-2.21.59v6.37Z"/><path class="cls-1" d="M309.46,301.1h1.3l-1.05,3.61h-1Z"/><path class="cls-1" d="M322.37,294.93v7.85h-1.18v-.55a5.3,5.3,0,0,1-2.33.71c-2.19,0-2.65-1-2.65-3.91v-4.1h1.18V299c0,2.17.19,2.87,1.65,2.87a4.77,4.77,0,0,0,2.15-.58v-6.37Z"/><path class="cls-1" d="M324.63,302.78v-7.85h1.16v.55a5.93,5.93,0,0,1,2.43-.71c2.17,0,2.66,1.07,2.66,3.86v4.15h-1.17v-4.11c0-2.08-.23-2.85-1.69-2.85a5.36,5.36,0,0,0-2.22.59v6.37Z"/><path class="cls-1" d="M339.09,302.78h-1.17v-.53a5.63,5.63,0,0,1-2.38.69c-1.54,0-2.83-.63-2.83-4,0-2.77.9-4.15,3.28-4.15a12.42,12.42,0,0,1,1.93.21v-3.47h1.17Zm-1.17-1.48V296a12.75,12.75,0,0,0-1.86-.19c-1.65,0-2.14,1.09-2.14,3.13,0,2.54.83,3,1.76,3A5.7,5.7,0,0,0,337.92,301.3Z"/><path class="cls-1" d="M347.15,301.76l0,.93a27.53,27.53,0,0,1-3.07.25c-2.33,0-3.1-1.37-3.1-4,0-3,1.28-4.13,3.28-4.13s3.15,1.1,3.15,3.68l-.06.89h-5.18c0,1.68.52,2.56,2.06,2.56C345.44,301.9,347.15,301.76,347.15,301.76Zm-.87-3.36c0-1.95-.6-2.64-2-2.64s-2.09.74-2.11,2.64Z"/><path class="cls-1" d="M349.29,294.93h1.16V296a8.71,8.71,0,0,1,2.88-1.24V296a11.38,11.38,0,0,0-2.86,1.07v5.76h-1.18Z"/><path class="cls-1" d="M359.75,296v3.75c0,1.71.11,2.2,1.13,2.2.44,0,1.39-.09,1.39-.09l.08,1a13.9,13.9,0,0,1-1.6.17c-1.62,0-2.17-.61-2.17-2.87V296h-1.11v-1h1.11v-2.4h1.17v2.4h2.49v1Z"/><path class="cls-1" d="M363.69,302.78V291.51h1.17v3.86a6.64,6.64,0,0,1,2.42-.6c2.15,0,2.66,1.07,2.66,3.86v4.15h-1.18v-4.11c0-2.08-.24-2.85-1.68-2.85a6.49,6.49,0,0,0-2.22.47v6.49Z"/><path class="cls-1" d="M377.91,301.76l0,.93a27.5,27.5,0,0,1-3.06.25c-2.34,0-3.11-1.37-3.11-4,0-3,1.29-4.13,3.28-4.13s3.16,1.1,3.16,3.68l-.06.89H373c0,1.68.52,2.56,2.06,2.56C376.2,301.9,377.91,301.76,377.91,301.76ZM377,298.4c0-1.95-.6-2.64-2-2.64s-2.09.74-2.1,2.64Z"/><path class="cls-1" d="M390.44,297.87h-5.53v4.91H383.7V291.92h1.21v4.86h5.53v-4.86h1.19v10.86h-1.19Z"/><path class="cls-1" d="M400.39,298.76c0,2.86-.7,4.18-3.36,4.18s-3.36-1.32-3.36-4.18c0-2.7.88-4,3.36-4S400.39,296.06,400.39,298.76Zm-1.21,0c0-2.18-.47-3-2.15-3s-2.15.79-2.15,3,.3,3.16,2.15,3.16S399.18,301,399.18,298.76Z"/><path class="cls-1" d="M402.31,294.93h1.16V296a8.72,8.72,0,0,1,2.87-1.24V296a11.41,11.41,0,0,0-2.85,1.07v5.76h-1.18Z"/><path class="cls-1" d="M407.74,291.79h1.18v1.37h-1.18Zm0,3.14h1.18v7.85h-1.18Z"/><path class="cls-1" d="M410.71,294.93h5.82V296l-4.39,5.75h4.39v1h-5.82v-1L415.1,296h-4.39Z"/><path class="cls-1" d="M424.65,298.76c0,2.86-.71,4.18-3.36,4.18s-3.36-1.32-3.36-4.18c0-2.7.88-4,3.36-4S424.65,296.06,424.65,298.76Zm-1.21,0c0-2.18-.47-3-2.15-3s-2.15.79-2.15,3,.3,3.16,2.15,3.16S423.44,301,423.44,298.76Z"/><path class="cls-1" d="M426.57,302.78v-7.85h1.16v.55a5.93,5.93,0,0,1,2.43-.71c2.17,0,2.66,1.07,2.66,3.86v4.15h-1.17v-4.11c0-2.08-.23-2.85-1.69-2.85a5.36,5.36,0,0,0-2.22.59v6.37Z"/><path class="cls-1" d="M438.4,302.78v-1l3-3.19c1.29-1.33,2.09-2.18,2.09-3.4,0-1.39-.77-1.83-2.26-1.83a14.9,14.9,0,0,0-2.68.35l-.1-1a12.66,12.66,0,0,1,3-.42c2.18,0,3.28.83,3.28,2.78,0,1.55-.7,2.46-2.16,3.88l-2.77,2.81H445v1Z"/><path class="cls-1" d="M454.28,297.76c0,4-1.4,5.18-3.77,5.18s-3.79-1.18-3.79-5.17c0-4.27,1.39-5.53,3.77-5.53S454.28,293.49,454.28,297.76Zm-6.3,0c0,3.25.9,4.1,2.53,4.1S453,301,453,297.76c0-3.49-.8-4.43-2.53-4.43S448,294.24,448,297.77Z"/><path class="cls-1" d="M456,302.78v-1l3-3.19c1.29-1.33,2.09-2.18,2.09-3.4,0-1.39-.77-1.83-2.26-1.83a14.92,14.92,0,0,0-2.69.35l-.09-1a12.66,12.66,0,0,1,3-.42c2.18,0,3.28.83,3.28,2.78,0,1.55-.71,2.46-2.17,3.88l-2.76,2.81h5.19v1Z"/><path class="cls-1" d="M471.86,297.76c0,4-1.4,5.18-3.77,5.18s-3.78-1.18-3.78-5.17c0-4.27,1.38-5.53,3.77-5.53S471.86,293.49,471.86,297.76Zm-6.3,0c0,3.25.9,4.1,2.53,4.1s2.53-.86,2.53-4.11c0-3.49-.8-4.43-2.53-4.43S465.56,294.24,465.56,297.77Z"/><path class="cls-1" d="M473.74,301.1h1.31L474,304.71h-1Z"/><path class="cls-1" d="M482.14,296v3.75c0,1.71.11,2.2,1.13,2.2.44,0,1.4-.09,1.4-.09l.08,1a13.9,13.9,0,0,1-1.6.17c-1.62,0-2.17-.61-2.17-2.87V296h-1.11v-1H481v-2.4h1.16v2.4h2.5v1Z"/><path class="cls-1" d="M486.08,302.78V291.51h1.18v3.86a6.64,6.64,0,0,1,2.42-.6c2.15,0,2.65,1.07,2.65,3.86v4.15h-1.17v-4.11c0-2.08-.24-2.85-1.68-2.85a6.49,6.49,0,0,0-2.22.47v6.49Z"/><path class="cls-1" d="M500.31,301.76l0,.93a27.5,27.5,0,0,1-3.06.25c-2.34,0-3.11-1.37-3.11-4,0-3,1.29-4.13,3.28-4.13s3.16,1.1,3.16,3.68l-.07.89h-5.18c0,1.68.52,2.56,2.06,2.56C498.6,301.9,500.31,301.76,500.31,301.76Zm-.88-3.36c0-1.95-.6-2.64-2-2.64s-2.09.74-2.1,2.64Z"/><path class="cls-1" d="M506.1,291.92h6.61V293h-5.4v3.76h4.46v1.05h-4.46v3.92h5.4v1.07H506.1Z"/><path class="cls-1" d="M518.46,301.87c1.69,0,2.65-.66,2.65-2.36v-7.59h1.19v7.56c0,2.48-1.36,3.46-3.84,3.46s-3.75-1-3.75-3.46v-7.56h1.2v7.59C515.91,301.21,516.86,301.87,518.46,301.87Z"/><path class="cls-1" d="M179.56,309.73h6.5v1.07h-5.3V315h4.48v1.06h-4.48v4.49h-1.2Z"/><path class="cls-1" d="M187.28,312.74h1.16v1.07a9,9,0,0,1,2.87-1.24v1.19a11.41,11.41,0,0,0-2.85,1.07v5.76h-1.18Z"/><path class="cls-1" d="M198.25,319.13c0,.46.41.63.91.69l0,.93a2.4,2.4,0,0,1-1.87-.63,8.06,8.06,0,0,1-2.83.63c-1.43,0-2.21-.82-2.21-2.4s.78-2.17,2.4-2.33l2.47-.23v-.68c0-1.1-.48-1.49-1.42-1.49-1.1,0-3,.21-3,.21l0-.9a18.84,18.84,0,0,1,3.08-.35c1.77,0,2.52.82,2.52,2.53Zm-3.5-2.23c-1,.1-1.33.55-1.33,1.42s.39,1.44,1.19,1.44a8.34,8.34,0,0,0,2.47-.49v-2.59Z"/><path class="cls-1" d="M200.58,320.59v-7.85h1.16v.55a5.26,5.26,0,0,1,2.29-.71,2.21,2.21,0,0,1,2,.81,6.5,6.5,0,0,1,2.8-.81c2.13,0,2.65,1,2.65,3.87v4.14h-1.18v-4.11c0-2.07-.23-2.84-1.65-2.84a5.18,5.18,0,0,0-2.21.58,9,9,0,0,1,.2,2.29v4.08h-1.17v-4c0-2.16-.22-2.9-1.65-2.9a4.71,4.71,0,0,0-2.11.58v6.37Z"/><path class="cls-1" d="M219.49,319.57l0,.93a27.53,27.53,0,0,1-3.07.25c-2.34,0-3.1-1.37-3.1-4,0-3,1.28-4.13,3.28-4.13s3.15,1.1,3.15,3.68l-.06.89h-5.18c0,1.68.52,2.56,2.06,2.56C217.78,319.71,219.49,319.57,219.49,319.57Zm-.87-3.36c0-1.94-.6-2.64-2-2.64s-2.09.74-2.11,2.64Z"/><path class="cls-1" d="M222.08,312.74l1.59,6.83h.25l1.87-6.67H227l1.86,6.67h.27l1.57-6.83h1.18L230,320.59h-2l-1.67-6.14-1.66,6.14h-2l-1.87-7.85Z"/><path class="cls-1" d="M239.81,316.57c0,2.86-.71,4.18-3.36,4.18s-3.36-1.32-3.36-4.18c0-2.7.88-4,3.36-4S239.81,313.87,239.81,316.57Zm-1.21,0c0-2.18-.47-3-2.15-3s-2.15.78-2.15,3,.3,3.16,2.15,3.16S238.6,318.8,238.6,316.57Z"/><path class="cls-1" d="M241.73,312.74h1.16v1.07a8.84,8.84,0,0,1,2.87-1.24v1.19a11.57,11.57,0,0,0-2.86,1.07v5.76h-1.17Z"/><path class="cls-1" d="M247.16,320.59V309.32h1.17V316l1.23-.07,2.25-3.17h1.33l-2.56,3.61,2.67,4.24h-1.33L249.58,317l-1.25.05v3.59Z"/><path class="cls-1" d="M259.55,316.93v3.66h-1.21V309.73h4c2.37,0,3.47,1.14,3.47,3.5s-1.1,3.7-3.47,3.7Zm2.74-1.06c1.59,0,2.25-1,2.25-2.64s-.66-2.43-2.25-2.43h-2.74v5.07Z"/><path class="cls-1" d="M267.44,312.74h1.16v1.07a9,9,0,0,1,2.88-1.24v1.19a11.38,11.38,0,0,0-2.86,1.07v5.76h-1.18Z"/><path class="cls-1" d="M279.09,316.57c0,2.86-.71,4.18-3.36,4.18s-3.36-1.32-3.36-4.18c0-2.7.88-4,3.36-4S279.09,313.87,279.09,316.57Zm-1.21,0c0-2.18-.47-3-2.15-3s-2.15.78-2.15,3,.3,3.16,2.15,3.16S277.88,318.8,277.88,316.57Z"/><path class="cls-1" d="M280.66,321.91c0-.91.42-1.33,1.24-2a1.26,1.26,0,0,1-.44-1.08,5,5,0,0,1,.54-1.24,2.29,2.29,0,0,1-1.25-2.37c0-1.93,1.2-2.69,2.94-2.69a7.8,7.8,0,0,1,1.63.21l2.33-.06v1l-1.49,0a2,2,0,0,1,.51,1.57c0,2-1,2.65-3,2.65a6.84,6.84,0,0,1-.76-.06,4.52,4.52,0,0,0-.29.9c0,.62.13.72,1.9.72,2.23,0,3,.44,3,2.31s-1.27,2.49-3.48,2.49C281.56,324.28,280.66,323.73,280.66,321.91Zm2-1.47c-.66.48-.88.77-.88,1.38,0,1.08.46,1.47,2.23,1.47,1.57,0,2.28-.42,2.28-1.46s-.5-1.32-1.93-1.32C283.85,320.51,282.7,320.44,282.7,320.44Zm2.8-5.17c0-1.24-.49-1.73-1.81-1.73s-1.76.49-1.76,1.73.54,1.71,1.76,1.71S285.5,316.51,285.5,315.27Z"/><path class="cls-1" d="M289.08,312.74h1.16v1.07a8.84,8.84,0,0,1,2.87-1.24v1.19a11.38,11.38,0,0,0-2.86,1.07v5.76h-1.17Z"/><path class="cls-1" d="M300.05,319.13c0,.46.41.63.91.69l0,.93a2.42,2.42,0,0,1-1.87-.63,8,8,0,0,1-2.82.63c-1.43,0-2.22-.82-2.22-2.4s.79-2.17,2.41-2.33l2.46-.23v-.68c0-1.1-.47-1.49-1.41-1.49-1.1,0-3,.21-3,.21l-.05-.9a18.84,18.84,0,0,1,3.08-.35c1.78,0,2.53.82,2.53,2.53Zm-3.5-2.23c-1,.1-1.34.55-1.34,1.42s.4,1.44,1.2,1.44a8.24,8.24,0,0,0,2.46-.49v-2.59Z"/><path class="cls-1" d="M302.37,320.59v-7.85h1.16v.55a5.27,5.27,0,0,1,2.3-.71,2.21,2.21,0,0,1,2,.81,6.49,6.49,0,0,1,2.79-.81c2.14,0,2.66,1,2.66,3.87v4.14h-1.18v-4.11c0-2.07-.24-2.84-1.65-2.84a5.18,5.18,0,0,0-2.21.58,9,9,0,0,1,.2,2.29v4.08H307.3v-4c0-2.16-.22-2.9-1.65-2.9a4.7,4.7,0,0,0-2.1.58v6.37Z"/><path class="cls-1" d="M315.5,320.59v-7.85h1.16v.55a5.26,5.26,0,0,1,2.29-.71,2.21,2.21,0,0,1,2,.81,6.5,6.5,0,0,1,2.8-.81c2.13,0,2.65,1,2.65,3.87v4.14h-1.18v-4.11c0-2.07-.23-2.84-1.64-2.84a5.19,5.19,0,0,0-2.22.58,8.89,8.89,0,0,1,.21,2.29v4.08h-1.18v-4c0-2.16-.22-2.9-1.65-2.9a4.71,4.71,0,0,0-2.11.58v6.37Z"/><path class="cls-1" d="M334.42,319.57l0,.93a27.5,27.5,0,0,1-3.06.25c-2.34,0-3.11-1.37-3.11-4,0-3,1.28-4.13,3.28-4.13s3.15,1.1,3.15,3.68l-.06.89h-5.18c0,1.68.52,2.56,2.06,2.56C332.71,319.71,334.42,319.57,334.42,319.57Zm-.88-3.36c0-1.94-.6-2.64-2-2.64s-2.09.74-2.1,2.64Z"/><path class="cls-1" d="M341.51,320.59h-1.18v-6.83h-1v-1h1V312c0-2.27.59-2.88,2.13-2.88.53,0,1.58.11,1.58.11v1s-.88,0-1.36,0c-.87,0-1.16.38-1.16,1.84v.69h2.28v1h-2.28Z"/><path class="cls-1" d="M351.44,316.57c0,2.86-.71,4.18-3.36,4.18s-3.36-1.32-3.36-4.18c0-2.7.87-4,3.36-4S351.44,313.87,351.44,316.57Zm-1.21,0c0-2.18-.47-3-2.15-3s-2.16.78-2.16,3,.3,3.16,2.16,3.16S350.23,318.8,350.23,316.57Z"/><path class="cls-1" d="M353.35,312.74h1.16v1.07a9,9,0,0,1,2.88-1.24v1.19a11.38,11.38,0,0,0-2.86,1.07v5.76h-1.18Z"/><path class="cls-1" d="M363.65,316.43v4.16h-1.21V309.73h4c2.28,0,3.47,1,3.47,3.3a2.94,2.94,0,0,1-2,3.15l2.08,4.41h-1.33l-2-4.16Zm2.81-5.63h-2.81v4.56h2.83c1.63,0,2.21-1,2.21-2.33A2,2,0,0,0,366.46,310.8Z"/><path class="cls-1" d="M377.56,319.57l0,.93a27.5,27.5,0,0,1-3.06.25c-2.34,0-3.11-1.37-3.11-4,0-3,1.29-4.13,3.28-4.13s3.16,1.1,3.16,3.68l-.06.89h-5.19c0,1.68.52,2.56,2.06,2.56C375.85,319.71,377.56,319.57,377.56,319.57Zm-.88-3.36c0-1.94-.6-2.64-2-2.64s-2.09.74-2.1,2.64Z"/><path class="cls-1" d="M384.91,313.89a25.74,25.74,0,0,0-2.75-.25c-1,0-1.71.26-1.71,1.19,0,.74.38.94,2,1.23,2,.32,2.7.72,2.7,2.24,0,1.84-1.16,2.45-3.05,2.45a22.08,22.08,0,0,1-2.76-.3l.06-1a25.84,25.84,0,0,0,2.59.27c1.29,0,2-.28,2-1.35,0-.82-.41-1-2.12-1.29s-2.62-.61-2.62-2.18c0-1.73,1.4-2.3,2.83-2.3a20.08,20.08,0,0,1,2.84.3Z"/><path class="cls-1" d="M392.79,319.57l0,.93a27.5,27.5,0,0,1-3.06.25c-2.34,0-3.11-1.37-3.11-4,0-3,1.29-4.13,3.28-4.13s3.16,1.1,3.16,3.68l-.06.89h-5.19c0,1.68.52,2.56,2.06,2.56C391.08,319.71,392.79,319.57,392.79,319.57Zm-.88-3.36c0-1.94-.6-2.64-2-2.64s-2.09.74-2.1,2.64Z"/><path class="cls-1" d="M400.47,319.13c0,.46.41.63.91.69l-.05.93a2.41,2.41,0,0,1-1.87-.63,8,8,0,0,1-2.82.63c-1.43,0-2.22-.82-2.22-2.4s.79-2.17,2.4-2.33l2.47-.23v-.68c0-1.1-.47-1.49-1.41-1.49-1.1,0-3,.21-3,.21l-.05-.9a18.84,18.84,0,0,1,3.08-.35c1.77,0,2.53.82,2.53,2.53ZM397,316.9c-1,.1-1.34.55-1.34,1.42s.39,1.44,1.19,1.44a8.25,8.25,0,0,0,2.47-.49v-2.59Z"/><path class="cls-1" d="M402.79,312.74H404v1.07a9,9,0,0,1,2.88-1.24v1.19a11.38,11.38,0,0,0-2.86,1.07v5.76h-1.18Z"/><path class="cls-1" d="M413.14,312.82l-.05,1s-1.26-.14-1.85-.14c-1.81,0-2.3.78-2.3,2.89,0,2.32.37,3.17,2.31,3.17.6,0,1.86-.14,1.86-.14l0,1a20.82,20.82,0,0,1-2.18.22c-2.5,0-3.23-1.15-3.23-4.22,0-2.85.92-3.95,3.26-3.95A18.08,18.08,0,0,1,413.14,312.82Z"/><path class="cls-1" d="M414.91,320.59V309.32h1.18v3.86a6.57,6.57,0,0,1,2.42-.6c2.15,0,2.65,1.07,2.65,3.87v4.14H420v-4.11c0-2.07-.23-2.84-1.68-2.84a6.47,6.47,0,0,0-2.21.47v6.48Z"/><path class="cls-1" d="M432.34,319.13c0,.46.41.63.91.69l-.05.93a2.41,2.41,0,0,1-1.87-.63,8,8,0,0,1-2.82.63c-1.43,0-2.22-.82-2.22-2.4s.79-2.17,2.4-2.33l2.47-.23v-.68c0-1.1-.47-1.49-1.41-1.49-1.1,0-3,.21-3,.21l0-.9a18.84,18.84,0,0,1,3.08-.35c1.77,0,2.53.82,2.53,2.53Zm-3.5-2.23c-1,.1-1.34.55-1.34,1.42s.39,1.44,1.19,1.44a8.25,8.25,0,0,0,2.47-.49v-2.59Z"/><path class="cls-1" d="M434.66,320.59v-7.85h1.16v.55a5.94,5.94,0,0,1,2.44-.71c2.16,0,2.65,1.07,2.65,3.87v4.14h-1.16v-4.11c0-2.07-.24-2.84-1.7-2.84a5.36,5.36,0,0,0-2.21.58v6.37Z"/><path class="cls-1" d="M449.12,320.59H448v-.53a5.64,5.64,0,0,1-2.39.69c-1.54,0-2.82-.63-2.82-4,0-2.76.89-4.15,3.28-4.15a12.73,12.73,0,0,1,1.93.21v-3.47h1.16ZM448,319.12v-5.33a14.9,14.9,0,0,0-1.87-.18c-1.65,0-2.14,1.08-2.14,3.12,0,2.54.84,3,1.76,3A5.72,5.72,0,0,0,448,319.12Z"/><path class="cls-1" d="M455.05,309.73h1.21v10.86h-1.21Z"/><path class="cls-1" d="M458.71,320.59v-7.85h1.16v.55a6,6,0,0,1,2.44-.71c2.16,0,2.65,1.07,2.65,3.87v4.14H463.8v-4.11c0-2.07-.24-2.84-1.7-2.84a5.36,5.36,0,0,0-2.21.58v6.37Z"/><path class="cls-1" d="M467.14,320.59v-7.85h1.16v.55a6,6,0,0,1,2.44-.71c2.16,0,2.65,1.07,2.65,3.87v4.14h-1.16v-4.11c0-2.07-.24-2.84-1.7-2.84a5.36,5.36,0,0,0-2.21.58v6.37Z"/><path class="cls-1" d="M482,316.57c0,2.86-.71,4.18-3.36,4.18s-3.36-1.32-3.36-4.18c0-2.7.88-4,3.36-4S482,313.87,482,316.57Zm-1.21,0c0-2.18-.47-3-2.15-3s-2.15.78-2.15,3,.29,3.16,2.15,3.16S480.74,318.8,480.74,316.57Z"/><path class="cls-1" d="M484.24,312.74l1.84,6.83h.58l1.9-6.83h1.21l-2.22,7.85H485.2L483,312.74Z"/><path class="cls-1" d="M496.69,319.13c0,.46.41.63.91.69l-.05.93a2.39,2.39,0,0,1-1.86-.63,8.06,8.06,0,0,1-2.83.63c-1.43,0-2.21-.82-2.21-2.4s.78-2.17,2.4-2.33l2.46-.23v-.68c0-1.1-.47-1.49-1.41-1.49-1.1,0-3,.21-3,.21l-.05-.9a18.84,18.84,0,0,1,3.08-.35c1.78,0,2.53.82,2.53,2.53Zm-3.5-2.23c-1,.1-1.34.55-1.34,1.42s.4,1.44,1.2,1.44a8.24,8.24,0,0,0,2.46-.49v-2.59Z"/><path class="cls-1" d="M500.58,313.76v3.76c0,1.71.11,2.19,1.13,2.19.44,0,1.4-.09,1.4-.09l.08,1a13.16,13.16,0,0,1-1.6.18c-1.62,0-2.17-.62-2.17-2.88v-4.13h-1.11v-1h1.11v-2.4h1.16v2.4h2.5v1Z"/><path class="cls-1" d="M504.52,309.6h1.18V311h-1.18Zm0,3.14h1.18v7.85h-1.18Z"/><path class="cls-1" d="M514.34,316.57c0,2.86-.71,4.18-3.36,4.18s-3.36-1.32-3.36-4.18c0-2.7.88-4,3.36-4S514.34,313.87,514.34,316.57Zm-1.21,0c0-2.18-.47-3-2.15-3s-2.15.78-2.15,3,.29,3.16,2.15,3.16S513.13,318.8,513.13,316.57Z"/><path class="cls-1" d="M516.25,320.59v-7.85h1.16v.55a6,6,0,0,1,2.44-.71c2.16,0,2.65,1.07,2.65,3.87v4.14h-1.16v-4.11c0-2.07-.24-2.84-1.7-2.84a5.36,5.36,0,0,0-2.21.58v6.37Z"/><rect class="cls-1" x="533.1" y="268.91" width="83.47" height="56.69"/><rect class="cls-3" x="534.71" y="270.46" width="80.25" height="53.5"/><polygon class="cls-4" points="573.13 282.12 574.82 280.88 576.52 282.12 575.87 280.12 577.59 278.88 575.47 278.88 574.82 276.87 574.17 278.89 572.05 278.88 573.77 280.12 573.13 282.12"/><polygon class="cls-4" points="564.37 284.48 566.06 283.24 567.75 284.48 567.11 282.48 568.83 281.24 566.71 281.24 566.06 279.22 565.41 281.24 563.29 281.24 565.01 282.48 564.37 284.48"/><polygon class="cls-4" points="559.65 285.64 559 287.67 556.88 287.67 558.6 288.9 557.95 290.9 559.65 289.67 561.34 290.9 560.69 288.9 562.41 287.67 560.29 287.67 559.65 285.64"/><polygon class="cls-4" points="557.29 298.42 558.99 299.65 558.34 297.65 560.06 296.42 557.94 296.42 557.29 294.39 556.65 296.42 554.52 296.42 556.25 297.65 555.6 299.65 557.29 298.42"/><polygon class="cls-4" points="560.29 305.2 559.65 303.18 559 305.2 556.88 305.2 558.6 306.44 557.95 308.44 559.65 307.2 561.34 308.44 560.69 306.44 562.41 305.2 560.29 305.2"/><polygon class="cls-4" points="566.72 311.62 566.07 309.6 565.42 311.63 563.3 311.62 565.02 312.86 564.38 314.86 566.07 313.62 567.76 314.86 567.12 312.86 568.84 311.62 566.72 311.62"/><polygon class="cls-4" points="575.47 313.95 574.82 311.93 574.18 313.96 572.06 313.95 573.78 315.19 573.13 317.19 574.82 315.95 576.52 317.19 575.87 315.19 577.59 313.95 575.47 313.95"/><polygon class="cls-4" points="584.22 311.62 583.58 309.6 582.93 311.63 580.81 311.62 582.53 312.86 581.88 314.86 583.58 313.62 585.27 314.86 584.62 312.86 586.34 311.62 584.22 311.62"/><polygon class="cls-4" points="590.65 305.2 590 303.18 589.35 305.2 587.24 305.2 588.96 306.44 588.31 308.44 590 307.2 591.7 308.44 591.05 306.44 592.77 305.2 590.65 305.2"/><polygon class="cls-4" points="595.1 296.4 592.98 296.4 592.33 294.37 591.68 296.4 589.56 296.4 591.28 297.63 590.64 299.63 592.33 298.39 594.02 299.63 593.38 297.63 595.1 296.4"/><polygon class="cls-4" points="588.31 290.88 590 289.64 591.7 290.88 591.05 288.88 592.77 287.64 590.65 287.64 590 285.62 589.35 287.65 587.23 287.64 588.95 288.88 588.31 290.88"/><polygon class="cls-4" points="583.6 279.22 582.95 281.25 580.83 281.24 582.55 282.48 581.91 284.48 583.61 283.24 585.29 284.48 584.65 282.48 586.37 281.24 584.25 281.24 583.6 279.22"/><path class="cls-1" d="M14.58,3s-4.29-.52-6.07-.52c-3,0-4.62,1.07-4.62,3.43,0,2.73,1.48,3.18,5.2,4,4.25.94,6.13,2,6.13,5.64,0,4.63-2.58,6.45-6.8,6.45a56.67,56.67,0,0,1-6.75-.67l.25-1.94S6.11,20,8.29,20c3,0,4.56-1.3,4.56-4.21,0-2.37-1.26-3-4.74-3.7-4.41-.94-6.63-2-6.63-6S4.2.45,8.35.45a53.53,53.53,0,0,1,6.44.61Z"/><path class="cls-1" d="M30.84,6.61V21.76H28.53V20.7A10.53,10.53,0,0,1,24,22.06c-4.31,0-5.21-2-5.21-7.54V6.61h2.31v7.88c0,4.18.37,5.54,3.24,5.54a9.45,9.45,0,0,0,4.22-1.12V6.61Z"/><path class="cls-1" d="M35.27,6.61h2.28V7.7a10.55,10.55,0,0,1,4.62-1.4c3.88,0,5.58,2.34,5.58,7.7,0,5.94-2,8.06-6.72,8.06a20.46,20.46,0,0,1-3.45-.33v6.76H35.27Zm2.31,2.94V19.76a23.63,23.63,0,0,0,3.33.33c3.39,0,4.5-1.73,4.5-6.09,0-4.15-1.33-5.67-3.58-5.67A10.13,10.13,0,0,0,37.58,9.55Z"/><path class="cls-1" d="M51.5,6.61h2.28V7.7A10.55,10.55,0,0,1,58.4,6.3C62.29,6.3,64,8.64,64,14c0,5.94-2,8.06-6.72,8.06a20.59,20.59,0,0,1-3.45-.33v6.76H51.5Zm2.31,2.94V19.76a23.81,23.81,0,0,0,3.33.33c3.39,0,4.5-1.73,4.5-6.09,0-4.15-1.33-5.67-3.58-5.67A10.13,10.13,0,0,0,53.81,9.55Z"/><path class="cls-1" d="M80.24,14c0,5.52-1.38,8.06-6.59,8.06S67.06,19.52,67.06,14c0-5.21,1.72-7.7,6.59-7.7S80.24,8.79,80.24,14Zm-2.37,0c0-4.21-.92-5.73-4.22-5.73S69.43,9.79,69.43,14s.58,6.09,4.22,6.09S77.87,18.3,77.87,14Z"/><path class="cls-1" d="M84,6.61h2.28V8.67a17.58,17.58,0,0,1,5.63-2.4V8.58a22.33,22.33,0,0,0-5.6,2.06V21.76H84Z"/><path class="cls-1" d="M97.73,8.58v7.24c0,3.3.22,4.24,2.22,4.24.86,0,2.74-.18,2.74-.18l.16,1.88a27.84,27.84,0,0,1-3.14.33c-3.18,0-4.26-1.18-4.26-5.54v-8H93.27v-2h2.18V2h2.28V6.61h4.9v2Z"/><path class="cls-1" d="M116.83,19.79l.06,1.79a55,55,0,0,1-6,.48c-4.6,0-6.1-2.64-6.1-7.79,0-5.75,2.52-8,6.43-8,4.1,0,6.2,2.12,6.2,7.09l-.13,1.73H107.13c0,3.24,1,4.94,4,4.94C113.47,20.06,116.83,19.79,116.83,19.79Zm-1.72-6.49c0-3.75-1.17-5.09-3.89-5.09s-4.09,1.43-4.12,5.09Z"/><path class="cls-1" d="M132.85,21.76h-2.28v-1a11.19,11.19,0,0,1-4.69,1.33c-3,0-5.54-1.21-5.54-7.76,0-5.33,1.76-8,6.44-8a26.22,26.22,0,0,1,3.79.4V0h2.28Zm-2.28-2.85V8.64a26.76,26.76,0,0,0-3.67-.37c-3.23,0-4.19,2.09-4.19,6,0,4.91,1.63,5.73,3.45,5.73A11.36,11.36,0,0,0,130.57,18.91Z"/><path class="cls-1" d="M156.5,13.94c0,6-1.66,8.12-7.27,8.12-1.85,0-5.14-.33-5.14-.33V0h2.28V7.36a12.86,12.86,0,0,1,4.52-1.06C155.08,6.3,156.5,8.49,156.5,13.94Zm-2.34,0c0-3.91-.8-5.61-3.51-5.61a13,13,0,0,0-4.28.88V19.88s2,.15,2.83.15C153.42,20,154.16,18.18,154.16,13.94Z"/><path class="cls-1" d="M160.87,6.61l3.85,13.18h1l3.88-13.18h2.31l-6.41,21.88h-2.31l2-6.73h-2.28L158.56,6.61Z"/></g></g></svg>